Ubuntu-Italic.ufo
<glyph name="exclam" format="2">
  <advance width="244"/>
  <unicode hex="0021"/>
  <outline>
    <contour>
      <point x="151" y="214" type="curve"/>
      <point x="196" y="214" type="line"/>
      <point x="223" y="285"/>
      <point x="268" y="449"/>
      <point x="281" y="501" type="curve" smooth="yes"/>
      <point x="327" y="693" type="line"/>
      <point x="247" y="693" type="line"/>
      <point x="201" y="502" type="line" smooth="yes"/>
      <point x="175" y="389"/>
      <point x="162" y="303"/>
    </contour>
    <contour>
      <point x="132" y="-12" type="curve" smooth="yes"/>
      <point x="170" y="-12"/>
      <point x="194" y="21"/>
      <point x="194" y="54" type="curve" smooth="yes"/>
      <point x="194" y="82"/>
      <point x="177" y="105"/>
      <point x="141" y="105" type="curve" smooth="yes"/>
      <point x="103" y="105"/>
      <point x="79" y="72"/>
      <point x="79" y="40" type="curve" smooth="yes"/>
      <point x="79" y="11"/>
      <point x="96" y="-12"/>
    </contour>
  </outline>
</glyph>
<glyph name="numbersign" format="2">
  <advance width="637"/>
  <unicode hex="0023"/>
  <outline>
    <contour>
      <point x="97" y="0" type="line"/>
      <point x="167" y="0" type="line"/>
      <point x="246" y="187" type="line"/>
      <point x="414" y="187" type="line"/>
      <point x="334" y="0" type="line"/>
      <point x="404" y="0" type="line"/>
      <point x="484" y="187" type="line"/>
      <point x="626" y="187" type="line"/>
      <point x="642" y="248" type="line"/>
      <point x="509" y="248" type="line"/>
      <point x="593" y="444" type="line"/>
      <point x="688" y="444" type="line"/>
      <point x="703" y="505" type="line"/>
      <point x="619" y="505" type="line"/>
      <point x="700" y="693" type="line"/>
      <point x="630" y="693" type="line"/>
      <point x="550" y="505" type="line"/>
      <point x="384" y="505" type="line"/>
      <point x="465" y="693" type="line"/>
      <point x="395" y="693" type="line"/>
      <point x="314" y="505" type="line"/>
      <point x="167" y="505" type="line"/>
      <point x="153" y="444" type="line"/>
      <point x="288" y="444" type="line"/>
      <point x="204" y="248" type="line"/>
      <point x="106" y="248" type="line"/>
      <point x="91" y="187" type="line"/>
      <point x="177" y="187" type="line"/>
    </contour>
    <contour>
      <point x="273" y="248" type="line"/>
      <point x="357" y="444" type="line"/>
      <point x="524" y="444" type="line"/>
      <point x="440" y="248" type="line"/>
    </contour>
  </outline>
</glyph>
<glyph name="dollar" format="2">
  <advance width="574"/>
  <unicode hex="0024"/>
  <outline>
    <contour>
      <point x="226" y="-109" type="line"/>
      <point x="293" y="-109" type="line"/>
      <point x="325" y="23" type="line"/>
      <point x="448" y="36"/>
      <point x="533" y="104"/>
      <point x="533" y="217" type="curve" smooth="yes"/>
      <point x="533" y="322"/>
      <point x="451" y="352"/>
      <point x="382" y="386" type="curve" smooth="yes"/>
      <point x="332" y="411"/>
      <point x="294" y="436"/>
      <point x="294" y="490" type="curve" smooth="yes"/>
      <point x="294" y="564"/>
      <point x="363" y="596"/>
      <point x="447" y="596" type="curve" smooth="yes"/>
      <point x="515" y="596"/>
      <point x="557" y="575"/>
      <point x="575" y="563" type="curve"/>
      <point x="611" y="623" type="line"/>
      <point x="588" y="639"/>
      <point x="539" y="659"/>
      <point x="479" y="663" type="curve"/>
      <point x="506" y="776" type="line"/>
      <point x="439" y="776" type="line"/>
      <point x="411" y="659" type="line"/>
      <point x="290" y="643"/>
      <point x="222" y="579"/>
      <point x="222" y="481" type="curve" smooth="yes"/>
      <point x="222" y="392"/>
      <point x="280" y="354"/>
      <point x="343" y="324" type="curve" smooth="yes"/>
      <point x="403" y="295"/>
      <point x="459" y="273"/>
      <point x="459" y="210" type="curve" smooth="yes"/>
      <point x="459" y="117"/>
      <point x="370" y="85"/>
      <point x="284" y="85" type="curve" smooth="yes"/>
      <point x="208" y="85"/>
      <point x="157" y="114"/>
      <point x="135" y="127" type="curve"/>
      <point x="100" y="67" type="line"/>
      <point x="122" y="51"/>
      <point x="197" y="23"/>
      <point x="258" y="24" type="curve"/>
    </contour>
  </outline>
</glyph>
<glyph name="percent" format="2">
  <advance width="805"/>
  <unicode hex="0025"/>
  <outline>
    <contour>
      <point x="165" y="0" type="line"/>
      <point x="244" y="0" type="line"/>
      <point x="793" y="693" type="line"/>
      <point x="714" y="693" type="line"/>
    </contour>
    <contour>
      <point x="278" y="346" type="curve" smooth="yes"/>
      <point x="403" y="346"/>
      <point x="467" y="475"/>
      <point x="467" y="575" type="curve" smooth="yes"/>
      <point x="467" y="661"/>
      <point x="424" y="707"/>
      <point x="348" y="707" type="curve" smooth="yes"/>
      <point x="223" y="707"/>
      <point x="159" y="579"/>
      <point x="159" y="479" type="curve" smooth="yes"/>
      <point x="159" y="393"/>
      <point x="201" y="346"/>
    </contour>
    <contour>
      <point x="281" y="402" type="curve" smooth="yes"/>
      <point x="229" y="402"/>
      <point x="221" y="439"/>
      <point x="221" y="486" type="curve" smooth="yes"/>
      <point x="221" y="542"/>
      <point x="255" y="651"/>
      <point x="344" y="651" type="curve" smooth="yes"/>
      <point x="396" y="651"/>
      <point x="405" y="615"/>
      <point x="405" y="567" type="curve" smooth="yes"/>
      <point x="405" y="511"/>
      <point x="370" y="402"/>
    </contour>
    <contour>
      <point x="614" y="-15" type="curve" smooth="yes"/>
      <point x="739" y="-15"/>
      <point x="804" y="114"/>
      <point x="804" y="214" type="curve" smooth="yes"/>
      <point x="804" y="300"/>
      <point x="760" y="346"/>
      <point x="684" y="346" type="curve" smooth="yes"/>
      <point x="559" y="346"/>
      <point x="495" y="218"/>
      <point x="495" y="118" type="curve" smooth="yes"/>
      <point x="495" y="32"/>
      <point x="537" y="-15"/>
    </contour>
    <contour>
      <point x="617" y="41" type="curve" smooth="yes"/>
      <point x="565" y="41"/>
      <point x="557" y="78"/>
      <point x="557" y="125" type="curve" smooth="yes"/>
      <point x="557" y="181"/>
      <point x="591" y="290"/>
      <point x="680" y="290" type="curve" smooth="yes"/>
      <point x="732" y="290"/>
      <point x="742" y="254"/>
      <point x="742" y="206" type="curve" smooth="yes"/>
      <point x="742" y="150"/>
      <point x="706" y="41"/>
    </contour>
  </outline>
</glyph>
<glyph name="ampersand" format="2">
  <advance width="647"/>
  <unicode hex="0026"/>
  <outline>
    <contour>
      <point x="278" y="-9" type="curve" smooth="yes"/>
      <point x="362" y="-9"/>
      <point x="442" y="25"/>
      <point x="510" y="86" type="curve"/>
      <point x="530" y="57"/>
      <point x="547" y="29"/>
      <point x="558" y="0" type="curve"/>
      <point x="635" y="0" type="line"/>
      <point x="614" y="52"/>
      <point x="589" y="93"/>
      <point x="559" y="135" type="curve"/>
      <point x="602" y="185"/>
      <point x="639" y="247"/>
      <point x="666" y="319" type="curve"/>
      <point x="598" y="327" type="line"/>
      <point x="575" y="272"/>
      <point x="549" y="226"/>
      <point x="519" y="189" type="curve"/>
      <point x="394" y="361" type="line"/>
      <point x="406" y="367" type="line" smooth="yes"/>
      <point x="554" y="438"/>
      <point x="588" y="509"/>
      <point x="588" y="579" type="curve" smooth="yes"/>
      <point x="588" y="651"/>
      <point x="534" y="708"/>
      <point x="449" y="708" type="curve" smooth="yes"/>
      <point x="327" y="708"/>
      <point x="249" y="623"/>
      <point x="249" y="519" type="curve" smooth="yes"/>
      <point x="249" y="474"/>
      <point x="263" y="427"/>
      <point x="294" y="380" type="curve"/>
      <point x="286" y="376" type="line"/>
      <point x="147" y="315"/>
      <point x="101" y="243"/>
      <point x="101" y="157" type="curve" smooth="yes"/>
      <point x="101" y="68"/>
      <point x="164" y="-9"/>
    </contour>
    <contour>
      <point x="285" y="57" type="curve" smooth="yes"/>
      <point x="202" y="57"/>
      <point x="176" y="116"/>
      <point x="176" y="167" type="curve" smooth="yes"/>
      <point x="176" y="252"/>
      <point x="251" y="295"/>
      <point x="320" y="327" type="curve"/>
      <point x="329" y="331" type="line"/>
      <point x="472" y="138" type="line"/>
      <point x="412" y="83"/>
      <point x="345" y="57"/>
    </contour>
    <contour>
      <point x="359" y="407" type="line"/>
      <point x="334" y="444"/>
      <point x="320" y="487"/>
      <point x="320" y="525" type="curve" smooth="yes"/>
      <point x="320" y="592"/>
      <point x="360" y="646"/>
      <point x="443" y="646" type="curve" smooth="yes"/>
      <point x="485" y="646"/>
      <point x="518" y="621"/>
      <point x="518" y="573" type="curve" smooth="yes"/>
      <point x="518" y="520"/>
      <point x="495" y="467"/>
      <point x="366" y="411" type="curve"/>
    </contour>
  </outline>
</glyph>
<glyph name="quotesingle" format="2">
  <advance width="224"/>
  <unicode hex="0027"/>
  <outline>
    <contour>
      <point x="201" y="512" type="curve"/>
      <point x="241" y="512" type="line"/>
      <point x="270" y="578"/>
      <point x="294" y="652"/>
      <point x="310" y="718" type="curve" smooth="yes"/>
      <point x="321" y="760" type="line"/>
      <point x="242" y="760" type="line"/>
      <point x="232" y="719" type="line" smooth="yes"/>
      <point x="215" y="652"/>
      <point x="206" y="580"/>
    </contour>
  </outline>
</glyph>
<glyph name="parenleft" format="2">
  <advance width="318"/>
  <unicode hex="0028"/>
  <outline>
    <contour>
      <point x="197" y="-180" type="curve"/>
      <point x="254" y="-147" type="line"/>
      <point x="218" y="-59"/>
      <point x="201" y="39"/>
      <point x="201" y="133" type="curve" smooth="yes"/>
      <point x="201" y="354"/>
      <point x="301" y="580"/>
      <point x="482" y="746" type="curve"/>
      <point x="431" y="783" type="line"/>
      <point x="238" y="610"/>
      <point x="130" y="367"/>
      <point x="130" y="129" type="curve" smooth="yes"/>
      <point x="130" y="22"/>
      <point x="152" y="-79"/>
    </contour>
  </outline>
</glyph>
<glyph name="parenright" format="2">
  <advance width="318"/>
  <unicode hex="0029"/>
  <outline>
    <contour>
      <point x="34" y="-186" type="line"/>
      <point x="227" y="-14"/>
      <point x="335" y="230"/>
      <point x="335" y="469" type="curve" smooth="yes"/>
      <point x="335" y="577"/>
      <point x="313" y="678"/>
      <point x="267" y="780" type="curve"/>
      <point x="208" y="749" type="line"/>
      <point x="246" y="659"/>
      <point x="264" y="557"/>
      <point x="264" y="462" type="curve" smooth="yes"/>
      <point x="264" y="236"/>
      <point x="162" y="16"/>
      <point x="-17" y="-149" type="curve"/>
    </contour>
  </outline>
</glyph>
<glyph name="asterisk" format="2">
  <advance width="448"/>
  <unicode hex="002A"/>
  <outline>
    <contour>
      <point x="250" y="319" type="line"/>
      <point x="286" y="375"/>
      <point x="307" y="413"/>
      <point x="336" y="472" type="curve"/>
      <point x="365" y="413"/>
      <point x="386" y="375"/>
      <point x="422" y="319" type="curve"/>
      <point x="484" y="362" type="line"/>
      <point x="446" y="417"/>
      <point x="414" y="446"/>
      <point x="363" y="490" type="curve"/>
      <point x="428" y="495"/>
      <point x="471" y="498"/>
      <point x="535" y="523" type="curve"/>
      <point x="511" y="594" type="line"/>
      <point x="450" y="574"/>
      <point x="411" y="553"/>
      <point x="355" y="523" type="curve"/>
      <point x="367" y="586"/>
      <point x="375" y="627"/>
      <point x="375" y="693" type="curve"/>
      <point x="298" y="693" type="line"/>
      <point x="298" y="627"/>
      <point x="306" y="586"/>
      <point x="318" y="523" type="curve"/>
      <point x="262" y="553"/>
      <point x="222" y="574"/>
      <point x="162" y="594" type="curve"/>
      <point x="138" y="523" type="line"/>
      <point x="201" y="498"/>
      <point x="243" y="495"/>
      <point x="309" y="490" type="curve"/>
      <point x="258" y="446"/>
      <point x="227" y="417"/>
      <point x="188" y="362" type="curve" smooth="yes"/>
    </contour>
  </outline>
</glyph>
<glyph name="plus" format="2">
  <advance width="574"/>
  <unicode hex="002B"/>
  <outline>
    <contour>
      <point x="266" y="44" type="line"/>
      <point x="333" y="44" type="line"/>
      <point x="385" y="258" type="line"/>
      <point x="572" y="258" type="line"/>
      <point x="588" y="322" type="line"/>
      <point x="400" y="322" type="line"/>
      <point x="452" y="535" type="line"/>
      <point x="385" y="535" type="line"/>
      <point x="333" y="322" type="line"/>
      <point x="145" y="322" type="line"/>
      <point x="129" y="258" type="line"/>
      <point x="318" y="258" type="line"/>
    </contour>
  </outline>
</glyph>
<glyph name="comma" format="2">
  <advance width="249"/>
  <unicode hex="002C"/>
  <outline>
    <contour>
      <point x="63" y="-158" type="line"/>
      <point x="122" y="-92"/>
      <point x="177" y="10"/>
      <point x="192" y="101" type="curve"/>
      <point x="112" y="101" type="line"/>
      <point x="105" y="41"/>
      <point x="69" y="-65"/>
      <point x="15" y="-133" type="curve"/>
    </contour>
  </outline>
</glyph>
<glyph name="hyphen" format="2">
  <advance width="296"/>
  <unicode hex="002D"/>
  <outline>
    <contour>
      <point x="83" y="255" type="line"/>
      <point x="318" y="255" type="line"/>
      <point x="335" y="326" type="line"/>
      <point x="100" y="326" type="line"/>
    </contour>
  </outline>
</glyph>
<glyph name="period" format="2">
  <advance width="254"/>
  <unicode hex="002E"/>
  <outline>
    <contour>
      <point x="135" y="-13" type="curve" smooth="yes"/>
      <point x="172" y="-13"/>
      <point x="196" y="20"/>
      <point x="196" y="53" type="curve" smooth="yes"/>
      <point x="196" y="81"/>
      <point x="179" y="105"/>
      <point x="143" y="105" type="curve" smooth="yes"/>
      <point x="105" y="105"/>
      <point x="81" y="71"/>
      <point x="81" y="39" type="curve" smooth="yes"/>
      <point x="81" y="10"/>
      <point x="98" y="-13"/>
    </contour>
  </outline>
</glyph>
<glyph name="slash" format="2">
  <advance width="395"/>
  <unicode hex="002F"/>
  <outline>
    <contour>
      <point x="-60" y="-185" type="line"/>
      <point x="13" y="-185" type="line"/>
      <point x="572" y="783" type="line"/>
      <point x="498" y="783" type="line"/>
    </contour>
  </outline>
</glyph>
<glyph name="zero" format="2">
  <advance width="574"/>
  <unicode hex="0030"/>
  <outline>
    <contour>
      <point x="281" y="-15" type="curve" smooth="yes"/>
      <point x="470" y="-15"/>
      <point x="597" y="258"/>
      <point x="597" y="500" type="curve" smooth="yes"/>
      <point x="597" y="623"/>
      <point x="553" y="708"/>
      <point x="439" y="709" type="curve"/>
      <point x="249" y="709"/>
      <point x="122" y="437"/>
      <point x="122" y="194" type="curve" smooth="yes"/>
      <point x="122" y="70"/>
      <point x="166" y="-15"/>
    </contour>
    <contour>
      <point x="288" y="53" type="curve" smooth="yes"/>
      <point x="229" y="53"/>
      <point x="198" y="99"/>
      <point x="198" y="204" type="curve" smooth="yes"/>
      <point x="198" y="410"/>
      <point x="301" y="641"/>
      <point x="432" y="641" type="curve" smooth="yes"/>
      <point x="490" y="641"/>
      <point x="521" y="595"/>
      <point x="521" y="490" type="curve" smooth="yes"/>
      <point x="521" y="284"/>
      <point x="418" y="53"/>
    </contour>
  </outline>
</glyph>
<glyph name="one" format="2">
  <advance width="574"/>
  <unicode hex="0031"/>
  <outline>
    <contour>
      <point x="305" y="0" type="line"/>
      <point x="379" y="0" type="line"/>
      <point x="545" y="693" type="line"/>
      <point x="490" y="693" type="line"/>
      <point x="415" y="620"/>
      <point x="333" y="578"/>
      <point x="256" y="550" type="curve"/>
      <point x="268" y="485" type="line"/>
      <point x="333" y="506"/>
      <point x="401" y="541"/>
      <point x="444" y="581" type="curve"/>
    </contour>
  </outline>
</glyph>
<glyph name="two" format="2">
  <advance width="564"/>
  <unicode hex="0032"/>
  <outline>
    <contour>
      <point x="33" y="0" type="curve"/>
      <point x="429" y="0" type="line"/>
      <point x="444" y="65" type="line"/>
      <point x="125" y="65" type="line"/>
      <point x="148" y="141"/>
      <point x="222" y="197"/>
      <point x="335" y="280" type="curve" smooth="yes"/>
      <point x="433" y="353"/>
      <point x="527" y="429"/>
      <point x="527" y="550" type="curve" smooth="yes"/>
      <point x="527" y="658"/>
      <point x="451" y="708"/>
      <point x="360" y="708" type="curve" smooth="yes"/>
      <point x="291" y="708"/>
      <point x="215" y="682"/>
      <point x="161" y="639" type="curve"/>
      <point x="186" y="578" type="line"/>
      <point x="231" y="616"/>
      <point x="293" y="641"/>
      <point x="348" y="641" type="curve" smooth="yes"/>
      <point x="403" y="641"/>
      <point x="448" y="610"/>
      <point x="448" y="540" type="curve" smooth="yes"/>
      <point x="448" y="445"/>
      <point x="372" y="389"/>
      <point x="279" y="320" type="curve" smooth="yes"/>
      <point x="173" y="242"/>
      <point x="59" y="161"/>
    </contour>
  </outline>
</glyph>
<glyph name="three" format="2">
  <advance width="574"/>
  <unicode hex="0033"/>
  <outline>
    <contour>
      <point x="251" y="-15" type="curve" smooth="yes"/>
      <point x="398" y="-15"/>
      <point x="528" y="66"/>
      <point x="528" y="219" type="curve" smooth="yes"/>
      <point x="528" y="305"/>
      <point x="477" y="349"/>
      <point x="429" y="369" type="curve"/>
      <point x="527" y="404"/>
      <point x="576" y="481"/>
      <point x="576" y="559" type="curve" smooth="yes"/>
      <point x="576" y="663"/>
      <point x="500" y="708"/>
      <point x="410" y="708" type="curve" smooth="yes"/>
      <point x="351" y="708"/>
      <point x="294" y="690"/>
      <point x="246" y="660" type="curve"/>
      <point x="263" y="601" type="line"/>
      <point x="300" y="625"/>
      <point x="351" y="641"/>
      <point x="396" y="641" type="curve" smooth="yes"/>
      <point x="451" y="641"/>
      <point x="497" y="617"/>
      <point x="497" y="551" type="curve" smooth="yes"/>
      <point x="497" y="480"/>
      <point x="440" y="400"/>
      <point x="319" y="400" type="curve" smooth="yes"/>
      <point x="288" y="400" type="line"/>
      <point x="273" y="339" type="line"/>
      <point x="292" y="339" type="line"/>
      <point x="389" y="336"/>
      <point x="449" y="300"/>
      <point x="449" y="218" type="curve" smooth="yes"/>
      <point x="449" y="104"/>
      <point x="362" y="52"/>
      <point x="252" y="52" type="curve" smooth="yes"/>
      <point x="199" y="52"/>
      <point x="147" y="64"/>
      <point x="110" y="86" type="curve"/>
      <point x="80" y="23" type="line"/>
      <point x="131" y="-2"/>
      <point x="191" y="-15"/>
    </contour>
  </outline>
</glyph>
<glyph name="four" format="2">
  <advance width="574"/>
  <unicode hex="0034"/>
  <outline>
    <contour>
      <point x="359" y="0" type="line"/>
      <point x="432" y="0" type="line"/>
      <point x="476" y="184" type="line"/>
      <point x="559" y="184" type="line"/>
      <point x="573" y="246" type="line"/>
      <point x="490" y="246" type="line"/>
      <point x="597" y="693" type="line"/>
      <point x="523" y="693" type="line"/>
      <point x="358" y="563"/>
      <point x="192" y="371"/>
      <point x="109" y="231" type="curve"/>
      <point x="97" y="184" type="line"/>
      <point x="403" y="184" type="line"/>
    </contour>
    <contour>
      <point x="191" y="246" type="line"/>
      <point x="270" y="376"/>
      <point x="396" y="512"/>
      <point x="502" y="597" type="curve"/>
      <point x="417" y="246" type="line"/>
    </contour>
  </outline>
</glyph>
<glyph name="five" format="2">
  <advance width="574"/>
  <unicode hex="0035"/>
  <outline>
    <contour>
      <point x="252" y="-15" type="curve" smooth="yes"/>
      <point x="403" y="-15"/>
      <point x="531" y="68"/>
      <point x="531" y="229" type="curve" smooth="yes"/>
      <point x="531" y="349"/>
      <point x="440" y="412"/>
      <point x="301" y="424" type="curve"/>
      <point x="320" y="479"/>
      <point x="349" y="570"/>
      <point x="366" y="628" type="curve"/>
      <point x="610" y="628" type="line"/>
      <point x="625" y="693" type="line"/>
      <point x="315" y="693" type="line"/>
      <point x="285" y="575"/>
      <point x="256" y="486"/>
      <point x="214" y="367" type="curve"/>
      <point x="288" y="364"/>
      <point x="452" y="358"/>
      <point x="452" y="220" type="curve" smooth="yes"/>
      <point x="452" y="108"/>
      <point x="353" y="53"/>
      <point x="248" y="53" type="curve" smooth="yes"/>
      <point x="201" y="53"/>
      <point x="153" y="65"/>
      <point x="113" y="88" type="curve"/>
      <point x="83" y="22" type="line"/>
      <point x="136" y="-3"/>
      <point x="197" y="-15"/>
    </contour>
  </outline>
</glyph>
<glyph name="six" format="2">
  <advance width="574"/>
  <unicode hex="0036"/>
  <outline>
    <contour>
      <point x="316" y="-15" type="curve" smooth="yes"/>
      <point x="441" y="-15"/>
      <point x="566" y="81"/>
      <point x="566" y="249" type="curve" smooth="yes"/>
      <point x="566" y="348"/>
      <point x="511" y="417"/>
      <point x="393" y="417" type="curve" smooth="yes"/>
      <point x="339" y="417"/>
      <point x="284" y="402"/>
      <point x="236" y="377" type="curve"/>
      <point x="293" y="524"/>
      <point x="420" y="627"/>
      <point x="612" y="631" type="curve"/>
      <point x="620" y="696" type="line"/>
      <point x="323" y="694"/>
      <point x="128" y="471"/>
      <point x="128" y="195" type="curve" smooth="yes"/>
      <point x="128" y="55"/>
      <point x="211" y="-15"/>
    </contour>
    <contour>
      <point x="315" y="50" type="curve" smooth="yes"/>
      <point x="254" y="50"/>
      <point x="203" y="95"/>
      <point x="203" y="195" type="curve" smooth="yes"/>
      <point x="203" y="235"/>
      <point x="207" y="275"/>
      <point x="217" y="312" type="curve"/>
      <point x="260" y="333"/>
      <point x="318" y="351"/>
      <point x="369" y="351" type="curve" smooth="yes"/>
      <point x="453" y="351"/>
      <point x="487" y="308"/>
      <point x="487" y="238" type="curve" smooth="yes"/>
      <point x="487" y="124"/>
      <point x="410" y="50"/>
    </contour>
  </outline>
</glyph>
<glyph name="seven" format="2">
  <advance width="564"/>
  <unicode hex="0037"/>
  <outline>
    <contour>
      <point x="105" y="0" type="curve"/>
      <point x="183" y="0" type="line"/>
      <point x="258" y="247"/>
      <point x="460" y="519"/>
      <point x="578" y="629" type="curve"/>
      <point x="594" y="693" type="line"/>
      <point x="175" y="693" type="line"/>
      <point x="160" y="625" type="line"/>
      <point x="497" y="625" type="line"/>
      <point x="354" y="507"/>
      <point x="170" y="218"/>
    </contour>
  </outline>
</glyph>
<glyph name="eight" format="2">
  <advance width="574"/>
  <unicode hex="0038"/>
  <outline>
    <contour>
      <point x="283" y="-15" type="curve" smooth="yes"/>
      <point x="425" y="-15"/>
      <point x="544" y="66"/>
      <point x="544" y="203" type="curve" smooth="yes"/>
      <point x="544" y="260"/>
      <point x="513" y="310"/>
      <point x="452" y="344" type="curve"/>
      <point x="574" y="403"/>
      <point x="609" y="484"/>
      <point x="609" y="559" type="curve" smooth="yes"/>
      <point x="609" y="658"/>
      <point x="539" y="708"/>
      <point x="441" y="708" type="curve" smooth="yes"/>
      <point x="314" y="708"/>
      <point x="203" y="625"/>
      <point x="203" y="489" type="curve" smooth="yes"/>
      <point x="203" y="434"/>
      <point x="233" y="390"/>
      <point x="273" y="364" type="curve"/>
      <point x="139" y="299"/>
      <point x="103" y="214"/>
      <point x="103" y="136" type="curve" smooth="yes"/>
      <point x="103" y="32"/>
      <point x="189" y="-15"/>
    </contour>
    <contour>
      <point x="292" y="48" type="curve" smooth="yes"/>
      <point x="232" y="48"/>
      <point x="181" y="80"/>
      <point x="181" y="153" type="curve" smooth="yes"/>
      <point x="181" y="207"/>
      <point x="219" y="281"/>
      <point x="326" y="334" type="curve"/>
      <point x="395" y="305"/>
      <point x="467" y="277"/>
      <point x="467" y="196" type="curve" smooth="yes"/>
      <point x="467" y="106"/>
      <point x="382" y="48"/>
    </contour>
    <contour>
      <point x="399" y="373" type="curve"/>
      <point x="339" y="396"/>
      <point x="279" y="427"/>
      <point x="279" y="493" type="curve" smooth="yes"/>
      <point x="279" y="592"/>
      <point x="350" y="645"/>
      <point x="431" y="645" type="curve" smooth="yes"/>
      <point x="496" y="645"/>
      <point x="533" y="612"/>
      <point x="533" y="549" type="curve" smooth="yes"/>
      <point x="533" y="483"/>
      <point x="493" y="422"/>
    </contour>
  </outline>
</glyph>
<glyph name="nine" format="2">
  <advance width="564"/>
  <unicode hex="0039"/>
  <outline>
    <contour>
      <point x="51" y="-2" type="curve" smooth="yes"/>
      <point x="348" y="-2"/>
      <point x="531" y="227"/>
      <point x="531" y="502" type="curve" smooth="yes"/>
      <point x="531" y="653"/>
      <point x="444" y="708"/>
      <point x="348" y="708" type="curve" smooth="yes"/>
      <point x="219" y="708"/>
      <point x="96" y="611"/>
      <point x="96" y="439" type="curve" smooth="yes"/>
      <point x="96" y="346"/>
      <point x="151" y="276"/>
      <point x="273" y="276" type="curve" smooth="yes"/>
      <point x="306" y="276"/>
      <point x="363" y="288"/>
      <point x="422" y="316" type="curve"/>
      <point x="366" y="161"/>
      <point x="235" y="58"/>
      <point x="36" y="63" type="curve"/>
      <point x="24" y="-1" type="line"/>
      <point x="33" y="-2"/>
      <point x="45" y="-2"/>
    </contour>
    <contour>
      <point x="289" y="342" type="curve" smooth="yes"/>
      <point x="209" y="342"/>
      <point x="174" y="389"/>
      <point x="174" y="449" type="curve" smooth="yes"/>
      <point x="174" y="576"/>
      <point x="253" y="644"/>
      <point x="346" y="644" type="curve" smooth="yes"/>
      <point x="416" y="644"/>
      <point x="455" y="594"/>
      <point x="455" y="504" type="curve" smooth="yes"/>
      <point x="455" y="461"/>
      <point x="450" y="420"/>
      <point x="440" y="380" type="curve"/>
      <point x="383" y="353"/>
      <point x="332" y="342"/>
    </contour>
  </outline>
</glyph>
<glyph name="less" format="2">
  <advance width="574"/>
  <unicode hex="003C"/>
  <outline>
    <contour>
      <point x="490" y="88" type="line"/>
      <point x="526" y="148" type="line"/>
      <point x="209" y="294" type="line"/>
      <point x="600" y="441" type="line"/>
      <point x="595" y="509" type="line"/>
      <point x="137" y="332" type="line"/>
      <point x="121" y="267" type="line"/>
    </contour>
  </outline>
</glyph>
<glyph name="equal" format="2">
  <advance width="574"/>
  <unicode hex="003D"/>
  <outline>
    <contour>
      <point x="156" y="372" type="line"/>
      <point x="598" y="372" type="line"/>
      <point x="613" y="436" type="line"/>
      <point x="172" y="436" type="line"/>
    </contour>
    <contour>
      <point x="106" y="161" type="line"/>
      <point x="548" y="161" type="line"/>
      <point x="563" y="225" type="line"/>
      <point x="121" y="225" type="line"/>
    </contour>
  </outline>
</glyph>
<glyph name="greater" format="2">
  <advance width="574"/>
  <unicode hex="003E"/>
  <outline>
    <contour>
      <point x="114" y="88" type="line"/>
      <point x="572" y="265" type="line"/>
      <point x="588" y="330" type="line"/>
      <point x="218" y="509" type="line"/>
      <point x="183" y="449" type="line"/>
      <point x="500" y="303" type="line"/>
      <point x="108" y="156" type="line"/>
    </contour>
  </outline>
</glyph>
<glyph name="question" format="2">
  <advance width="382"/>
  <unicode hex="003F"/>
  <outline>
    <contour>
      <point x="165" y="214" type="curve"/>
      <point x="229" y="214" type="line"/>
      <point x="230" y="285"/>
      <point x="288" y="332"/>
      <point x="348" y="380" type="curve" smooth="yes"/>
      <point x="413" y="433"/>
      <point x="481" y="485"/>
      <point x="481" y="574" type="curve" smooth="yes"/>
      <point x="481" y="672"/>
      <point x="410" y="708"/>
      <point x="329" y="708" type="curve" smooth="yes"/>
      <point x="278" y="708"/>
      <point x="223" y="694"/>
      <point x="182" y="674" type="curve"/>
      <point x="191" y="612" type="line"/>
      <point x="224" y="628"/>
      <point x="272" y="642"/>
      <point x="315" y="642" type="curve" smooth="yes"/>
      <point x="362" y="642"/>
      <point x="403" y="624"/>
      <point x="403" y="568" type="curve" smooth="yes"/>
      <point x="403" y="518"/>
      <point x="376" y="482"/>
      <point x="302" y="426" type="curve" smooth="yes"/>
      <point x="221" y="362"/>
      <point x="167" y="309"/>
    </contour>
    <contour>
      <point x="177" y="-12" type="curve" smooth="yes"/>
      <point x="215" y="-12"/>
      <point x="239" y="21"/>
      <point x="239" y="54" type="curve" smooth="yes"/>
      <point x="239" y="82"/>
      <point x="222" y="105"/>
      <point x="185" y="105" type="curve" smooth="yes"/>
      <point x="148" y="105"/>
      <point x="124" y="72"/>
      <point x="124" y="40" type="curve" smooth="yes"/>
      <point x="124" y="11"/>
      <point x="141" y="-12"/>
    </contour>
  </outline>
</glyph>
<glyph name="at" format="2">
  <advance width="939"/>
  <unicode hex="0040"/>
  <outline>
    <contour>
      <point x="464" y="-154" type="curve" smooth="yes"/>
      <point x="510" y="-154"/>
      <point x="561" y="-147"/>
      <point x="611" y="-134" type="curve"/>
      <point x="616" y="-74" type="line"/>
      <point x="566" y="-86"/>
      <point x="517" y="-92"/>
      <point x="474" y="-92" type="curve" smooth="yes"/>
      <point x="299" y="-92"/>
      <point x="193" y="5"/>
      <point x="193" y="185" type="curve" smooth="yes"/>
      <point x="193" y="485"/>
      <point x="406" y="647"/>
      <point x="621" y="647" type="curve" smooth="yes"/>
      <point x="783" y="647"/>
      <point x="889" y="565"/>
      <point x="889" y="393" type="curve" smooth="yes"/>
      <point x="889" y="273"/>
      <point x="841" y="117"/>
      <point x="719" y="117" type="curve" smooth="yes"/>
      <point x="681" y="117"/>
      <point x="677" y="132"/>
      <point x="677" y="146" type="curve" smooth="yes"/>
      <point x="677" y="157"/>
      <point x="682" y="168"/>
      <point x="684" y="179" type="curve"/>
      <point x="758" y="482" type="line"/>
      <point x="734" y="492"/>
      <point x="680" y="506"/>
      <point x="614" y="506" type="curve" smooth="yes"/>
      <point x="445" y="506"/>
      <point x="335" y="381"/>
      <point x="335" y="217" type="curve" smooth="yes"/>
      <point x="335" y="107"/>
      <point x="403" y="53"/>
      <point x="499" y="53" type="curve" smooth="yes"/>
      <point x="544" y="53"/>
      <point x="592" y="70"/>
      <point x="624" y="92" type="curve"/>
      <point x="636" y="68"/>
      <point x="667" y="55"/>
      <point x="703" y="55" type="curve" smooth="yes"/>
      <point x="821" y="55"/>
      <point x="958" y="158"/>
      <point x="958" y="388" type="curve" smooth="yes"/>
      <point x="958" y="606"/>
      <point x="824" y="709"/>
      <point x="632" y="709" type="curve" smooth="yes"/>
      <point x="361" y="709"/>
      <point x="121" y="521"/>
      <point x="121" y="177" type="curve" smooth="yes"/>
      <point x="121" y="-34"/>
      <point x="262" y="-154"/>
    </contour>
    <contour>
      <point x="505" y="114" type="curve" smooth="yes"/>
      <point x="446" y="114"/>
      <point x="411" y="148"/>
      <point x="411" y="224" type="curve" smooth="yes"/>
      <point x="411" y="349"/>
      <point x="490" y="446"/>
      <point x="606" y="446" type="curve" smooth="yes"/>
      <point x="637" y="446"/>
      <point x="672" y="442"/>
      <point x="676" y="439" type="curve"/>
      <point x="616" y="195" type="line" smooth="yes"/>
      <point x="613" y="182"/>
      <point x="609" y="166"/>
      <point x="609" y="140" type="curve"/>
      <point x="586" y="128"/>
      <point x="559" y="114"/>
    </contour>
  </outline>
</glyph>
<glyph name="A" format="2">
  <advance width="642"/>
  <unicode hex="0041"/>
  <outline>
    <contour>
      <point x="24" y="0" type="curve"/>
      <point x="109" y="0" type="line"/>
      <point x="142" y="64"/>
      <point x="176" y="126"/>
      <point x="210" y="186" type="curve"/>
      <point x="529" y="186" type="line"/>
      <point x="536" y="123"/>
      <point x="543" y="62"/>
      <point x="549" y="0" type="curve"/>
      <point x="629" y="0" type="line"/>
      <point x="599" y="271"/>
      <point x="567" y="498"/>
      <point x="532" y="693" type="curve"/>
      <point x="451" y="693" type="line"/>
      <point x="312" y="489"/>
      <point x="166" y="253"/>
    </contour>
    <contour>
      <point x="248" y="251" type="line"/>
      <point x="319" y="372"/>
      <point x="394" y="487"/>
      <point x="472" y="607" type="curve"/>
      <point x="492" y="484"/>
      <point x="507" y="366"/>
      <point x="521" y="251" type="curve"/>
    </contour>
  </outline>
</glyph>
<glyph name="B" format="2">
  <advance width="617"/>
  <unicode hex="0042"/>
  <outline>
    <contour>
      <point x="209" y="-6" type="curve" smooth="yes"/>
      <point x="389" y="-6"/>
      <point x="548" y="52"/>
      <point x="548" y="233" type="curve" smooth="yes"/>
      <point x="548" y="291"/>
      <point x="512" y="348"/>
      <point x="450" y="365" type="curve"/>
      <point x="528" y="391"/>
      <point x="591" y="456"/>
      <point x="591" y="543" type="curve" smooth="yes"/>
      <point x="591" y="663"/>
      <point x="482" y="700"/>
      <point x="362" y="700" type="curve" smooth="yes"/>
      <point x="299" y="700"/>
      <point x="234" y="691"/>
      <point x="187" y="680" type="curve"/>
      <point x="27" y="13" type="line"/>
      <point x="80" y="1"/>
      <point x="144" y="-6"/>
    </contour>
    <contour>
      <point x="214" y="59" type="curve" smooth="yes"/>
      <point x="178" y="59"/>
      <point x="144" y="61"/>
      <point x="117" y="66" type="curve"/>
      <point x="178" y="329" type="line"/>
      <point x="303" y="329" type="line" smooth="yes"/>
      <point x="419" y="329"/>
      <point x="466" y="301"/>
      <point x="466" y="228" type="curve" smooth="yes"/>
      <point x="466" y="88"/>
      <point x="339" y="59"/>
    </contour>
    <contour>
      <point x="195" y="393" type="line"/>
      <point x="252" y="627" type="line"/>
      <point x="276" y="631"/>
      <point x="311" y="634"/>
      <point x="346" y="634" type="curve" smooth="yes"/>
      <point x="454" y="634"/>
      <point x="510" y="604"/>
      <point x="510" y="528" type="curve" smooth="yes"/>
      <point x="510" y="448"/>
      <point x="446" y="393"/>
      <point x="288" y="393" type="curve" smooth="yes"/>
    </contour>
  </outline>
</glyph>
<glyph name="C" format="2">
  <advance width="623"/>
  <unicode hex="0043"/>
  <outline>
    <contour>
      <point x="397" y="-15" type="curve" smooth="yes"/>
      <point x="467" y="-15"/>
      <point x="541" y="2"/>
      <point x="595" y="31" type="curve"/>
      <point x="585" y="99" type="line"/>
      <point x="555" y="83"/>
      <point x="502" y="55"/>
      <point x="399" y="55" type="curve" smooth="yes"/>
      <point x="281" y="55"/>
      <point x="223" y="126"/>
      <point x="223" y="259" type="curve" smooth="yes"/>
      <point x="223" y="490"/>
      <point x="368" y="639"/>
      <point x="533" y="639" type="curve" smooth="yes"/>
      <point x="586" y="639"/>
      <point x="636" y="625"/>
      <point x="686" y="596" type="curve"/>
      <point x="719" y="664" type="line"/>
      <point x="663" y="695"/>
      <point x="609" y="708"/>
      <point x="547" y="708" type="curve" smooth="yes"/>
      <point x="328" y="708"/>
      <point x="141" y="533"/>
      <point x="141" y="256" type="curve" smooth="yes"/>
      <point x="141" y="68"/>
      <point x="246" y="-15"/>
    </contour>
  </outline>
</glyph>
<glyph name="D" format="2">
  <advance width="693"/>
  <unicode hex="0044"/>
  <outline>
    <contour>
      <point x="255" y="-6" type="curve" smooth="yes"/>
      <point x="559" y="-6"/>
      <point x="721" y="167"/>
      <point x="721" y="416" type="curve" smooth="yes"/>
      <point x="721" y="595"/>
      <point x="622" y="699"/>
      <point x="418" y="699" type="curve" smooth="yes"/>
      <point x="366" y="699"/>
      <point x="313" y="694"/>
      <point x="246" y="680" type="curve"/>
      <point x="87" y="13" type="line"/>
      <point x="130" y="1"/>
      <point x="201" y="-6"/>
    </contour>
    <contour>
      <point x="267" y="61" type="curve" smooth="yes"/>
      <point x="238" y="61"/>
      <point x="209" y="63"/>
      <point x="178" y="67" type="curve"/>
      <point x="311" y="625" type="line"/>
      <point x="344" y="630"/>
      <point x="377" y="633"/>
      <point x="409" y="633" type="curve" smooth="yes"/>
      <point x="566" y="633"/>
      <point x="638" y="558"/>
      <point x="638" y="412" type="curve" smooth="yes"/>
      <point x="638" y="210"/>
      <point x="509" y="61"/>
    </contour>
  </outline>
</glyph>
<glyph name="E" format="2">
  <advance width="542"/>
  <unicode hex="0045"/>
  <outline>
    <contour>
      <point x="87" y="0" type="line"/>
      <point x="506" y="0" type="line"/>
      <point x="521" y="67" type="line"/>
      <point x="179" y="67" type="line"/>
      <point x="245" y="331" type="line"/>
      <point x="526" y="331" type="line"/>
      <point x="542" y="397" type="line"/>
      <point x="258" y="397" type="line"/>
      <point x="314" y="626" type="line"/>
      <point x="632" y="626" type="line"/>
      <point x="648" y="693" type="line"/>
      <point x="253" y="693" type="line"/>
    </contour>
  </outline>
</glyph>
<glyph name="F" format="2">
  <advance width="519"/>
  <unicode hex="0046"/>
  <outline>
    <contour>
      <point x="87" y="0" type="line"/>
      <point x="165" y="0" type="line"/>
      <point x="244" y="326" type="line"/>
      <point x="521" y="326" type="line"/>
      <point x="537" y="393" type="line"/>
      <point x="257" y="393" type="line"/>
      <point x="314" y="626" type="line"/>
      <point x="628" y="626" type="line"/>
      <point x="644" y="693" type="line"/>
      <point x="253" y="693" type="line"/>
    </contour>
  </outline>
</glyph>
<glyph name="G" format="2">
  <advance width="655"/>
  <unicode hex="0047"/>
  <outline>
    <contour>
      <point x="409" y="-15" type="curve" smooth="yes"/>
      <point x="474" y="-15"/>
      <point x="541" y="0"/>
      <point x="598" y="23" type="curve"/>
      <point x="671" y="329" type="line"/>
      <point x="593" y="329" type="line"/>
      <point x="534" y="75" type="line"/>
      <point x="492" y="61"/>
      <point x="449" y="54"/>
      <point x="408" y="54" type="curve" smooth="yes"/>
      <point x="280" y="54"/>
      <point x="223" y="130"/>
      <point x="223" y="265" type="curve" smooth="yes"/>
      <point x="223" y="462"/>
      <point x="344" y="639"/>
      <point x="537" y="639" type="curve" smooth="yes"/>
      <point x="625" y="639"/>
      <point x="693" y="603"/>
      <point x="705" y="593" type="curve"/>
      <point x="739" y="662" type="line"/>
      <point x="708" y="678"/>
      <point x="660" y="708"/>
      <point x="545" y="708" type="curve" smooth="yes"/>
      <point x="296" y="708"/>
      <point x="141" y="492"/>
      <point x="141" y="261" type="curve" smooth="yes"/>
      <point x="141" y="92"/>
      <point x="223" y="-15"/>
    </contour>
  </outline>
</glyph>
<glyph name="H" format="2">
  <advance width="672"/>
  <unicode hex="0048"/>
  <outline>
    <contour>
      <point x="87" y="0" type="line"/>
      <point x="165" y="0" type="line"/>
      <point x="244" y="329" type="line"/>
      <point x="589" y="329" type="line"/>
      <point x="510" y="0" type="line"/>
      <point x="588" y="0" type="line"/>
      <point x="753" y="693" type="line"/>
      <point x="675" y="693" type="line"/>
      <point x="604" y="396" type="line"/>
      <point x="258" y="396" type="line"/>
      <point x="331" y="693" type="line"/>
      <point x="253" y="693" type="line"/>
    </contour>
  </outline>
</glyph>
<glyph name="I" format="2">
  <advance width="249"/>
  <unicode hex="0049"/>
  <outline>
    <contour>
      <point x="87" y="0" type="line"/>
      <point x="166" y="0" type="line"/>
      <point x="331" y="693" type="line"/>
      <point x="253" y="693" type="line"/>
    </contour>
  </outline>
</glyph>
<glyph name="J" format="2">
  <advance width="468"/>
  <unicode hex="004A"/>
  <anchor x="182" y="0" name="bottom"/>
  <anchor x="506" y="674" name="top"/>
  <outline>
    <contour>
      <point x="191" y="-15" type="curve" smooth="yes"/>
      <point x="309" y="-15"/>
      <point x="393" y="33"/>
      <point x="430" y="191" type="curve" smooth="yes"/>
      <point x="549" y="693" type="line"/>
      <point x="471" y="693" type="line"/>
      <point x="353" y="201" type="line" smooth="yes"/>
      <point x="323" y="78"/>
      <point x="265" y="54"/>
      <point x="194" y="54" type="curve" smooth="yes"/>
      <point x="132" y="54"/>
      <point x="83" y="82"/>
      <point x="62" y="103" type="curve"/>
      <point x="23" y="43" type="line"/>
      <point x="64" y="9"/>
      <point x="122" y="-15"/>
    </contour>
  </outline>
</glyph>
<glyph name="K" format="2">
  <advance width="616"/>
  <unicode hex="004B"/>
  <outline>
    <contour>
      <point x="87" y="0" type="line"/>
      <point x="165" y="0" type="line"/>
      <point x="246" y="341" type="line"/>
      <point x="352" y="263"/>
      <point x="437" y="142"/>
      <point x="509" y="0" type="curve"/>
      <point x="594" y="0" type="line"/>
      <point x="544" y="116"/>
      <point x="426" y="285"/>
      <point x="332" y="358" type="curve"/>
      <point x="456" y="455"/>
      <point x="645" y="608"/>
      <point x="737" y="693" type="curve"/>
      <point x="636" y="693" type="line"/>
      <point x="564" y="626"/>
      <point x="383" y="474"/>
      <point x="256" y="382" type="curve"/>
      <point x="330" y="693" type="line"/>
      <point x="253" y="693" type="line"/>
    </contour>
  </outline>
</glyph>
<glyph name="L" format="2">
  <advance width="494"/>
  <unicode hex="004C"/>
  <anchor x="302" y="0" name="bottom"/>
  <anchor x="268" y="347" name="center"/>
  <anchor x="304" y="674" name="top"/>
  <anchor x="350" y="693" name="topright"/>
  <outline>
    <contour>
      <point x="87" y="0" type="line"/>
      <point x="472" y="0" type="line"/>
      <point x="487" y="66" type="line"/>
      <point x="180" y="66" type="line"/>
      <point x="330" y="693" type="line"/>
      <point x="252" y="693" type="line"/>
    </contour>
  </outline>
</glyph>
<glyph name="M" format="2">
  <advance width="846"/>
  <unicode hex="004D"/>
  <outline>
    <contour>
      <point x="72" y="0" type="curve"/>
      <point x="149" y="0" type="line"/>
      <point x="204" y="201"/>
      <point x="263" y="404"/>
      <point x="321" y="577" type="curve"/>
      <point x="345" y="484"/>
      <point x="397" y="206"/>
      <point x="413" y="99" type="curve"/>
      <point x="479" y="99" type="line"/>
      <point x="537" y="189"/>
      <point x="738" y="495"/>
      <point x="799" y="576" type="curve"/>
      <point x="774" y="403"/>
      <point x="740" y="207"/>
      <point x="696" y="0" type="curve"/>
      <point x="775" y="0" type="line"/>
      <point x="821" y="234"/>
      <point x="859" y="458"/>
      <point x="883" y="693" type="curve"/>
      <point x="805" y="693" type="line"/>
      <point x="712" y="567"/>
      <point x="562" y="340"/>
      <point x="463" y="189" type="curve"/>
      <point x="442" y="329"/>
      <point x="400" y="544"/>
      <point x="362" y="693" type="curve"/>
      <point x="285" y="693" type="line"/>
      <point x="217" y="489"/>
      <point x="138" y="245"/>
    </contour>
  </outline>
</glyph>
<glyph name="N" format="2">
  <advance width="687"/>
  <unicode hex="004E"/>
  <anchor x="352" y="0" name="bottom"/>
  <anchor x="504" y="674" name="top"/>
  <outline>
    <contour>
      <point x="87" y="0" type="line"/>
      <point x="164" y="0" type="line"/>
      <point x="304" y="585" type="line"/>
      <point x="384" y="441"/>
      <point x="483" y="162"/>
      <point x="532" y="0" type="curve"/>
      <point x="605" y="0" type="line"/>
      <point x="769" y="693" type="line"/>
      <point x="692" y="693" type="line"/>
      <point x="560" y="128" type="line"/>
      <point x="523" y="272"/>
      <point x="420" y="532"/>
      <point x="326" y="693" type="curve"/>
      <point x="253" y="693" type="line"/>
    </contour>
  </outline>
</glyph>
<glyph name="O" format="2">
  <advance width="759"/>
  <unicode hex="004F"/>
  <anchor x="380" y="0" name="bottom"/>
  <anchor x="439" y="347" name="center"/>
  <anchor x="623" y="10" name="ogonek"/>
  <anchor x="531" y="674" name="top"/>
  <anchor x="124" y="693" name="topleft"/>
  <anchor x="843" y="693" name="topright"/>
  <outline>
    <contour>
      <point x="392" y="-15" type="curve" smooth="yes"/>
      <point x="594" y="-15"/>
      <point x="787" y="165"/>
      <point x="787" y="434" type="curve" smooth="yes"/>
      <point x="787" y="618"/>
      <point x="672" y="708"/>
      <point x="536" y="708" type="curve" smooth="yes"/>
      <point x="334" y="708"/>
      <point x="141" y="528"/>
      <point x="141" y="260" type="curve" smooth="yes"/>
      <point x="141" y="75"/>
      <point x="256" y="-15"/>
    </contour>
    <contour>
      <point x="399" y="54" type="curve" smooth="yes"/>
      <point x="300" y="54"/>
      <point x="223" y="120"/>
      <point x="223" y="252" type="curve" smooth="yes"/>
      <point x="223" y="495"/>
      <point x="371" y="639"/>
      <point x="529" y="639" type="curve" smooth="yes"/>
      <point x="628" y="639"/>
      <point x="705" y="573"/>
      <point x="705" y="442" type="curve" smooth="yes"/>
      <point x="705" y="198"/>
      <point x="557" y="54"/>
    </contour>
  </outline>
</glyph>
<glyph name="P" format="2">
  <advance width="583"/>
  <unicode hex="0050"/>
  <outline>
    <contour>
      <point x="24" y="0" type="line"/>
      <point x="102" y="0" type="line"/>
      <point x="166" y="264" type="line"/>
      <point x="254" y="264" type="line" smooth="yes"/>
      <point x="470" y="264"/>
      <point x="595" y="367"/>
      <point x="595" y="522" type="curve" smooth="yes"/>
      <point x="595" y="636"/>
      <point x="519" y="699"/>
      <point x="360" y="699" type="curve" smooth="yes"/>
      <point x="301" y="699"/>
      <point x="240" y="692"/>
      <point x="187" y="680" type="curve"/>
    </contour>
    <contour>
      <point x="181" y="331" type="line"/>
      <point x="252" y="625" type="line"/>
      <point x="279" y="628"/>
      <point x="311" y="632"/>
      <point x="345" y="632" type="curve" smooth="yes"/>
      <point x="460" y="632"/>
      <point x="513" y="595"/>
      <point x="513" y="512" type="curve" smooth="yes"/>
      <point x="513" y="398"/>
      <point x="422" y="331"/>
      <point x="265" y="331" type="curve" smooth="yes"/>
    </contour>
  </outline>
</glyph>
<glyph name="Q" format="2">
  <advance width="760"/>
  <unicode hex="0051"/>
  <outline>
    <contour>
      <point x="527" y="-184" type="curve"/>
      <point x="555" y="-122" type="line"/>
      <point x="457" y="-109"/>
      <point x="365" y="-81"/>
      <point x="365" y="-28" type="curve" smooth="yes"/>
      <point x="365" y="-22"/>
      <point x="366" y="-18"/>
      <point x="368" y="-12" type="curve"/>
      <point x="554" y="8"/>
      <point x="724" y="182"/>
      <point x="724" y="434" type="curve" smooth="yes"/>
      <point x="724" y="618"/>
      <point x="609" y="708"/>
      <point x="473" y="708" type="curve" smooth="yes"/>
      <point x="271" y="708"/>
      <point x="78" y="528"/>
      <point x="78" y="260" type="curve" smooth="yes"/>
      <point x="78" y="91"/>
      <point x="174" y="2"/>
      <point x="293" y="-12" type="curve"/>
      <point x="291" y="-21"/>
      <point x="291" y="-29"/>
      <point x="291" y="-36" type="curve" smooth="yes"/>
      <point x="291" y="-139"/>
      <point x="421" y="-173"/>
    </contour>
    <contour>
      <point x="336" y="54" type="curve" smooth="yes"/>
      <point x="237" y="54"/>
      <point x="160" y="120"/>
      <point x="160" y="252" type="curve" smooth="yes"/>
      <point x="160" y="495"/>
      <point x="308" y="639"/>
      <point x="466" y="639" type="curve" smooth="yes"/>
      <point x="565" y="639"/>
      <point x="642" y="573"/>
      <point x="642" y="442" type="curve" smooth="yes"/>
      <point x="642" y="198"/>
      <point x="494" y="54"/>
    </contour>
  </outline>
</glyph>
<glyph name="R" format="2">
  <advance width="609"/>
  <unicode hex="0052"/>
  <anchor x="327" y="0" name="bottom"/>
  <anchor x="432" y="674" name="top"/>
  <outline>
    <contour>
      <point x="87" y="0" type="line"/>
      <point x="165" y="0" type="line"/>
      <point x="231" y="277" type="line"/>
      <point x="313" y="277" type="line" smooth="yes"/>
      <point x="335" y="277"/>
      <point x="356" y="278"/>
      <point x="376" y="280" type="curve"/>
      <point x="414" y="213"/>
      <point x="461" y="110"/>
      <point x="497" y="0" type="curve"/>
      <point x="580" y="0" type="line"/>
      <point x="549" y="98"/>
      <point x="489" y="234"/>
      <point x="456" y="294" type="curve"/>
      <point x="592" y="330"/>
      <point x="655" y="414"/>
      <point x="655" y="515" type="curve" smooth="yes"/>
      <point x="655" y="629"/>
      <point x="576" y="699"/>
      <point x="416" y="699" type="curve" smooth="yes"/>
      <point x="359" y="699"/>
      <point x="299" y="690"/>
      <point x="250" y="680" type="curve"/>
    </contour>
    <contour>
      <point x="246" y="342" type="line"/>
      <point x="315" y="625" type="line"/>
      <point x="341" y="628"/>
      <point x="374" y="632"/>
      <point x="407" y="632" type="curve" smooth="yes"/>
      <point x="523" y="632"/>
      <point x="575" y="594"/>
      <point x="575" y="515" type="curve" smooth="yes"/>
      <point x="575" y="408"/>
      <point x="487" y="342"/>
      <point x="326" y="342" type="curve" smooth="yes"/>
    </contour>
  </outline>
</glyph>
<glyph name="S" format="2">
  <advance width="505"/>
  <unicode hex="0053"/>
  <outline>
    <contour>
      <point x="236" y="-15" type="curve" smooth="yes"/>
      <point x="426" y="-15"/>
      <point x="511" y="89"/>
      <point x="511" y="199" type="curve" smooth="yes"/>
      <point x="511" y="314"/>
      <point x="434" y="352"/>
      <point x="362" y="388" type="curve" smooth="yes"/>
      <point x="305" y="417"/>
      <point x="254" y="445"/>
      <point x="254" y="515" type="curve" smooth="yes"/>
      <point x="254" y="607"/>
      <point x="334" y="642"/>
      <point x="418" y="642" type="curve" smooth="yes"/>
      <point x="470" y="642"/>
      <point x="516" y="631"/>
      <point x="560" y="603" type="curve"/>
      <point x="599" y="667" type="line"/>
      <point x="542" y="696"/>
      <point x="490" y="708"/>
      <point x="429" y="708" type="curve" smooth="yes"/>
      <point x="255" y="708"/>
      <point x="173" y="608"/>
      <point x="173" y="508" type="curve" smooth="yes"/>
      <point x="173" y="401"/>
      <point x="246" y="362"/>
      <point x="317" y="325" type="curve" smooth="yes"/>
      <point x="374" y="295"/>
      <point x="429" y="266"/>
      <point x="429" y="196" type="curve" smooth="yes"/>
      <point x="429" y="93"/>
      <point x="339" y="52"/>
      <point x="248" y="52" type="curve" smooth="yes"/>
      <point x="188" y="52"/>
      <point x="129" y="74"/>
      <point x="91" y="102" type="curve"/>
      <point x="52" y="36" type="line"/>
      <point x="102" y="6"/>
      <point x="167" y="-15"/>
    </contour>
  </outline>
</glyph>
<glyph name="T" format="2">
  <advance width="544"/>
  <unicode hex="0054"/>
  <outline>
    <contour>
      <point x="233" y="0" type="line"/>
      <point x="311" y="0" type="line"/>
      <point x="461" y="626" type="line"/>
      <point x="672" y="626" type="line"/>
      <point x="688" y="693" type="line"/>
      <point x="187" y="693" type="line"/>
      <point x="172" y="626" type="line"/>
      <point x="383" y="626" type="line"/>
    </contour>
  </outline>
</glyph>
<glyph name="U" format="2">
  <advance width="662"/>
  <unicode hex="0055"/>
  <anchor x="264" y="0" name="bottom"/>
  <anchor x="473" y="10" name="ogonek"/>
  <anchor x="433" y="674" name="top"/>
  <anchor x="683" y="693" name="topright"/>
  <outline>
    <contour>
      <point x="285" y="-16" type="curve" smooth="yes"/>
      <point x="449" y="-16"/>
      <point x="536" y="67"/>
      <point x="582" y="260" type="curve" smooth="yes"/>
      <point x="686" y="693" type="line"/>
      <point x="608" y="693" type="line"/>
      <point x="506" y="270" type="line" smooth="yes"/>
      <point x="469" y="117"/>
      <point x="411" y="53"/>
      <point x="293" y="53" type="curve" smooth="yes"/>
      <point x="189" y="53"/>
      <point x="155" y="112"/>
      <point x="155" y="188" type="curve" smooth="yes"/>
      <point x="155" y="215"/>
      <point x="160" y="246"/>
      <point x="167" y="275" type="curve" smooth="yes"/>
      <point x="268" y="693" type="line"/>
      <point x="189" y="693" type="line"/>
      <point x="90" y="276" type="line" smooth="yes"/>
      <point x="82" y="243"/>
      <point x="78" y="211"/>
      <point x="78" y="182" type="curve" smooth="yes"/>
      <point x="78" y="67"/>
      <point x="141" y="-16"/>
    </contour>
  </outline>
</glyph>
<glyph name="V" format="2">
  <advance width="616"/>
  <unicode hex="0056"/>
  <outline>
    <contour>
      <point x="272" y="0" type="curve"/>
      <point x="345" y="0" type="line"/>
      <point x="479" y="181"/>
      <point x="607" y="395"/>
      <point x="768" y="693" type="curve"/>
      <point x="681" y="693" type="line"/>
      <point x="571" y="469"/>
      <point x="449" y="257"/>
      <point x="327" y="88" type="curve"/>
      <point x="297" y="246"/>
      <point x="276" y="430"/>
      <point x="253" y="693" type="curve"/>
      <point x="175" y="693" type="line"/>
      <point x="206" y="366"/>
      <point x="234" y="192"/>
    </contour>
  </outline>
</glyph>
<glyph name="W" format="2">
  <advance width="885"/>
  <unicode hex="0057"/>
  <anchor x="381" y="0" name="bottom"/>
  <anchor x="539" y="674" name="top"/>
  <outline>
    <contour>
      <point x="126" y="0" type="curve"/>
      <point x="206" y="0" type="line"/>
      <point x="310" y="159"/>
      <point x="402" y="313"/>
      <point x="498" y="489" type="curve"/>
      <point x="513" y="302"/>
      <point x="534" y="140"/>
      <point x="558" y="0" type="curve"/>
      <point x="639" y="0" type="line"/>
      <point x="753" y="200"/>
      <point x="858" y="427"/>
      <point x="966" y="693" type="curve"/>
      <point x="881" y="693" type="line"/>
      <point x="797" y="476"/>
      <point x="698" y="244"/>
      <point x="613" y="91" type="curve"/>
      <point x="593" y="216"/>
      <point x="569" y="417"/>
      <point x="557" y="606" type="curve"/>
      <point x="489" y="606" type="line"/>
      <point x="375" y="393"/>
      <point x="297" y="260"/>
      <point x="190" y="90" type="curve"/>
      <point x="182" y="287"/>
      <point x="188" y="495"/>
      <point x="201" y="693" type="curve"/>
      <point x="125" y="693" type="line"/>
      <point x="110" y="456"/>
      <point x="103" y="227"/>
    </contour>
  </outline>
</glyph>
<glyph name="X" format="2">
  <advance width="574"/>
  <unicode hex="0058"/>
  <outline>
    <contour>
      <point x="16" y="0" type="line"/>
      <point x="109" y="0" type="line"/>
      <point x="363" y="304" type="line"/>
      <point x="411" y="197"/>
      <point x="455" y="86"/>
      <point x="483" y="0" type="curve"/>
      <point x="568" y="0" type="line"/>
      <point x="523" y="124"/>
      <point x="469" y="245"/>
      <point x="421" y="362" type="curve"/>
      <point x="516" y="467"/>
      <point x="605" y="573"/>
      <point x="696" y="693" type="curve"/>
      <point x="609" y="693" type="line"/>
      <point x="548" y="609"/>
      <point x="473" y="515"/>
      <point x="390" y="420" type="curve"/>
      <point x="275" y="693" type="line"/>
      <point x="190" y="693" type="line"/>
      <point x="331" y="367" type="line"/>
    </contour>
  </outline>
</glyph>
<glyph name="Y" format="2">
  <advance width="576"/>
  <unicode hex="0059"/>
  <outline>
    <contour>
      <point x="249" y="0" type="line"/>
      <point x="327" y="0" type="line"/>
      <point x="393" y="279" type="line"/>
      <point x="517" y="421"/>
      <point x="635" y="567"/>
      <point x="729" y="693" type="curve"/>
      <point x="637" y="693" type="line"/>
      <point x="569" y="586"/>
      <point x="460" y="454"/>
      <point x="369" y="352" type="curve"/>
      <point x="329" y="456"/>
      <point x="295" y="581"/>
      <point x="268" y="693" type="curve"/>
      <point x="184" y="693" type="line"/>
      <point x="219" y="569"/>
      <point x="264" y="416"/>
      <point x="315" y="279" type="curve"/>
    </contour>
  </outline>
</glyph>
<glyph name="Z" format="2">
  <advance width="567"/>
  <unicode hex="005A"/>
  <anchor x="277" y="0" name="bottom"/>
  <anchor x="305" y="347" name="center"/>
  <anchor x="428" y="674" name="top"/>
  <outline>
    <contour>
      <point x="46" y="0" type="line"/>
      <point x="521" y="0" type="line"/>
      <point x="536" y="67" type="line"/>
      <point x="153" y="67" type="line"/>
      <point x="293" y="253"/>
      <point x="549" y="521"/>
      <point x="665" y="626" type="curve"/>
      <point x="680" y="693" type="line"/>
      <point x="228" y="693" type="line"/>
      <point x="212" y="626" type="line"/>
      <point x="569" y="626" type="line"/>
      <point x="430" y="495"/>
      <point x="175" y="216"/>
      <point x="58" y="56" type="curve"/>
    </contour>
  </outline>
</glyph>
<glyph name="bracketleft" format="2">
  <advance width="323"/>
  <unicode hex="005B"/>
  <outline>
    <contour>
      <point x="60" y="-185" type="line"/>
      <point x="264" y="-185" type="line"/>
      <point x="279" y="-127" type="line"/>
      <point x="143" y="-127" type="line"/>
      <point x="349" y="725" type="line"/>
      <point x="484" y="725" type="line"/>
      <point x="497" y="783" type="line"/>
      <point x="293" y="783" type="line"/>
    </contour>
  </outline>
</glyph>
<glyph name="backslash" format="2">
  <advance width="376"/>
  <unicode hex="005C"/>
  <outline>
    <contour>
      <point x="285" y="-185" type="line"/>
      <point x="354" y="-185" type="line"/>
      <point x="249" y="783" type="line"/>
      <point x="180" y="783" type="line"/>
    </contour>
  </outline>
</glyph>
<glyph name="bracketright" format="2">
  <advance width="324"/>
  <unicode hex="005D"/>
  <outline>
    <contour>
      <point x="-45" y="-185" type="line"/>
      <point x="160" y="-185" type="line"/>
      <point x="393" y="783" type="line"/>
      <point x="188" y="783" type="line"/>
      <point x="174" y="725" type="line"/>
      <point x="310" y="725" type="line"/>
      <point x="104" y="-127" type="line"/>
      <point x="-31" y="-127" type="line"/>
    </contour>
  </outline>
</glyph>
<glyph name="asciicircum" format="2">
  <advance width="574"/>
  <unicode hex="005E"/>
  <outline>
    <contour>
      <point x="519" y="327" type="line"/>
      <point x="577" y="352" type="line"/>
      <point x="471" y="693" type="line"/>
      <point x="414" y="693" type="line"/>
      <point x="150" y="360" type="line"/>
      <point x="202" y="330" type="line"/>
      <point x="428" y="615" type="line"/>
    </contour>
  </outline>
</glyph>
<glyph name="underscore" format="2">
  <advance width="554"/>
  <unicode hex="005F"/>
  <outline>
    <contour>
      <point x="-9" y="-185" type="line"/>
      <point x="491" y="-185" type="line"/>
      <point x="506" y="-123" type="line"/>
      <point x="6" y="-123" type="line"/>
    </contour>
  </outline>
</glyph>
<glyph name="grave" format="2">
  <advance width="336"/>
  <unicode hex="0060"/>
  <outline>
    <contour>
      <point x="375" y="582" type="line"/>
      <point x="413" y="620" type="line"/>
      <point x="269" y="776" type="line"/>
      <point x="211" y="716" type="line"/>
    </contour>
  </outline>
</glyph>
<glyph name="a" format="2">
  <advance width="540"/>
  <unicode hex="0061"/>
  <outline>
    <contour>
      <point x="267" y="-13" type="curve" smooth="yes"/>
      <point x="321" y="-13"/>
      <point x="373" y="8"/>
      <point x="418" y="51" type="curve"/>
      <point x="422" y="31"/>
      <point x="428" y="10"/>
      <point x="436" y="-6" type="curve"/>
      <point x="510" y="5" type="line"/>
      <point x="479" y="75"/>
      <point x="483" y="131"/>
      <point x="501" y="200" type="curve" smooth="yes"/>
      <point x="576" y="507" type="line"/>
      <point x="534" y="524"/>
      <point x="487" y="530"/>
      <point x="447" y="530" type="curve" smooth="yes"/>
      <point x="249" y="530"/>
      <point x="103" y="391"/>
      <point x="103" y="181" type="curve" smooth="yes"/>
      <point x="103" y="49"/>
      <point x="177" y="-13"/>
    </contour>
    <contour>
      <point x="277" y="54" type="curve" smooth="yes"/>
      <point x="221" y="54"/>
      <point x="179" y="91"/>
      <point x="179" y="194" type="curve" smooth="yes"/>
      <point x="179" y="329"/>
      <point x="271" y="463"/>
      <point x="427" y="463" type="curve" smooth="yes"/>
      <point x="447" y="463"/>
      <point x="466" y="460"/>
      <point x="489" y="455" type="curve"/>
      <point x="437" y="248" type="line" smooth="yes"/>
      <point x="429" y="211"/>
      <point x="416" y="161"/>
      <point x="415" y="125" type="curve"/>
      <point x="374" y="79"/>
      <point x="329" y="54"/>
    </contour>
  </outline>
</glyph>
<glyph name="b" format="2">
  <advance width="547"/>
  <unicode hex="0062"/>
  <outline>
    <contour>
      <point x="170" y="-12" type="curve" smooth="yes"/>
      <point x="390" y="-12"/>
      <point x="511" y="162"/>
      <point x="511" y="334" type="curve" smooth="yes"/>
      <point x="511" y="453"/>
      <point x="456" y="530"/>
      <point x="342" y="530" type="curve" smooth="yes"/>
      <point x="299" y="530"/>
      <point x="255" y="517"/>
      <point x="216" y="492" type="curve"/>
      <point x="283" y="776" type="line"/>
      <point x="205" y="763" type="line"/>
      <point x="27" y="18" type="line"/>
      <point x="73" y="-3"/>
      <point x="127" y="-12"/>
    </contour>
    <contour>
      <point x="182" y="55" type="curve" smooth="yes"/>
      <point x="158" y="55"/>
      <point x="136" y="59"/>
      <point x="114" y="65" type="curve"/>
      <point x="196" y="410" type="line"/>
      <point x="239" y="444"/>
      <point x="288" y="463"/>
      <point x="328" y="463" type="curve" smooth="yes"/>
      <point x="391" y="463"/>
      <point x="435" y="421"/>
      <point x="435" y="329" type="curve" smooth="yes"/>
      <point x="435" y="202"/>
      <point x="347" y="55"/>
    </contour>
  </outline>
</glyph>
<glyph name="c" format="2">
  <advance width="468"/>
  <unicode hex="0063"/>
  <anchor x="264" y="0" name="bottom"/>
  <anchor x="388" y="518" name="top"/>
  <outline>
    <contour>
      <point x="291" y="-12" type="curve" smooth="yes"/>
      <point x="359" y="-12"/>
      <point x="417" y="7"/>
      <point x="444" y="24" type="curve"/>
      <point x="437" y="90" type="line"/>
      <point x="418" y="77"/>
      <point x="360" y="55"/>
      <point x="305" y="55" type="curve" smooth="yes"/>
      <point x="217" y="55"/>
      <point x="180" y="108"/>
      <point x="180" y="194" type="curve" smooth="yes"/>
      <point x="180" y="339"/>
      <point x="270" y="463"/>
      <point x="408" y="463" type="curve" smooth="yes"/>
      <point x="437" y="463"/>
      <point x="467" y="458"/>
      <point x="497" y="446" type="curve"/>
      <point x="527" y="512" type="line"/>
      <point x="493" y="524"/>
      <point x="457" y="530"/>
      <point x="419" y="530" type="curve" smooth="yes"/>
      <point x="220" y="530"/>
      <point x="103" y="368"/>
      <point x="103" y="186" type="curve" smooth="yes"/>
      <point x="103" y="66"/>
      <point x="166" y="-12"/>
    </contour>
  </outline>
</glyph>
<glyph name="e" format="2">
  <advance width="503"/>
  <unicode hex="0065"/>
  <anchor x="262" y="0" name="bottom"/>
  <anchor x="393" y="10" name="ogonek"/>
  <anchor x="386" y="518" name="top"/>
  <outline>
    <contour>
      <point x="303" y="-12" type="curve" smooth="yes"/>
      <point x="360" y="-12"/>
      <point x="418" y="3"/>
      <point x="462" y="27" type="curve"/>
      <point x="455" y="93" type="line"/>
      <point x="413" y="67"/>
      <point x="364" y="55"/>
      <point x="318" y="55" type="curve" smooth="yes"/>
      <point x="209" y="55"/>
      <point x="180" y="100"/>
      <point x="177" y="188" type="curve" smooth="yes"/>
      <point x="177" y="193"/>
      <point x="177" y="199"/>
      <point x="177" y="205" type="curve"/>
      <point x="399" y="214"/>
      <point x="550" y="247"/>
      <point x="550" y="396" type="curve" smooth="yes"/>
      <point x="550" y="477"/>
      <point x="495" y="530"/>
      <point x="402" y="530" type="curve" smooth="yes"/>
      <point x="212" y="530"/>
      <point x="103" y="353"/>
      <point x="103" y="181" type="curve" smooth="yes"/>
      <point x="103" y="67"/>
      <point x="154" y="-12"/>
    </contour>
    <contour>
      <point x="186" y="269" type="curve"/>
      <point x="213" y="375"/>
      <point x="292" y="465"/>
      <point x="394" y="465" type="curve" smooth="yes"/>
      <point x="443" y="465"/>
      <point x="476" y="440"/>
      <point x="476" y="390" type="curve" smooth="yes"/>
      <point x="476" y="318"/>
      <point x="407" y="274"/>
    </contour>
  </outline>
</glyph>
<glyph name="f" format="2">
  <advance width="374"/>
  <unicode hex="0066"/>
  <outline>
    <contour>
      <point x="54" y="-189" type="line"/>
      <point x="123" y="-114"/>
      <point x="153" y="-28"/>
      <point x="186" y="107" type="curve" smooth="yes"/>
      <point x="269" y="455" type="line"/>
      <point x="444" y="455" type="line"/>
      <point x="458" y="518" type="line"/>
      <point x="285" y="518" type="line"/>
      <point x="298" y="569" type="line" smooth="yes"/>
      <point x="326" y="677"/>
      <point x="374" y="711"/>
      <point x="443" y="711" type="curve" smooth="yes"/>
      <point x="475" y="711"/>
      <point x="498" y="705"/>
      <point x="526" y="696" type="curve"/>
      <point x="559" y="755" type="line"/>
      <point x="532" y="766"/>
      <point x="499" y="776"/>
      <point x="452" y="776" type="curve" smooth="yes"/>
      <point x="351" y="776"/>
      <point x="261" y="728"/>
      <point x="223" y="571" type="curve" smooth="yes"/>
      <point x="102" y="65" type="line" smooth="yes"/>
      <point x="80" y="-26"/>
      <point x="56" y="-92"/>
      <point x="-12" y="-179" type="curve"/>
    </contour>
  </outline>
</glyph>
<glyph name="h" format="2">
  <advance width="557"/>
  <unicode hex="0068"/>
  <outline>
    <contour>
      <point x="87" y="0" type="line"/>
      <point x="161" y="0" type="line"/>
      <point x="265" y="443" type="line"/>
      <point x="298" y="454"/>
      <point x="337" y="463"/>
      <point x="373" y="463" type="curve" smooth="yes"/>
      <point x="434" y="463"/>
      <point x="482" y="436"/>
      <point x="482" y="361" type="curve" smooth="yes"/>
      <point x="482" y="322"/>
      <point x="471" y="277"/>
      <point x="461" y="235" type="curve" smooth="yes"/>
      <point x="405" y="0" type="line"/>
      <point x="480" y="0" type="line"/>
      <point x="542" y="260" type="line" smooth="yes"/>
      <point x="551" y="296"/>
      <point x="557" y="332"/>
      <point x="557" y="366" type="curve" smooth="yes"/>
      <point x="557" y="476"/>
      <point x="488" y="530"/>
      <point x="395" y="530" type="curve" smooth="yes"/>
      <point x="359" y="530"/>
      <point x="320" y="521"/>
      <point x="281" y="506" type="curve"/>
      <point x="346" y="776" type="line"/>
      <point x="268" y="763" type="line"/>
    </contour>
  </outline>
</glyph>
<glyph name="i" format="2">
  <advance width="250"/>
  <unicode hex="0069"/>
  <outline>
    <contour>
      <point x="87" y="0" type="line"/>
      <point x="161" y="0" type="line"/>
      <point x="286" y="518" type="line"/>
      <point x="212" y="518" type="line"/>
    </contour>
    <contour>
      <point x="281" y="622" type="curve" smooth="yes"/>
      <point x="306" y="622"/>
      <point x="335" y="643"/>
      <point x="335" y="678" type="curve" smooth="yes"/>
      <point x="335" y="707"/>
      <point x="316" y="726"/>
      <point x="289" y="726" type="curve" smooth="yes"/>
      <point x="263" y="726"/>
      <point x="236" y="704"/>
      <point x="236" y="668" type="curve" smooth="yes"/>
      <point x="236" y="640"/>
      <point x="253" y="622"/>
    </contour>
  </outline>
</glyph>
<glyph name="j" format="2">
  <advance width="251"/>
  <unicode hex="006A"/>
  <outline>
    <contour>
      <point x="-20" y="-188" type="curve" smooth="yes"/>
      <point x="99" y="-188"/>
      <point x="145" y="-116"/>
      <point x="179" y="27" type="curve" smooth="yes"/>
      <point x="296" y="518" type="line"/>
      <point x="222" y="518" type="line"/>
      <point x="103" y="17" type="line" smooth="yes"/>
      <point x="84" y="-65"/>
      <point x="54" y="-123"/>
      <point x="-14" y="-123" type="curve" smooth="yes"/>
      <point x="-39" y="-123"/>
      <point x="-56" y="-118"/>
      <point x="-77" y="-107" type="curve"/>
      <point x="-95" y="-170" type="line"/>
      <point x="-78" y="-179"/>
      <point x="-53" y="-188"/>
    </contour>
    <contour>
      <point x="293" y="622" type="curve" smooth="yes"/>
      <point x="318" y="622"/>
      <point x="347" y="643"/>
      <point x="347" y="678" type="curve" smooth="yes"/>
      <point x="347" y="707"/>
      <point x="328" y="726"/>
      <point x="301" y="726" type="curve" smooth="yes"/>
      <point x="275" y="726"/>
      <point x="248" y="704"/>
      <point x="248" y="668" type="curve" smooth="yes"/>
      <point x="248" y="640"/>
      <point x="265" y="622"/>
    </contour>
  </outline>
</glyph>
<glyph name="k" format="2">
  <advance width="516"/>
  <unicode hex="006B"/>
  <outline>
    <contour>
      <point x="87" y="0" type="line"/>
      <point x="161" y="0" type="line"/>
      <point x="226" y="266" type="line"/>
      <point x="304" y="211"/>
      <point x="379" y="118"/>
      <point x="433" y="0" type="curve"/>
      <point x="514" y="0" type="line"/>
      <point x="481" y="90"/>
      <point x="401" y="218"/>
      <point x="313" y="286" type="curve"/>
      <point x="381" y="330"/>
      <point x="519" y="455"/>
      <point x="570" y="518" type="curve"/>
      <point x="481" y="518" type="line"/>
      <point x="438" y="469"/>
      <point x="327" y="366"/>
      <point x="234" y="302" type="curve"/>
      <point x="348" y="776" type="line"/>
      <point x="270" y="763" type="line"/>
    </contour>
  </outline>
</glyph>
<glyph name="l" format="2">
  <advance width="282"/>
  <unicode hex="006C"/>
  <anchor x="144" y="0" name="bottom"/>
  <anchor x="240" y="388" name="center"/>
  <anchor x="294" y="776" name="top"/>
  <anchor x="332" y="776" name="topright"/>
  <outline>
    <contour>
      <point x="250" y="-9" type="curve"/>
      <point x="266" y="55" type="line"/>
      <point x="156" y="78"/>
      <point x="183" y="151"/>
      <point x="206" y="249" type="curve" smooth="yes"/>
      <point x="332" y="776" type="line"/>
      <point x="255" y="763" type="line"/>
      <point x="127" y="230" type="line" smooth="yes"/>
      <point x="97" y="107"/>
      <point x="101" y="7"/>
    </contour>
  </outline>
</glyph>
<glyph name="m" format="2">
  <advance width="834"/>
  <unicode hex="006D"/>
  <outline>
    <contour>
      <point x="87" y="0" type="line"/>
      <point x="161" y="0" type="line"/>
      <point x="269" y="448" type="line"/>
      <point x="297" y="455"/>
      <point x="332" y="461"/>
      <point x="361" y="461" type="curve" smooth="yes"/>
      <point x="419" y="461"/>
      <point x="461" y="439"/>
      <point x="461" y="360" type="curve" smooth="yes"/>
      <point x="461" y="321"/>
      <point x="450" y="277"/>
      <point x="440" y="235" type="curve" smooth="yes"/>
      <point x="384" y="0" type="line"/>
      <point x="459" y="0" type="line"/>
      <point x="521" y="260" type="line" smooth="yes"/>
      <point x="530" y="296"/>
      <point x="536" y="332"/>
      <point x="536" y="366" type="curve" smooth="yes"/>
      <point x="536" y="385"/>
      <point x="534" y="402"/>
      <point x="530" y="418" type="curve"/>
      <point x="588" y="455"/>
      <point x="630" y="461"/>
      <point x="658" y="461" type="curve" smooth="yes"/>
      <point x="716" y="461"/>
      <point x="759" y="439"/>
      <point x="759" y="360" type="curve" smooth="yes"/>
      <point x="759" y="321"/>
      <point x="747" y="277"/>
      <point x="738" y="235" type="curve" smooth="yes"/>
      <point x="682" y="0" type="line"/>
      <point x="756" y="0" type="line"/>
      <point x="819" y="260" type="line" smooth="yes"/>
      <point x="828" y="296"/>
      <point x="833" y="332"/>
      <point x="833" y="366" type="curve" smooth="yes"/>
      <point x="833" y="490"/>
      <point x="763" y="528"/>
      <point x="669" y="528" type="curve" smooth="yes"/>
      <point x="618" y="528"/>
      <point x="569" y="514"/>
      <point x="504" y="476" type="curve"/>
      <point x="474" y="515"/>
      <point x="426" y="528"/>
      <point x="370" y="528" type="curve" smooth="yes"/>
      <point x="311" y="528"/>
      <point x="246" y="512"/>
      <point x="206" y="499" type="curve"/>
    </contour>
  </outline>
</glyph>
<glyph name="n" format="2">
  <advance width="558"/>
  <unicode hex="006E"/>
  <outline>
    <contour>
      <point x="87" y="0" type="line"/>
      <point x="161" y="0" type="line"/>
      <point x="269" y="448" type="line"/>
      <point x="301" y="455"/>
      <point x="336" y="461"/>
      <point x="369" y="461" type="curve" smooth="yes"/>
      <point x="508" y="461"/>
      <point x="492" y="364"/>
      <point x="462" y="235" type="curve" smooth="yes"/>
      <point x="406" y="0" type="line"/>
      <point x="481" y="0" type="line"/>
      <point x="543" y="260" type="line" smooth="yes"/>
      <point x="581" y="413"/>
      <point x="552" y="528"/>
      <point x="381" y="528" type="curve" smooth="yes"/>
      <point x="318" y="528"/>
      <point x="257" y="514"/>
      <point x="206" y="499" type="curve"/>
    </contour>
  </outline>
</glyph>
<glyph name="o" format="2">
  <advance width="541"/>
  <unicode hex="006F"/>
  <outline>
    <contour>
      <point x="281" y="-12" type="curve" smooth="yes"/>
      <point x="419" y="-12"/>
      <point x="568" y="111"/>
      <point x="568" y="351" type="curve" smooth="yes"/>
      <point x="568" y="466"/>
      <point x="489" y="529"/>
      <point x="390" y="529" type="curve" smooth="yes"/>
      <point x="254" y="529"/>
      <point x="103" y="406"/>
      <point x="103" y="167" type="curve" smooth="yes"/>
      <point x="103" y="51"/>
      <point x="183" y="-12"/>
    </contour>
    <contour>
      <point x="286" y="54" type="curve" smooth="yes"/>
      <point x="226" y="54"/>
      <point x="179" y="95"/>
      <point x="179" y="172" type="curve" smooth="yes"/>
      <point x="179" y="363"/>
      <point x="291" y="463"/>
      <point x="385" y="463" type="curve" smooth="yes"/>
      <point x="446" y="463"/>
      <point x="493" y="422"/>
      <point x="493" y="345" type="curve" smooth="yes"/>
      <point x="493" y="154"/>
      <point x="380" y="54"/>
    </contour>
  </outline>
</glyph>
<glyph name="p" format="2">
  <advance width="536"/>
  <unicode hex="0070"/>
  <outline>
    <contour>
      <point x="42" y="-185" type="line"/>
      <point x="117" y="-185" type="line"/>
      <point x="161" y="0" type="line"/>
      <point x="183" y="-6"/>
      <point x="207" y="-9"/>
      <point x="233" y="-9" type="curve" smooth="yes"/>
      <point x="441" y="-9"/>
      <point x="562" y="156"/>
      <point x="562" y="337" type="curve" smooth="yes"/>
      <point x="562" y="462"/>
      <point x="502" y="530"/>
      <point x="377" y="530" type="curve" smooth="yes"/>
      <point x="320" y="530"/>
      <point x="261" y="517"/>
      <point x="206" y="497" type="curve"/>
    </contour>
    <contour>
      <point x="239" y="58" type="curve" smooth="yes"/>
      <point x="219" y="58"/>
      <point x="198" y="61"/>
      <point x="178" y="66" type="curve"/>
      <point x="269" y="452" type="line"/>
      <point x="301" y="461"/>
      <point x="332" y="466"/>
      <point x="361" y="466" type="curve" smooth="yes"/>
      <point x="446" y="466"/>
      <point x="487" y="421"/>
      <point x="487" y="327" type="curve" smooth="yes"/>
      <point x="487" y="194"/>
      <point x="398" y="58"/>
    </contour>
  </outline>
</glyph>
<glyph name="q" format="2">
  <advance width="546"/>
  <unicode hex="0071"/>
  <outline>
    <contour>
      <point x="280" y="-185" type="line"/>
      <point x="354" y="-185" type="line"/>
      <point x="520" y="503" type="line"/>
      <point x="488" y="522"/>
      <point x="438" y="530"/>
      <point x="409" y="530" type="curve" smooth="yes"/>
      <point x="150" y="530"/>
      <point x="40" y="353"/>
      <point x="40" y="179" type="curve" smooth="yes"/>
      <point x="40" y="77"/>
      <point x="90" y="-12"/>
      <point x="207" y="-12" type="curve" smooth="yes"/>
      <point x="253" y="-12"/>
      <point x="297" y="-1"/>
      <point x="328" y="15" type="curve"/>
    </contour>
    <contour>
      <point x="225" y="53" type="curve" smooth="yes"/>
      <point x="133" y="53"/>
      <point x="116" y="130"/>
      <point x="116" y="188" type="curve" smooth="yes"/>
      <point x="116" y="347"/>
      <point x="224" y="465"/>
      <point x="389" y="465" type="curve" smooth="yes"/>
      <point x="402" y="465"/>
      <point x="420" y="460"/>
      <point x="434" y="457" type="curve"/>
      <point x="347" y="96" type="line"/>
      <point x="314" y="69"/>
      <point x="268" y="53"/>
    </contour>
  </outline>
</glyph>
<glyph name="r" format="2">
  <advance width="383"/>
  <unicode hex="0072"/>
  <outline>
    <contour>
      <point x="87" y="0" type="line"/>
      <point x="161" y="0" type="line"/>
      <point x="269" y="447" type="line"/>
      <point x="301" y="457"/>
      <point x="334" y="463"/>
      <point x="368" y="463" type="curve" smooth="yes"/>
      <point x="397" y="463"/>
      <point x="423" y="458"/>
      <point x="450" y="450" type="curve"/>
      <point x="470" y="516" type="line"/>
      <point x="444" y="526"/>
      <point x="413" y="530"/>
      <point x="383" y="530" type="curve" smooth="yes"/>
      <point x="321" y="530"/>
      <point x="256" y="514"/>
      <point x="205" y="494" type="curve"/>
    </contour>
  </outline>
</glyph>
<glyph name="s" format="2">
  <advance width="419"/>
  <unicode hex="0073"/>
  <outline>
    <contour>
      <point x="207" y="-12" type="curve" smooth="yes"/>
      <point x="315" y="-12"/>
      <point x="406" y="41"/>
      <point x="406" y="155" type="curve" smooth="yes"/>
      <point x="406" y="231"/>
      <point x="353" y="260"/>
      <point x="295" y="289" type="curve" smooth="yes"/>
      <point x="252" y="311"/>
      <point x="213" y="330"/>
      <point x="213" y="376" type="curve" smooth="yes"/>
      <point x="213" y="440"/>
      <point x="271" y="464"/>
      <point x="332" y="464" type="curve" smooth="yes"/>
      <point x="370" y="464"/>
      <point x="409" y="455"/>
      <point x="437" y="442" type="curve"/>
      <point x="466" y="506" type="line"/>
      <point x="429" y="522"/>
      <point x="384" y="530"/>
      <point x="338" y="530" type="curve" smooth="yes"/>
      <point x="233" y="530"/>
      <point x="140" y="482"/>
      <point x="140" y="368" type="curve" smooth="yes"/>
      <point x="140" y="281"/>
      <point x="205" y="253"/>
      <point x="260" y="225" type="curve" smooth="yes"/>
      <point x="302" y="204"/>
      <point x="334" y="185"/>
      <point x="334" y="142" type="curve" smooth="yes"/>
      <point x="334" y="82"/>
      <point x="281" y="55"/>
      <point x="213" y="55" type="curve" smooth="yes"/>
      <point x="165" y="55"/>
      <point x="130" y="65"/>
      <point x="84" y="89" type="curve"/>
      <point x="53" y="24" type="line"/>
      <point x="94" y="1"/>
      <point x="149" y="-12"/>
    </contour>
  </outline>
</glyph>
<glyph name="t" format="2">
  <advance width="391"/>
  <unicode hex="0074"/>
  <anchor x="169" y="0" name="bottom"/>
  <anchor x="133" y="259" name="center"/>
  <anchor x="195" y="518" name="top"/>
  <anchor x="432" y="776" name="topright"/>
  <outline>
    <contour>
      <point x="187" y="-12" type="curve" smooth="yes"/>
      <point x="233" y="-12"/>
      <point x="280" y="0"/>
      <point x="316" y="15" type="curve"/>
      <point x="310" y="80" type="line"/>
      <point x="275" y="65"/>
      <point x="247" y="55"/>
      <point x="206" y="55" type="curve" smooth="yes"/>
      <point x="119" y="55"/>
      <point x="123" y="132"/>
      <point x="141" y="209" type="curve" smooth="yes"/>
      <point x="200" y="455" type="line"/>
      <point x="381" y="455" type="line"/>
      <point x="396" y="518" type="line"/>
      <point x="216" y="518" type="line"/>
      <point x="255" y="681" type="line"/>
      <point x="177" y="668" type="line"/>
      <point x="68" y="212" type="line" smooth="yes"/>
      <point x="39" y="90"/>
      <point x="48" y="-12"/>
    </contour>
  </outline>
</glyph>
<glyph name="u" format="2">
  <advance width="539"/>
  <unicode hex="0075"/>
  <anchor x="250" y="0" name="bottom"/>
  <anchor x="425" y="10" name="ogonek"/>
  <anchor x="374" y="518" name="top"/>
  <anchor x="581" y="518" name="topright"/>
  <outline>
    <contour>
      <point x="256" y="-12" type="curve" smooth="yes"/>
      <point x="318" y="-12"/>
      <point x="370" y="8"/>
      <point x="415" y="52" type="curve"/>
      <point x="419" y="31"/>
      <point x="425" y="10"/>
      <point x="433" y="-6" type="curve"/>
      <point x="507" y="5" type="line"/>
      <point x="476" y="75"/>
      <point x="480" y="131"/>
      <point x="497" y="200" type="curve" smooth="yes"/>
      <point x="575" y="518" type="line"/>
      <point x="501" y="518" type="line"/>
      <point x="434" y="248" type="line" smooth="yes"/>
      <point x="425" y="211"/>
      <point x="412" y="161"/>
      <point x="412" y="125" type="curve"/>
      <point x="371" y="79"/>
      <point x="327" y="55"/>
      <point x="267" y="55" type="curve" smooth="yes"/>
      <point x="143" y="55"/>
      <point x="174" y="172"/>
      <point x="201" y="284" type="curve" smooth="yes"/>
      <point x="258" y="518" type="line"/>
      <point x="183" y="518" type="line"/>
      <point x="120" y="258" type="line" smooth="yes"/>
      <point x="86" y="119"/>
      <point x="91" y="-12"/>
    </contour>
  </outline>
</glyph>
<glyph name="v" format="2">
  <advance width="475"/>
  <unicode hex="0076"/>
  <outline>
    <contour>
      <point x="202" y="0" type="curve"/>
      <point x="273" y="0" type="line"/>
      <point x="388" y="137"/>
      <point x="516" y="347"/>
      <point x="570" y="518" type="curve"/>
      <point x="496" y="518" type="line"/>
      <point x="453" y="382"/>
      <point x="337" y="183"/>
      <point x="259" y="79" type="curve"/>
      <point x="230" y="195"/>
      <point x="211" y="379"/>
      <point x="209" y="518" type="curve"/>
      <point x="134" y="518" type="line"/>
      <point x="138" y="330"/>
      <point x="169" y="145"/>
    </contour>
  </outline>
</glyph>
<glyph name="w" format="2">
  <advance width="779"/>
  <unicode hex="0077"/>
  <anchor x="378" y="0" name="bottom"/>
  <anchor x="498" y="518" name="top"/>
  <outline>
    <contour>
      <point x="184" y="0" type="curve"/>
      <point x="257" y="0" type="line"/>
      <point x="333" y="94"/>
      <point x="425" y="258"/>
      <point x="478" y="382" type="curve"/>
      <point x="481" y="254"/>
      <point x="494" y="115"/>
      <point x="508" y="0" type="curve"/>
      <point x="581" y="0" type="line"/>
      <point x="671" y="102"/>
      <point x="814" y="327"/>
      <point x="874" y="518" type="curve"/>
      <point x="799" y="518" type="line"/>
      <point x="760" y="385"/>
      <point x="634" y="159"/>
      <point x="570" y="80" type="curve"/>
      <point x="552" y="210"/>
      <point x="541" y="391"/>
      <point x="541" y="518" type="curve"/>
      <point x="467" y="518" type="line"/>
      <point x="419" y="377"/>
      <point x="327" y="199"/>
      <point x="243" y="80" type="curve"/>
      <point x="224" y="182"/>
      <point x="211" y="383"/>
      <point x="208" y="518" type="curve"/>
      <point x="135" y="518" type="line"/>
      <point x="138" y="324"/>
      <point x="157" y="142"/>
    </contour>
  </outline>
</glyph>
<glyph name="x" format="2">
  <advance width="473"/>
  <unicode hex="0078"/>
  <outline>
    <contour>
      <point x="-45" y="0" type="line"/>
      <point x="43" y="0" type="line"/>
      <point x="233" y="217" type="line"/>
      <point x="265" y="154"/>
      <point x="307" y="61"/>
      <point x="326" y="0" type="curve"/>
      <point x="403" y="0" type="line"/>
      <point x="375" y="91"/>
      <point x="322" y="191"/>
      <point x="285" y="262" type="curve"/>
      <point x="353" y="341"/>
      <point x="429" y="432"/>
      <point x="487" y="518" type="curve"/>
      <point x="406" y="518" type="line"/>
      <point x="372" y="462"/>
      <point x="310" y="386"/>
      <point x="251" y="314" type="curve"/>
      <point x="153" y="518" type="line"/>
      <point x="68" y="518" type="line"/>
      <point x="197" y="271" type="line"/>
    </contour>
  </outline>
</glyph>
<glyph name="y" format="2">
  <advance width="471"/>
  <unicode hex="0079"/>
  <anchor x="174" y="0" name="bottom"/>
  <anchor x="328" y="518" name="top"/>
  <outline>
    <contour>
      <point x="36" y="-188" type="curve" smooth="yes"/>
      <point x="145" y="-188"/>
      <point x="236" y="-115"/>
      <point x="335" y="33" type="curve" smooth="yes"/>
      <point x="464" y="224"/>
      <point x="535" y="446"/>
      <point x="557" y="518" type="curve"/>
      <point x="483" y="518" type="line"/>
      <point x="460" y="433"/>
      <point x="389" y="235"/>
      <point x="275" y="56" type="curve"/>
      <point x="229" y="212"/>
      <point x="211" y="394"/>
      <point x="206" y="518" type="curve"/>
      <point x="129" y="518" type="line"/>
      <point x="134" y="345"/>
      <point x="167" y="158"/>
      <point x="221" y="-13" type="curve"/>
      <point x="169" y="-86"/>
      <point x="104" y="-123"/>
      <point x="38" y="-123" type="curve" smooth="yes"/>
      <point x="15" y="-123"/>
      <point x="-6" y="-118"/>
      <point x="-25" y="-108" type="curve"/>
      <point x="-50" y="-169" type="line"/>
      <point x="-20" y="-185"/>
      <point x="9" y="-188"/>
    </contour>
  </outline>
</glyph>
<glyph name="z" format="2">
  <advance width="449"/>
  <unicode hex="007A"/>
  <anchor x="220" y="0" name="bottom"/>
  <anchor x="282" y="259" name="center"/>
  <anchor x="344" y="518" name="top"/>
  <outline>
    <contour>
      <point x="47" y="0" type="line"/>
      <point x="423" y="0" type="line"/>
      <point x="437" y="64" type="line"/>
      <point x="148" y="64" type="line"/>
      <point x="215" y="161"/>
      <point x="446" y="388"/>
      <point x="529" y="462" type="curve"/>
      <point x="542" y="518" type="line"/>
      <point x="183" y="518" type="line"/>
      <point x="169" y="455" type="line"/>
      <point x="431" y="455" type="line"/>
      <point x="337" y="371"/>
      <point x="141" y="177"/>
      <point x="59" y="51" type="curve"/>
    </contour>
  </outline>
</glyph>
<glyph name="braceleft" format="2">
  <advance width="323"/>
  <unicode hex="007B"/>
  <outline>
    <contour>
      <point x="192" y="-194" type="curve"/>
      <point x="208" y="-136" type="line"/>
      <point x="116" y="-136"/>
      <point x="112" y="-92"/>
      <point x="128" y="-32" type="curve" smooth="yes"/>
      <point x="167" y="130" type="line" smooth="yes"/>
      <point x="181" y="190"/>
      <point x="190" y="253"/>
      <point x="135" y="285" type="curve"/>
      <point x="199" y="312"/>
      <point x="223" y="372"/>
      <point x="252" y="492" type="curve" smooth="yes"/>
      <point x="282" y="611" type="line" smooth="yes"/>
      <point x="303" y="701"/>
      <point x="345" y="716"/>
      <point x="413" y="716" type="curve"/>
      <point x="428" y="774" type="line"/>
      <point x="264" y="774"/>
      <point x="241" y="714"/>
      <point x="204" y="566" type="curve" smooth="yes"/>
      <point x="177" y="456" type="line" smooth="yes"/>
      <point x="163" y="401"/>
      <point x="138" y="318"/>
      <point x="61" y="318" type="curve"/>
      <point x="47" y="261" type="line"/>
      <point x="119" y="256"/>
      <point x="117" y="194"/>
      <point x="101" y="131" type="curve" smooth="yes"/>
      <point x="64" y="-20" type="line" smooth="yes"/>
      <point x="37" y="-128"/>
      <point x="62" y="-194"/>
    </contour>
  </outline>
</glyph>
<glyph name="bar" format="2">
  <advance width="283"/>
  <unicode hex="007C"/>
  <outline>
    <contour>
      <point x="60" y="-185" type="line"/>
      <point x="129" y="-185" type="line"/>
      <point x="362" y="783" type="line"/>
      <point x="293" y="783" type="line"/>
    </contour>
  </outline>
</glyph>
<glyph name="braceright" format="2">
  <advance width="325"/>
  <unicode hex="007D"/>
  <outline>
    <contour>
      <point x="-90" y="-194" type="line"/>
      <point x="74" y="-194"/>
      <point x="97" y="-134"/>
      <point x="134" y="14" type="curve" smooth="yes"/>
      <point x="161" y="124" type="line" smooth="yes"/>
      <point x="175" y="180"/>
      <point x="200" y="262"/>
      <point x="278" y="262" type="curve"/>
      <point x="292" y="319" type="line"/>
      <point x="219" y="324"/>
      <point x="221" y="386"/>
      <point x="237" y="449" type="curve" smooth="yes"/>
      <point x="274" y="600" type="line" smooth="yes"/>
      <point x="302" y="709"/>
      <point x="277" y="774"/>
      <point x="146" y="774" type="curve"/>
      <point x="130" y="716" type="line"/>
      <point x="222" y="716"/>
      <point x="226" y="673"/>
      <point x="210" y="612" type="curve" smooth="yes"/>
      <point x="171" y="451" type="line" smooth="yes"/>
      <point x="157" y="390"/>
      <point x="148" y="327"/>
      <point x="203" y="295" type="curve"/>
      <point x="139" y="268"/>
      <point x="115" y="208"/>
      <point x="86" y="89" type="curve" smooth="yes"/>
      <point x="57" y="-31" type="line" smooth="yes"/>
      <point x="35" y="-120"/>
      <point x="-6" y="-136"/>
      <point x="-75" y="-136" type="curve"/>
    </contour>
  </outline>
</glyph>
<glyph name="asciitilde" format="2">
  <advance width="564"/>
  <unicode hex="007E"/>
  <outline>
    <contour>
      <point x="365" y="208" type="curve" smooth="yes"/>
      <point x="457" y="208"/>
      <point x="505" y="291"/>
      <point x="522" y="340" type="curve"/>
      <point x="469" y="357" type="line"/>
      <point x="458" y="337"/>
      <point x="430" y="276"/>
      <point x="379" y="276" type="curve" smooth="yes"/>
      <point x="307" y="276"/>
      <point x="282" y="368"/>
      <point x="196" y="368" type="curve" smooth="yes"/>
      <point x="106" y="368"/>
      <point x="60" y="286"/>
      <point x="40" y="235" type="curve"/>
      <point x="94" y="218" type="line"/>
      <point x="104" y="239"/>
      <point x="133" y="299"/>
      <point x="184" y="299" type="curve" smooth="yes"/>
      <point x="253" y="299"/>
      <point x="279" y="208"/>
    </contour>
  </outline>
</glyph>
<glyph name="exclamdown" format="2">
  <advance width="279"/>
  <unicode hex="00A1"/>
  <outline>
    <contour>
      <point x="90" y="-184" type="line"/>
      <point x="170" y="-184" type="line"/>
      <point x="216" y="8" type="line" smooth="yes"/>
      <point x="242" y="120"/>
      <point x="256" y="206"/>
      <point x="266" y="295" type="curve"/>
      <point x="221" y="295" type="line"/>
      <point x="194" y="224"/>
      <point x="149" y="60"/>
      <point x="136" y="8" type="curve" smooth="yes"/>
    </contour>
    <contour>
      <point x="276" y="404" type="curve" smooth="yes"/>
      <point x="314" y="404"/>
      <point x="338" y="437"/>
      <point x="338" y="469" type="curve" smooth="yes"/>
      <point x="338" y="498"/>
      <point x="321" y="521"/>
      <point x="285" y="521" type="curve" smooth="yes"/>
      <point x="247" y="521"/>
      <point x="223" y="488"/>
      <point x="223" y="455" type="curve" smooth="yes"/>
      <point x="223" y="427"/>
      <point x="240" y="404"/>
    </contour>
  </outline>
</glyph>
<glyph name="cent" format="2">
  <advance width="564"/>
  <unicode hex="00A2"/>
  <outline>
    <contour>
      <point x="189" y="-109" type="line"/>
      <point x="257" y="-109" type="line"/>
      <point x="291" y="31" type="line"/>
      <point x="348" y="31"/>
      <point x="401" y="49"/>
      <point x="423" y="61" type="curve"/>
      <point x="418" y="126" type="line"/>
      <point x="382" y="107"/>
      <point x="338" y="95"/>
      <point x="297" y="95" type="curve" smooth="yes"/>
      <point x="225" y="95"/>
      <point x="162" y="131"/>
      <point x="162" y="222" type="curve" smooth="yes"/>
      <point x="162" y="374"/>
      <point x="263" y="488"/>
      <point x="390" y="488" type="curve" smooth="yes"/>
      <point x="424" y="488"/>
      <point x="459" y="481"/>
      <point x="494" y="464" type="curve"/>
      <point x="523" y="527" type="line"/>
      <point x="491" y="542"/>
      <point x="449" y="551"/>
      <point x="416" y="552" type="curve"/>
      <point x="450" y="693" type="line"/>
      <point x="382" y="693" type="line"/>
      <point x="347" y="550" type="line"/>
      <point x="182" y="520"/>
      <point x="86" y="374"/>
      <point x="86" y="222" type="curve" smooth="yes"/>
      <point x="86" y="132"/>
      <point x="124" y="58"/>
      <point x="224" y="35" type="curve"/>
    </contour>
  </outline>
</glyph>
<glyph name="sterling" format="2">
  <advance width="574"/>
  <unicode hex="00A3"/>
  <outline>
    <contour>
      <point x="131" y="0" type="curve"/>
      <point x="512" y="0" type="line"/>
      <point x="528" y="65" type="line"/>
      <point x="232" y="65" type="line"/>
      <point x="265" y="145"/>
      <point x="292" y="237"/>
      <point x="307" y="305" type="curve"/>
      <point x="499" y="305" type="line"/>
      <point x="515" y="367" type="line"/>
      <point x="321" y="367" type="line"/>
      <point x="343" y="457" type="line" smooth="yes"/>
      <point x="376" y="599"/>
      <point x="433" y="638"/>
      <point x="513" y="638" type="curve" smooth="yes"/>
      <point x="554" y="638"/>
      <point x="587" y="630"/>
      <point x="617" y="612" type="curve"/>
      <point x="652" y="673" type="line"/>
      <point x="617" y="693"/>
      <point x="571" y="706"/>
      <point x="524" y="706" type="curve" smooth="yes"/>
      <point x="403" y="706"/>
      <point x="314" y="648"/>
      <point x="268" y="460" type="curve" smooth="yes"/>
      <point x="246" y="367" type="line"/>
      <point x="151" y="367" type="line"/>
      <point x="136" y="305" type="line"/>
      <point x="231" y="305" type="line"/>
      <point x="208" y="202"/>
      <point x="168" y="93"/>
    </contour>
  </outline>
</glyph>
<glyph name="currency" format="2">
  <advance width="564"/>
  <unicode hex="00A4"/>
  <outline>
    <contour>
      <point x="121" y="113" type="line"/>
      <point x="197" y="190" type="line"/>
      <point x="228" y="169"/>
      <point x="265" y="157"/>
      <point x="305" y="157" type="curve" smooth="yes"/>
      <point x="345" y="157"/>
      <point x="382" y="169"/>
      <point x="413" y="190" type="curve"/>
      <point x="489" y="113" type="line"/>
      <point x="535" y="160" type="line"/>
      <point x="461" y="235" type="line"/>
      <point x="482" y="265"/>
      <point x="495" y="304"/>
      <point x="495" y="347" type="curve" smooth="yes"/>
      <point x="495" y="390"/>
      <point x="482" y="429"/>
      <point x="461" y="459" type="curve"/>
      <point x="535" y="534" type="line"/>
      <point x="489" y="581" type="line"/>
      <point x="413" y="504" type="line"/>
      <point x="382" y="525"/>
      <point x="345" y="537"/>
      <point x="305" y="537" type="curve" smooth="yes"/>
      <point x="265" y="537"/>
      <point x="228" y="525"/>
      <point x="197" y="504" type="curve"/>
      <point x="122" y="581" type="line"/>
      <point x="75" y="534" type="line"/>
      <point x="149" y="459" type="line"/>
      <point x="128" y="429"/>
      <point x="116" y="390"/>
      <point x="116" y="347" type="curve" smooth="yes"/>
      <point x="116" y="304"/>
      <point x="128" y="265"/>
      <point x="149" y="235" type="curve"/>
      <point x="75" y="160" type="line"/>
    </contour>
    <contour>
      <point x="305" y="217" type="curve" smooth="yes"/>
      <point x="236" y="217"/>
      <point x="182" y="269"/>
      <point x="182" y="347" type="curve" smooth="yes"/>
      <point x="182" y="425"/>
      <point x="236" y="477"/>
      <point x="305" y="477" type="curve" smooth="yes"/>
      <point x="374" y="477"/>
      <point x="429" y="425"/>
      <point x="429" y="347" type="curve" smooth="yes"/>
      <point x="429" y="269"/>
      <point x="374" y="217"/>
    </contour>
  </outline>
</glyph>
<glyph name="yen" format="2">
  <advance width="574"/>
  <unicode hex="00A5"/>
  <outline>
    <contour>
      <point x="242" y="0" type="line"/>
      <point x="318" y="0" type="line"/>
      <point x="346" y="115" type="line"/>
      <point x="511" y="115" type="line"/>
      <point x="525" y="172" type="line"/>
      <point x="360" y="172" type="line"/>
      <point x="386" y="286" type="line"/>
      <point x="552" y="286" type="line"/>
      <point x="566" y="343" type="line"/>
      <point x="416" y="343" type="line"/>
      <point x="532" y="466"/>
      <point x="615" y="578"/>
      <point x="698" y="693" type="curve"/>
      <point x="622" y="693" type="line"/>
      <point x="545" y="588"/>
      <point x="462" y="482"/>
      <point x="370" y="379" type="curve"/>
      <point x="326" y="483"/>
      <point x="295" y="582"/>
      <point x="272" y="693" type="curve"/>
      <point x="193" y="693" type="line"/>
      <point x="221" y="581"/>
      <point x="260" y="465"/>
      <point x="309" y="343" type="curve"/>
      <point x="161" y="343" type="line"/>
      <point x="147" y="286" type="line"/>
      <point x="311" y="286" type="line"/>
      <point x="284" y="172" type="line"/>
      <point x="120" y="172" type="line"/>
      <point x="106" y="115" type="line"/>
      <point x="270" y="115" type="line"/>
    </contour>
  </outline>
</glyph>
<glyph name="brokenbar" format="2">
  <advance width="277"/>
  <unicode hex="00A6"/>
  <outline>
    <contour>
      <point x="204" y="405" type="line"/>
      <point x="276" y="405" type="line"/>
      <point x="367" y="783" type="line"/>
      <point x="296" y="783" type="line"/>
    </contour>
    <contour>
      <point x="63" y="-185" type="line"/>
      <point x="134" y="-185" type="line"/>
      <point x="224" y="193" type="line"/>
      <point x="153" y="193" type="line"/>
    </contour>
  </outline>
</glyph>
<glyph name="section" format="2">
  <advance width="505"/>
  <unicode hex="00A7"/>
  <outline>
    <contour>
      <point x="224" y="-109" type="curve" smooth="yes"/>
      <point x="344" y="-109"/>
      <point x="450" y="-52"/>
      <point x="450" y="64" type="curve" smooth="yes"/>
      <point x="450" y="102"/>
      <point x="434" y="130"/>
      <point x="411" y="150" type="curve"/>
      <point x="487" y="193"/>
      <point x="539" y="250"/>
      <point x="539" y="323" type="curve" smooth="yes"/>
      <point x="539" y="402"/>
      <point x="487" y="432"/>
      <point x="429" y="455" type="curve" smooth="yes"/>
      <point x="365" y="481"/>
      <point x="309" y="496"/>
      <point x="309" y="556" type="curve" smooth="yes"/>
      <point x="309" y="617"/>
      <point x="375" y="650"/>
      <point x="447" y="650" type="curve" smooth="yes"/>
      <point x="486" y="650"/>
      <point x="528" y="640"/>
      <point x="560" y="619" type="curve"/>
      <point x="591" y="676" type="line"/>
      <point x="551" y="697"/>
      <point x="499" y="708"/>
      <point x="448" y="708" type="curve" smooth="yes"/>
      <point x="337" y="708"/>
      <point x="234" y="656"/>
      <point x="234" y="545" type="curve" smooth="yes"/>
      <point x="234" y="518"/>
      <point x="245" y="488"/>
      <point x="265" y="463" type="curve"/>
      <point x="185" y="417"/>
      <point x="134" y="358"/>
      <point x="134" y="284" type="curve" smooth="yes"/>
      <point x="134" y="207"/>
      <point x="186" y="175"/>
      <point x="245" y="151" type="curve" smooth="yes"/>
      <point x="312" y="124"/>
      <point x="374" y="110"/>
      <point x="374" y="53" type="curve" smooth="yes"/>
      <point x="374" y="-15"/>
      <point x="305" y="-46"/>
      <point x="227" y="-46" type="curve" smooth="yes"/>
      <point x="179" y="-46"/>
      <point x="129" y="-34"/>
      <point x="94" y="-11" type="curve"/>
      <point x="60" y="-72" type="line"/>
      <point x="107" y="-97"/>
      <point x="166" y="-109"/>
    </contour>
    <contour>
      <point x="354" y="181" type="curve"/>
      <point x="278" y="213" type="line" smooth="yes"/>
      <point x="228" y="233"/>
      <point x="207" y="257"/>
      <point x="207" y="296" type="curve" smooth="yes"/>
      <point x="207" y="352"/>
      <point x="255" y="400"/>
      <point x="306" y="428" type="curve"/>
      <point x="393" y="393" type="line" smooth="yes"/>
      <point x="451" y="370"/>
      <point x="465" y="343"/>
      <point x="465" y="310" type="curve" smooth="yes"/>
      <point x="465" y="262"/>
      <point x="420" y="210"/>
    </contour>
  </outline>
</glyph>
<glyph name="dieresis" format="2">
  <advance width="369"/>
  <unicode hex="00A8"/>
  <outline>
    <contour>
      <point x="412" y="622" type="curve" smooth="yes"/>
      <point x="444" y="622"/>
      <point x="465" y="652"/>
      <point x="465" y="680" type="curve" smooth="yes"/>
      <point x="465" y="703"/>
      <point x="449" y="725"/>
      <point x="419" y="725" type="curve" smooth="yes"/>
      <point x="386" y="725"/>
      <point x="365" y="696"/>
      <point x="365" y="667" type="curve" smooth="yes"/>
      <point x="365" y="643"/>
      <point x="381" y="622"/>
    </contour>
    <contour>
      <point x="233" y="622" type="curve" smooth="yes"/>
      <point x="266" y="622"/>
      <point x="288" y="652"/>
      <point x="288" y="680" type="curve" smooth="yes"/>
      <point x="288" y="703"/>
      <point x="272" y="725"/>
      <point x="241" y="725" type="curve" smooth="yes"/>
      <point x="208" y="725"/>
      <point x="187" y="696"/>
      <point x="187" y="667" type="curve" smooth="yes"/>
      <point x="187" y="643"/>
      <point x="203" y="622"/>
    </contour>
  </outline>
</glyph>
<glyph name="copyright" format="2">
  <advance width="769"/>
  <unicode hex="00A9"/>
  <outline>
    <contour>
      <point x="463" y="-15" type="curve" smooth="yes"/>
      <point x="643" y="-15"/>
      <point x="803" y="119"/>
      <point x="803" y="347" type="curve"/>
      <point x="803" y="575"/>
      <point x="643" y="708"/>
      <point x="463" y="708" type="curve"/>
      <point x="284" y="708"/>
      <point x="123" y="575"/>
      <point x="123" y="347" type="curve" smooth="yes"/>
      <point x="123" y="119"/>
      <point x="284" y="-15"/>
    </contour>
    <contour>
      <point x="470" y="144" type="curve"/>
      <point x="534" y="144"/>
      <point x="580" y="165"/>
      <point x="597" y="175" type="curve"/>
      <point x="578" y="228" type="line"/>
      <point x="563" y="219"/>
      <point x="532" y="203"/>
      <point x="477" y="203" type="curve" smooth="yes"/>
      <point x="399" y="203"/>
      <point x="352" y="256"/>
      <point x="352" y="349" type="curve" smooth="yes"/>
      <point x="352" y="439"/>
      <point x="404" y="491"/>
      <point x="474" y="491" type="curve" smooth="yes"/>
      <point x="525" y="491"/>
      <point x="553" y="476"/>
      <point x="573" y="465" type="curve"/>
      <point x="593" y="515" type="line"/>
      <point x="578" y="525"/>
      <point x="538" y="549"/>
      <point x="473" y="549" type="curve" smooth="yes"/>
      <point x="374" y="549"/>
      <point x="286" y="475"/>
      <point x="286" y="348" type="curve" smooth="yes"/>
      <point x="286" y="218"/>
      <point x="364" y="144"/>
    </contour>
    <contour>
      <point x="463" y="43" type="curve" smooth="yes"/>
      <point x="302" y="43"/>
      <point x="187" y="165"/>
      <point x="187" y="347" type="curve"/>
      <point x="187" y="529"/>
      <point x="302" y="650"/>
      <point x="463" y="650" type="curve" smooth="yes"/>
      <point x="624" y="650"/>
      <point x="739" y="529"/>
      <point x="739" y="347" type="curve"/>
      <point x="739" y="165"/>
      <point x="624" y="43"/>
    </contour>
  </outline>
</glyph>
<glyph name="ordfeminine" format="2">
  <advance width="448"/>
  <unicode hex="00AA"/>
  <outline>
    <contour>
      <point x="302" y="329" type="curve" smooth="yes"/>
      <point x="351" y="329"/>
      <point x="385" y="344"/>
      <point x="410" y="359" type="curve"/>
      <point x="414" y="347"/>
      <point x="418" y="338"/>
      <point x="426" y="326" type="curve"/>
      <point x="485" y="336" type="line"/>
      <point x="455" y="386"/>
      <point x="450" y="429"/>
      <point x="470" y="499" type="curve" smooth="yes"/>
      <point x="524" y="686" type="line"/>
      <point x="500" y="698"/>
      <point x="460" y="704"/>
      <point x="440" y="704" type="curve" smooth="yes"/>
      <point x="274" y="704"/>
      <point x="184" y="576"/>
      <point x="184" y="460" type="curve" smooth="yes"/>
      <point x="184" y="379"/>
      <point x="224" y="329"/>
    </contour>
    <contour>
      <point x="314" y="383" type="curve" smooth="yes"/>
      <point x="276" y="383"/>
      <point x="248" y="405"/>
      <point x="248" y="459" type="curve" smooth="yes"/>
      <point x="248" y="551"/>
      <point x="315" y="651"/>
      <point x="423" y="651" type="curve" smooth="yes"/>
      <point x="435" y="651"/>
      <point x="441" y="649"/>
      <point x="447" y="647" type="curve"/>
      <point x="406" y="493" type="line" smooth="yes"/>
      <point x="400" y="469"/>
      <point x="394" y="438"/>
      <point x="398" y="413" type="curve"/>
      <point x="371" y="393"/>
      <point x="340" y="383"/>
    </contour>
  </outline>
</glyph>
<glyph name="logicalnot" format="2">
  <advance width="574"/>
  <unicode hex="00AC"/>
  <outline>
    <contour>
      <point x="437" y="54" type="line"/>
      <point x="504" y="54" type="line"/>
      <point x="584" y="389" type="line"/>
      <point x="148" y="389" type="line"/>
      <point x="133" y="325" type="line"/>
      <point x="502" y="325" type="line"/>
    </contour>
  </outline>
</glyph>
<glyph name="registered" format="2">
  <advance width="769"/>
  <unicode hex="00AE"/>
  <outline>
    <contour>
      <point x="463" y="-15" type="curve" smooth="yes"/>
      <point x="643" y="-15"/>
      <point x="803" y="119"/>
      <point x="803" y="347" type="curve" smooth="yes"/>
      <point x="803" y="575"/>
      <point x="643" y="708"/>
      <point x="463" y="708" type="curve" smooth="yes"/>
      <point x="284" y="708"/>
      <point x="123" y="575"/>
      <point x="123" y="347" type="curve" smooth="yes"/>
      <point x="123" y="119"/>
      <point x="284" y="-15"/>
    </contour>
    <contour>
      <point x="463" y="43" type="curve" smooth="yes"/>
      <point x="302" y="43"/>
      <point x="187" y="165"/>
      <point x="187" y="347" type="curve" smooth="yes"/>
      <point x="187" y="529"/>
      <point x="302" y="650"/>
      <point x="463" y="650" type="curve" smooth="yes"/>
      <point x="624" y="650"/>
      <point x="739" y="529"/>
      <point x="739" y="347" type="curve" smooth="yes"/>
      <point x="739" y="165"/>
      <point x="624" y="43"/>
    </contour>
    <contour>
      <point x="327" y="152" type="line"/>
      <point x="387" y="152" type="line"/>
      <point x="387" y="304" type="line"/>
      <point x="446" y="304" type="line"/>
      <point x="452" y="304"/>
      <point x="460" y="304"/>
      <point x="468" y="305" type="curve"/>
      <point x="495" y="272"/>
      <point x="533" y="213"/>
      <point x="566" y="152" type="curve"/>
      <point x="632" y="152" type="line"/>
      <point x="602" y="213"/>
      <point x="552" y="290"/>
      <point x="529" y="316" type="curve"/>
      <point x="579" y="335"/>
      <point x="605" y="374"/>
      <point x="605" y="421" type="curve" smooth="yes"/>
      <point x="605" y="504"/>
      <point x="545" y="546"/>
      <point x="433" y="546" type="curve" smooth="yes"/>
      <point x="400" y="546"/>
      <point x="359" y="542"/>
      <point x="327" y="534" type="curve"/>
    </contour>
    <contour>
      <point x="387" y="353" type="line"/>
      <point x="387" y="491" type="line"/>
      <point x="400" y="492"/>
      <point x="418" y="493"/>
      <point x="437" y="493" type="curve" smooth="yes"/>
      <point x="492" y="493"/>
      <point x="542" y="476"/>
      <point x="542" y="422" type="curve" smooth="yes"/>
      <point x="542" y="366"/>
      <point x="496" y="353"/>
      <point x="433" y="353" type="curve" smooth="yes"/>
    </contour>
  </outline>
</glyph>
<glyph name="macron" format="2">
  <advance width="351"/>
  <unicode hex="00AF"/>
  <outline>
    <contour>
      <point x="180" y="644" type="line"/>
      <point x="447" y="644" type="line"/>
      <point x="461" y="706" type="line"/>
      <point x="195" y="706" type="line"/>
    </contour>
  </outline>
</glyph>
<glyph name="degree" format="2">
  <advance width="327"/>
  <unicode hex="00B0"/>
  <outline>
    <contour>
      <point x="306" y="506" type="curve" smooth="yes"/>
      <point x="377" y="506"/>
      <point x="439" y="556"/>
      <point x="439" y="640" type="curve" smooth="yes"/>
      <point x="439" y="725"/>
      <point x="377" y="774"/>
      <point x="306" y="774" type="curve" smooth="yes"/>
      <point x="234" y="774"/>
      <point x="172" y="725"/>
      <point x="172" y="640" type="curve" smooth="yes"/>
      <point x="172" y="556"/>
      <point x="234" y="506"/>
    </contour>
    <contour>
      <point x="306" y="557" type="curve" smooth="yes"/>
      <point x="262" y="557"/>
      <point x="227" y="589"/>
      <point x="227" y="640" type="curve" smooth="yes"/>
      <point x="227" y="691"/>
      <point x="262" y="723"/>
      <point x="306" y="723" type="curve" smooth="yes"/>
      <point x="350" y="723"/>
      <point x="385" y="691"/>
      <point x="385" y="640" type="curve" smooth="yes"/>
      <point x="385" y="589"/>
      <point x="350" y="557"/>
    </contour>
  </outline>
</glyph>
<glyph name="plusminus" format="2">
  <advance width="574"/>
  <unicode hex="00B1"/>
  <outline>
    <contour>
      <point x="285" y="131" type="line"/>
      <point x="352" y="131" type="line"/>
      <point x="404" y="343" type="line"/>
      <point x="590" y="343" type="line"/>
      <point x="606" y="407" type="line"/>
      <point x="418" y="407" type="line"/>
      <point x="470" y="619" type="line"/>
      <point x="402" y="619" type="line"/>
      <point x="351" y="407" type="line"/>
      <point x="163" y="407" type="line"/>
      <point x="147" y="343" type="line"/>
      <point x="336" y="343" type="line"/>
    </contour>
    <contour>
      <point x="76" y="1" type="line"/>
      <point x="509" y="1" type="line"/>
      <point x="524" y="65" type="line"/>
      <point x="90" y="65" type="line"/>
    </contour>
  </outline>
</glyph>
<glyph name="threesuperior" format="2">
  <advance width="373"/>
  <unicode hex="00B3"/>
  <outline>
    <contour>
      <point x="249" y="307" type="curve" smooth="yes"/>
      <point x="370" y="307"/>
      <point x="426" y="374"/>
      <point x="426" y="440" type="curve" smooth="yes"/>
      <point x="426" y="475"/>
      <point x="408" y="505"/>
      <point x="367" y="520" type="curve"/>
      <point x="421" y="541"/>
      <point x="449" y="585"/>
      <point x="449" y="624" type="curve" smooth="yes"/>
      <point x="449" y="671"/>
      <point x="412" y="708"/>
      <point x="346" y="708" type="curve" smooth="yes"/>
      <point x="303" y="708"/>
      <point x="258" y="696"/>
      <point x="225" y="678" type="curve"/>
      <point x="237" y="633" type="line"/>
      <point x="258" y="643"/>
      <point x="298" y="656"/>
      <point x="332" y="656" type="curve" smooth="yes"/>
      <point x="371" y="656"/>
      <point x="390" y="642"/>
      <point x="390" y="614" type="curve" smooth="yes"/>
      <point x="390" y="578"/>
      <point x="353" y="544"/>
      <point x="285" y="544" type="curve" smooth="yes"/>
      <point x="260" y="544" type="line"/>
      <point x="248" y="495" type="line"/>
      <point x="259" y="495" type="line" smooth="yes"/>
      <point x="334" y="495"/>
      <point x="365" y="477"/>
      <point x="365" y="437" type="curve" smooth="yes"/>
      <point x="365" y="391"/>
      <point x="320" y="360"/>
      <point x="252" y="360" type="curve" smooth="yes"/>
      <point x="218" y="360"/>
      <point x="183" y="367"/>
      <point x="159" y="381" type="curve"/>
      <point x="136" y="332" type="line"/>
      <point x="167" y="316"/>
      <point x="208" y="307"/>
    </contour>
  </outline>
</glyph>
<glyph name="acute" format="2">
  <advance width="340"/>
  <unicode hex="00B4"/>
  <outline>
    <contour>
      <point x="249" y="582" type="line"/>
      <point x="424" y="711" type="line"/>
      <point x="382" y="776" type="line"/>
      <point x="217" y="628" type="line"/>
    </contour>
  </outline>
</glyph>
<glyph name="micro" format="2">
  <advance width="579"/>
  <unicode hex="00B5"/>
  <outline>
    <contour>
      <point x="43" y="-183" type="line"/>
      <point x="117" y="-183" type="line"/>
      <point x="156" y="-23" type="line"/>
      <point x="161" y="-2"/>
      <point x="165" y="16"/>
      <point x="169" y="34" type="curve"/>
      <point x="192" y="8"/>
      <point x="229" y="-12"/>
      <point x="285" y="-12" type="curve" smooth="yes"/>
      <point x="342" y="-12"/>
      <point x="400" y="6"/>
      <point x="451" y="48" type="curve"/>
      <point x="467" y="7"/>
      <point x="525" y="-9"/>
      <point x="559" y="-9" type="curve"/>
      <point x="578" y="56" type="line"/>
      <point x="497" y="69"/>
      <point x="510" y="132"/>
      <point x="527" y="200" type="curve" smooth="yes"/>
      <point x="605" y="518" type="line"/>
      <point x="530" y="518" type="line"/>
      <point x="463" y="248" type="line" smooth="yes"/>
      <point x="449" y="189"/>
      <point x="441" y="150"/>
      <point x="439" y="116" type="curve"/>
      <point x="398" y="74"/>
      <point x="355" y="55"/>
      <point x="296" y="55" type="curve" smooth="yes"/>
      <point x="167" y="55"/>
      <point x="200" y="159"/>
      <point x="229" y="284" type="curve" smooth="yes"/>
      <point x="286" y="518" type="line"/>
      <point x="211" y="518" type="line"/>
    </contour>
  </outline>
</glyph>
<glyph name="paragraph" format="2">
  <advance width="609"/>
  <unicode hex="00B6"/>
  <outline>
    <contour>
      <point x="235" y="-185" type="line"/>
      <point x="303" y="-185" type="line"/>
      <point x="500" y="634" type="line"/>
      <point x="531" y="637"/>
      <point x="577" y="634"/>
      <point x="611" y="630" type="curve"/>
      <point x="414" y="-185" type="line"/>
      <point x="482" y="-185" type="line"/>
      <point x="690" y="683" type="line"/>
      <point x="647" y="696"/>
      <point x="567" y="700"/>
      <point x="513" y="700" type="curve" smooth="yes"/>
      <point x="268" y="700"/>
      <point x="145" y="575"/>
      <point x="145" y="437" type="curve" smooth="yes"/>
      <point x="145" y="344"/>
      <point x="212" y="265"/>
      <point x="342" y="263" type="curve"/>
    </contour>
  </outline>
</glyph>
<glyph name="cedilla" format="2">
  <advance width="345"/>
  <unicode hex="00B8"/>
  <outline>
    <contour>
      <point x="109" y="-191" type="curve" smooth="yes"/>
      <point x="173" y="-191"/>
      <point x="224" y="-160"/>
      <point x="224" y="-103" type="curve" smooth="yes"/>
      <point x="224" y="-72"/>
      <point x="210" y="-55"/>
      <point x="180" y="-39" type="curve"/>
      <point x="190" y="-23"/>
      <point x="210" y="6"/>
      <point x="221" y="20" type="curve"/>
      <point x="169" y="20" type="line"/>
      <point x="159" y="8"/>
      <point x="123" y="-39"/>
      <point x="109" y="-66" type="curve"/>
      <point x="146" y="-81"/>
      <point x="156" y="-90"/>
      <point x="156" y="-110" type="curve" smooth="yes"/>
      <point x="156" y="-131"/>
      <point x="137" y="-140"/>
      <point x="106" y="-140" type="curve" smooth="yes"/>
      <point x="89" y="-140"/>
      <point x="71" y="-136"/>
      <point x="56" y="-130" type="curve"/>
      <point x="36" y="-178" type="line"/>
      <point x="62" y="-188"/>
      <point x="85" y="-191"/>
    </contour>
  </outline>
</glyph>
<glyph name="ordmasculine" format="2">
  <advance width="453"/>
  <unicode hex="00BA"/>
  <outline>
    <contour>
      <point x="239" y="328" type="curve" smooth="yes"/>
      <point x="380" y="328"/>
      <point x="458" y="456"/>
      <point x="458" y="575" type="curve" smooth="yes"/>
      <point x="458" y="645"/>
      <point x="422" y="705"/>
      <point x="339" y="705" type="curve" smooth="yes"/>
      <point x="198" y="705"/>
      <point x="120" y="577"/>
      <point x="120" y="459" type="curve" smooth="yes"/>
      <point x="120" y="388"/>
      <point x="156" y="328"/>
    </contour>
    <contour>
      <point x="253" y="382" type="curve" smooth="yes"/>
      <point x="206" y="382"/>
      <point x="183" y="410"/>
      <point x="183" y="468" type="curve" smooth="yes"/>
      <point x="183" y="553"/>
      <point x="241" y="652"/>
      <point x="326" y="652" type="curve" smooth="yes"/>
      <point x="372" y="652"/>
      <point x="395" y="624"/>
      <point x="395" y="566" type="curve" smooth="yes"/>
      <point x="395" y="480"/>
      <point x="338" y="382"/>
    </contour>
  </outline>
</glyph>
<glyph name="Aring" format="2">
  <advance width="642"/>
  <unicode hex="00C5"/>
  <outline>
    <contour>
      <point x="24" y="0" type="curve"/>
      <point x="109" y="0" type="line"/>
      <point x="142" y="64"/>
      <point x="176" y="126"/>
      <point x="210" y="186" type="curve"/>
      <point x="529" y="186" type="line"/>
      <point x="536" y="123"/>
      <point x="543" y="62"/>
      <point x="549" y="0" type="curve"/>
      <point x="629" y="0" type="line"/>
      <point x="601" y="250"/>
      <point x="572" y="464"/>
      <point x="540" y="649" type="curve"/>
      <point x="573" y="664"/>
      <point x="598" y="696"/>
      <point x="598" y="740" type="curve" smooth="yes"/>
      <point x="598" y="799"/>
      <point x="553" y="838"/>
      <point x="500" y="838" type="curve" smooth="yes"/>
      <point x="447" y="838"/>
      <point x="402" y="799"/>
      <point x="402" y="740" type="curve" smooth="yes"/>
      <point x="402" y="709"/>
      <point x="414" y="684"/>
      <point x="434" y="666" type="curve"/>
      <point x="301" y="470"/>
      <point x="158" y="239"/>
    </contour>
    <contour>
      <point x="248" y="251" type="line"/>
      <point x="319" y="372"/>
      <point x="394" y="487"/>
      <point x="472" y="607" type="curve"/>
      <point x="492" y="484"/>
      <point x="507" y="366"/>
      <point x="521" y="251" type="curve"/>
    </contour>
    <contour>
      <point x="500" y="683" type="curve" smooth="yes"/>
      <point x="469" y="683"/>
      <point x="445" y="703"/>
      <point x="445" y="740" type="curve" smooth="yes"/>
      <point x="445" y="777"/>
      <point x="469" y="798"/>
      <point x="500" y="798" type="curve" smooth="yes"/>
      <point x="532" y="798"/>
      <point x="556" y="777"/>
      <point x="556" y="740" type="curve" smooth="yes"/>
      <point x="556" y="703"/>
      <point x="532" y="683"/>
    </contour>
  </outline>
</glyph>
<glyph name="AE" format="2">
  <advance width="911"/>
  <unicode hex="00C6"/>
  <outline>
    <contour>
      <point x="21" y="0" type="curve"/>
      <point x="105" y="0" type="line"/>
      <point x="146" y="61"/>
      <point x="193" y="125"/>
      <point x="241" y="187" type="curve"/>
      <point x="519" y="187" type="line"/>
      <point x="475" y="0" type="line"/>
      <point x="875" y="0" type="line"/>
      <point x="889" y="67" type="line"/>
      <point x="566" y="67" type="line"/>
      <point x="632" y="331" type="line"/>
      <point x="895" y="331" type="line"/>
      <point x="910" y="397" type="line"/>
      <point x="645" y="397" type="line"/>
      <point x="701" y="626" type="line"/>
      <point x="1001" y="626" type="line"/>
      <point x="1016" y="693" type="line"/>
      <point x="596" y="693" type="line"/>
      <point x="382" y="471"/>
      <point x="213" y="270"/>
    </contour>
    <contour>
      <point x="292" y="253" type="line"/>
      <point x="416" y="407"/>
      <point x="548" y="556"/>
      <point x="626" y="633" type="curve"/>
      <point x="535" y="253" type="line"/>
    </contour>
  </outline>
</glyph>
<glyph name="Ccedilla" format="2">
  <advance width="623"/>
  <unicode hex="00C7"/>
  <outline>
    <contour>
      <point x="255" y="-191" type="curve" smooth="yes"/>
      <point x="319" y="-191"/>
      <point x="369" y="-160"/>
      <point x="369" y="-103" type="curve" smooth="yes"/>
      <point x="369" y="-72"/>
      <point x="356" y="-55"/>
      <point x="325" y="-39" type="curve"/>
      <point x="329" y="-32"/>
      <point x="335" y="-23"/>
      <point x="341" y="-15" type="curve"/>
      <point x="409" y="-14"/>
      <point x="480" y="3"/>
      <point x="532" y="31" type="curve"/>
      <point x="522" y="99" type="line"/>
      <point x="492" y="83"/>
      <point x="439" y="55"/>
      <point x="336" y="55" type="curve" smooth="yes"/>
      <point x="218" y="55"/>
      <point x="160" y="126"/>
      <point x="160" y="259" type="curve" smooth="yes"/>
      <point x="160" y="490"/>
      <point x="305" y="639"/>
      <point x="470" y="639" type="curve" smooth="yes"/>
      <point x="523" y="639"/>
      <point x="573" y="625"/>
      <point x="623" y="596" type="curve"/>
      <point x="656" y="664" type="line"/>
      <point x="600" y="695"/>
      <point x="546" y="708"/>
      <point x="484" y="708" type="curve" smooth="yes"/>
      <point x="265" y="708"/>
      <point x="78" y="533"/>
      <point x="78" y="256" type="curve" smooth="yes"/>
      <point x="78" y="87"/>
      <point x="163" y="3"/>
      <point x="289" y="-12" type="curve"/>
      <point x="276" y="-29"/>
      <point x="262" y="-50"/>
      <point x="254" y="-66" type="curve"/>
      <point x="292" y="-81"/>
      <point x="302" y="-90"/>
      <point x="302" y="-110" type="curve" smooth="yes"/>
      <point x="302" y="-131"/>
      <point x="283" y="-140"/>
      <point x="252" y="-140" type="curve" smooth="yes"/>
      <point x="235" y="-140"/>
      <point x="217" y="-136"/>
      <point x="202" y="-130" type="curve"/>
      <point x="182" y="-178" type="line"/>
      <point x="208" y="-188"/>
      <point x="231" y="-191"/>
    </contour>
  </outline>
</glyph>
<glyph name="Eth" format="2">
  <advance width="705"/>
  <unicode hex="00D0"/>
  <outline>
    <contour>
      <point x="266" y="-6" type="curve" smooth="yes"/>
      <point x="606" y="-6"/>
      <point x="732" y="208"/>
      <point x="732" y="426" type="curve" smooth="yes"/>
      <point x="732" y="607"/>
      <point x="623" y="699"/>
      <point x="430" y="699" type="curve" smooth="yes"/>
      <point x="377" y="699"/>
      <point x="324" y="694"/>
      <point x="258" y="680" type="curve"/>
      <point x="189" y="393" type="line"/>
      <point x="109" y="393" type="line"/>
      <point x="95" y="331" type="line"/>
      <point x="175" y="331" type="line"/>
      <point x="99" y="13" type="line"/>
      <point x="142" y="1"/>
      <point x="213" y="-6"/>
    </contour>
    <contour>
      <point x="279" y="61" type="curve" smooth="yes"/>
      <point x="249" y="61"/>
      <point x="220" y="63"/>
      <point x="189" y="67" type="curve"/>
      <point x="253" y="331" type="line"/>
      <point x="383" y="331" type="line"/>
      <point x="398" y="393" type="line"/>
      <point x="267" y="393" type="line"/>
      <point x="323" y="625" type="line"/>
      <point x="355" y="630"/>
      <point x="389" y="633"/>
      <point x="420" y="633" type="curve" smooth="yes"/>
      <point x="549" y="633"/>
      <point x="650" y="576"/>
      <point x="650" y="428" type="curve" smooth="yes"/>
      <point x="650" y="204"/>
      <point x="509" y="61"/>
    </contour>
  </outline>
</glyph>
<glyph name="multiply" format="2">
  <advance width="574"/>
  <unicode hex="00D7"/>
  <outline>
    <contour>
      <point x="170" y="100" type="line"/>
      <point x="348" y="245" type="line"/>
      <point x="458" y="100" type="line"/>
      <point x="508" y="140" type="line"/>
      <point x="396" y="286" type="line"/>
      <point x="584" y="436" type="line"/>
      <point x="546" y="483" type="line"/>
      <point x="359" y="333" type="line"/>
      <point x="246" y="483" type="line"/>
      <point x="196" y="443" type="line"/>
      <point x="310" y="292" type="line"/>
      <point x="133" y="148" type="line"/>
    </contour>
  </outline>
</glyph>
<glyph name="Oslash" format="2">
  <advance width="759"/>
  <unicode hex="00D8"/>
  <anchor x="531" y="674" name="top"/>
  <outline>
    <contour>
      <point x="173" y="-31" type="line"/>
      <point x="233" y="37" type="line"/>
      <point x="277" y="2"/>
      <point x="333" y="-15"/>
      <point x="392" y="-15" type="curve" smooth="yes"/>
      <point x="594" y="-15"/>
      <point x="787" y="165"/>
      <point x="787" y="434" type="curve" smooth="yes"/>
      <point x="787" y="509"/>
      <point x="768" y="567"/>
      <point x="737" y="611" type="curve"/>
      <point x="804" y="688" type="line"/>
      <point x="758" y="727" type="line"/>
      <point x="695" y="655" type="line"/>
      <point x="651" y="691"/>
      <point x="595" y="708"/>
      <point x="536" y="708" type="curve" smooth="yes"/>
      <point x="334" y="708"/>
      <point x="141" y="528"/>
      <point x="141" y="260" type="curve" smooth="yes"/>
      <point x="141" y="186"/>
      <point x="159" y="127"/>
      <point x="190" y="82" type="curve"/>
      <point x="126" y="9" type="line"/>
    </contour>
    <contour>
      <point x="398" y="54" type="curve" smooth="yes"/>
      <point x="353" y="54"/>
      <point x="313" y="67"/>
      <point x="283" y="93" type="curve"/>
      <point x="682" y="549" type="line"/>
      <point x="697" y="520"/>
      <point x="705" y="484"/>
      <point x="705" y="442" type="curve" smooth="yes"/>
      <point x="705" y="198"/>
      <point x="556" y="54"/>
    </contour>
    <contour>
      <point x="245" y="144" type="line"/>
      <point x="230" y="173"/>
      <point x="223" y="208"/>
      <point x="223" y="251" type="curve" smooth="yes"/>
      <point x="223" y="495"/>
      <point x="372" y="639"/>
      <point x="529" y="639" type="curve" smooth="yes"/>
      <point x="574" y="639"/>
      <point x="615" y="626"/>
      <point x="645" y="599" type="curve"/>
    </contour>
  </outline>
</glyph>
<glyph name="Thorn" format="2">
  <advance width="580"/>
  <unicode hex="00DE"/>
  <outline>
    <contour>
      <point x="24" y="0" type="line"/>
      <point x="102" y="0" type="line"/>
      <point x="136" y="147" type="line"/>
      <point x="205" y="147" type="line" smooth="yes"/>
      <point x="445" y="147"/>
      <point x="561" y="249"/>
      <point x="561" y="394" type="curve" smooth="yes"/>
      <point x="561" y="520"/>
      <point x="481" y="577"/>
      <point x="319" y="577" type="curve" smooth="yes"/>
      <point x="291" y="577"/>
      <point x="267" y="577"/>
      <point x="240" y="574" type="curve"/>
      <point x="269" y="693" type="line"/>
      <point x="191" y="693" type="line"/>
    </contour>
    <contour>
      <point x="152" y="210" type="line"/>
      <point x="224" y="507" type="line"/>
      <point x="230" y="508"/>
      <point x="259" y="512"/>
      <point x="317" y="512" type="curve" smooth="yes"/>
      <point x="426" y="512"/>
      <point x="481" y="475"/>
      <point x="481" y="390" type="curve" smooth="yes"/>
      <point x="481" y="285"/>
      <point x="404" y="210"/>
      <point x="219" y="210" type="curve" smooth="yes"/>
    </contour>
  </outline>
</glyph>
<glyph name="germandbls" format="2">
  <advance width="604"/>
  <unicode hex="00DF"/>
  <outline>
    <contour>
      <point x="54" y="-189" type="line"/>
      <point x="122" y="-114"/>
      <point x="153" y="-28"/>
      <point x="186" y="107" type="curve" smooth="yes"/>
      <point x="293" y="553" type="line" smooth="yes"/>
      <point x="320" y="666"/>
      <point x="392" y="711"/>
      <point x="464" y="711" type="curve" smooth="yes"/>
      <point x="516" y="711"/>
      <point x="546" y="685"/>
      <point x="546" y="638" type="curve" smooth="yes"/>
      <point x="546" y="519"/>
      <point x="375" y="485"/>
      <point x="375" y="370" type="curve" smooth="yes"/>
      <point x="375" y="311"/>
      <point x="423" y="286"/>
      <point x="468" y="253" type="curve" smooth="yes"/>
      <point x="503" y="227"/>
      <point x="528" y="202"/>
      <point x="528" y="156" type="curve" smooth="yes"/>
      <point x="528" y="85"/>
      <point x="466" y="55"/>
      <point x="399" y="55" type="curve" smooth="yes"/>
      <point x="357" y="55"/>
      <point x="314" y="69"/>
      <point x="284" y="88" type="curve"/>
      <point x="253" y="22" type="line"/>
      <point x="296" y="-3"/>
      <point x="348" y="-12"/>
      <point x="396" y="-12" type="curve" smooth="yes"/>
      <point x="504" y="-12"/>
      <point x="603" y="44"/>
      <point x="603" y="163" type="curve" smooth="yes"/>
      <point x="603" y="241"/>
      <point x="560" y="276"/>
      <point x="519" y="303" type="curve" smooth="yes"/>
      <point x="482" y="327"/>
      <point x="451" y="344"/>
      <point x="451" y="380" type="curve" smooth="yes"/>
      <point x="451" y="449"/>
      <point x="621" y="502"/>
      <point x="621" y="642" type="curve" smooth="yes"/>
      <point x="621" y="724"/>
      <point x="561" y="776"/>
      <point x="464" y="776" type="curve" smooth="yes"/>
      <point x="352" y="776"/>
      <point x="258" y="715"/>
      <point x="218" y="549" type="curve" smooth="yes"/>
      <point x="102" y="65" type="line"/>
      <point x="80" y="-26"/>
      <point x="56" y="-92"/>
      <point x="-12" y="-179" type="curve"/>
    </contour>
  </outline>
</glyph>
<glyph name="ae" format="2">
  <advance width="811"/>
  <unicode hex="00E6"/>
  <anchor x="333" y="0" name="bottom"/>
  <anchor x="457" y="518" name="top"/>
  <outline>
    <contour>
      <point x="167" y="-12" type="curve" smooth="yes"/>
      <point x="256" y="-12"/>
      <point x="328" y="31"/>
      <point x="375" y="96" type="curve"/>
      <point x="399" y="28"/>
      <point x="454" y="-12"/>
      <point x="550" y="-12" type="curve" smooth="yes"/>
      <point x="609" y="-12"/>
      <point x="670" y="3"/>
      <point x="711" y="22" type="curve"/>
      <point x="703" y="89" type="line"/>
      <point x="657" y="66"/>
      <point x="610" y="55"/>
      <point x="569" y="55" type="curve" smooth="yes"/>
      <point x="464" y="55"/>
      <point x="437" y="90"/>
      <point x="434" y="189" type="curve" smooth="yes"/>
      <point x="434" y="192"/>
      <point x="434" y="197"/>
      <point x="434" y="200" type="curve"/>
      <point x="669" y="208"/>
      <point x="789" y="240"/>
      <point x="789" y="396" type="curve" smooth="yes"/>
      <point x="789" y="488"/>
      <point x="722" y="530"/>
      <point x="643" y="530" type="curve" smooth="yes"/>
      <point x="568" y="530"/>
      <point x="486" y="493"/>
      <point x="435" y="421" type="curve"/>
      <point x="412" y="489"/>
      <point x="357" y="530"/>
      <point x="261" y="530" type="curve" smooth="yes"/>
      <point x="202" y="530"/>
      <point x="141" y="515"/>
      <point x="100" y="496" type="curve"/>
      <point x="108" y="431" type="line"/>
      <point x="155" y="453"/>
      <point x="201" y="465"/>
      <point x="242" y="465" type="curve" smooth="yes"/>
      <point x="347" y="465"/>
      <point x="375" y="426"/>
      <point x="379" y="334" type="curve" smooth="yes"/>
      <point x="379" y="329"/>
      <point x="379" y="325"/>
      <point x="379" y="320" type="curve"/>
      <point x="144" y="310"/>
      <point x="22" y="278"/>
      <point x="22" y="122" type="curve" smooth="yes"/>
      <point x="22" y="32"/>
      <point x="88" y="-12"/>
    </contour>
    <contour>
      <point x="178" y="53" type="curve" smooth="yes"/>
      <point x="128" y="53"/>
      <point x="96" y="79"/>
      <point x="96" y="128" type="curve" smooth="yes"/>
      <point x="96" y="206"/>
      <point x="147" y="248"/>
      <point x="369" y="252" type="curve"/>
      <point x="343" y="114"/>
      <point x="258" y="53"/>
    </contour>
    <contour>
      <point x="444" y="264" type="curve"/>
      <point x="470" y="403"/>
      <point x="555" y="465"/>
      <point x="633" y="465" type="curve" smooth="yes"/>
      <point x="683" y="465"/>
      <point x="715" y="439"/>
      <point x="715" y="390" type="curve" smooth="yes"/>
      <point x="715" y="311"/>
      <point x="664" y="268"/>
    </contour>
  </outline>
</glyph>
<glyph name="ccedilla" format="2">
  <advance width="468"/>
  <unicode hex="00E7"/>
  <outline>
    <contour>
      <point x="214" y="-191" type="curve" smooth="yes"/>
      <point x="277" y="-191"/>
      <point x="328" y="-160"/>
      <point x="328" y="-103" type="curve" smooth="yes"/>
      <point x="328" y="-72"/>
      <point x="314" y="-55"/>
      <point x="284" y="-39" type="curve"/>
      <point x="288" y="-32"/>
      <point x="294" y="-21"/>
      <point x="301" y="-12" type="curve"/>
      <point x="364" y="-10"/>
      <point x="418" y="8"/>
      <point x="444" y="24" type="curve"/>
      <point x="437" y="90" type="line"/>
      <point x="418" y="77"/>
      <point x="360" y="55"/>
      <point x="305" y="55" type="curve" smooth="yes"/>
      <point x="217" y="55"/>
      <point x="180" y="108"/>
      <point x="180" y="194" type="curve" smooth="yes"/>
      <point x="180" y="339"/>
      <point x="270" y="463"/>
      <point x="408" y="463" type="curve" smooth="yes"/>
      <point x="437" y="463"/>
      <point x="467" y="458"/>
      <point x="497" y="446" type="curve"/>
      <point x="527" y="512" type="line"/>
      <point x="493" y="524"/>
      <point x="457" y="530"/>
      <point x="419" y="530" type="curve" smooth="yes"/>
      <point x="220" y="530"/>
      <point x="103" y="368"/>
      <point x="103" y="186" type="curve" smooth="yes"/>
      <point x="103" y="80"/>
      <point x="152" y="6"/>
      <point x="250" y="-9" type="curve"/>
      <point x="236" y="-28"/>
      <point x="221" y="-49"/>
      <point x="213" y="-66" type="curve"/>
      <point x="250" y="-81"/>
      <point x="260" y="-90"/>
      <point x="260" y="-110" type="curve" smooth="yes"/>
      <point x="260" y="-131"/>
      <point x="241" y="-140"/>
      <point x="210" y="-140" type="curve" smooth="yes"/>
      <point x="193" y="-140"/>
      <point x="175" y="-136"/>
      <point x="160" y="-130" type="curve"/>
      <point x="140" y="-178" type="line"/>
      <point x="166" y="-188"/>
      <point x="189" y="-191"/>
    </contour>
  </outline>
</glyph>
<glyph name="eth" format="2">
  <advance width="577"/>
  <unicode hex="00F0"/>
  <outline>
    <contour>
      <point x="288" y="-12" type="curve" smooth="yes"/>
      <point x="532" y="-12"/>
      <point x="600" y="267"/>
      <point x="600" y="423" type="curve" smooth="yes"/>
      <point x="600" y="496"/>
      <point x="587" y="565"/>
      <point x="559" y="625" type="curve"/>
      <point x="673" y="661" type="line"/>
      <point x="665" y="717" type="line"/>
      <point x="533" y="674" type="line"/>
      <point x="508" y="716"/>
      <point x="475" y="749"/>
      <point x="437" y="776" type="curve"/>
      <point x="378" y="736" type="line"/>
      <point x="412" y="713"/>
      <point x="440" y="684"/>
      <point x="461" y="652" type="curve"/>
      <point x="351" y="617" type="line"/>
      <point x="359" y="562" type="line"/>
      <point x="489" y="603" type="line"/>
      <point x="510" y="556"/>
      <point x="521" y="504"/>
      <point x="524" y="455" type="curve" smooth="yes"/>
      <point x="524" y="452"/>
      <point x="524" y="447"/>
      <point x="524" y="443" type="curve"/>
      <point x="480" y="476"/>
      <point x="438" y="488"/>
      <point x="379" y="488" type="curve" smooth="yes"/>
      <point x="240" y="488"/>
      <point x="103" y="376"/>
      <point x="103" y="189" type="curve" smooth="yes"/>
      <point x="103" y="75"/>
      <point x="167" y="-12"/>
    </contour>
    <contour>
      <point x="299" y="55" type="curve" smooth="yes"/>
      <point x="218" y="55"/>
      <point x="181" y="116"/>
      <point x="181" y="195" type="curve" smooth="yes"/>
      <point x="181" y="323"/>
      <point x="254" y="422"/>
      <point x="379" y="422" type="curve" smooth="yes"/>
      <point x="441" y="422"/>
      <point x="478" y="405"/>
      <point x="519" y="363" type="curve"/>
      <point x="505" y="210"/>
      <point x="440" y="55"/>
    </contour>
  </outline>
</glyph>
<glyph name="divide" format="2">
  <advance width="574"/>
  <unicode hex="00F7"/>
  <outline>
    <contour>
      <point x="122" y="263" type="line"/>
      <point x="577" y="263" type="line"/>
      <point x="592" y="326" type="line"/>
      <point x="138" y="326" type="line"/>
    </contour>
    <contour>
      <point x="298" y="51" type="curve" smooth="yes"/>
      <point x="328" y="51"/>
      <point x="357" y="74"/>
      <point x="362" y="105" type="curve" smooth="yes"/>
      <point x="368" y="137"/>
      <point x="351" y="158"/>
      <point x="321" y="158" type="curve" smooth="yes"/>
      <point x="292" y="158"/>
      <point x="265" y="135"/>
      <point x="259" y="103" type="curve" smooth="yes"/>
      <point x="253" y="72"/>
      <point x="269" y="51"/>
    </contour>
    <contour>
      <point x="390" y="430" type="curve" smooth="yes"/>
      <point x="420" y="430"/>
      <point x="447" y="453"/>
      <point x="454" y="485" type="curve" smooth="yes"/>
      <point x="459" y="516"/>
      <point x="443" y="537"/>
      <point x="413" y="537" type="curve" smooth="yes"/>
      <point x="384" y="537"/>
      <point x="356" y="514"/>
      <point x="350" y="483" type="curve" smooth="yes"/>
      <point x="344" y="451"/>
      <point x="361" y="430"/>
    </contour>
  </outline>
</glyph>
<glyph name="oslash" format="2">
  <advance width="541"/>
  <unicode hex="00F8"/>
  <outline>
    <contour>
      <point x="122" y="-35" type="line"/>
      <point x="171" y="21" type="line"/>
      <point x="201" y="-1"/>
      <point x="240" y="-12"/>
      <point x="281" y="-12" type="curve" smooth="yes"/>
      <point x="419" y="-12"/>
      <point x="568" y="111"/>
      <point x="568" y="351" type="curve" smooth="yes"/>
      <point x="568" y="388"/>
      <point x="560" y="420"/>
      <point x="545" y="445" type="curve"/>
      <point x="606" y="514" type="line"/>
      <point x="564" y="548" type="line"/>
      <point x="511" y="488" type="line"/>
      <point x="479" y="515"/>
      <point x="436" y="529"/>
      <point x="390" y="529" type="curve" smooth="yes"/>
      <point x="254" y="529"/>
      <point x="103" y="406"/>
      <point x="103" y="167" type="curve" smooth="yes"/>
      <point x="103" y="123"/>
      <point x="114" y="88"/>
      <point x="133" y="60" type="curve"/>
      <point x="80" y="0" type="line"/>
    </contour>
    <contour>
      <point x="286" y="54" type="curve" smooth="yes"/>
      <point x="260" y="54"/>
      <point x="237" y="60"/>
      <point x="219" y="74" type="curve"/>
      <point x="489" y="381" type="line"/>
      <point x="492" y="371"/>
      <point x="493" y="359"/>
      <point x="493" y="347" type="curve" smooth="yes"/>
      <point x="493" y="153"/>
      <point x="382" y="54"/>
    </contour>
    <contour>
      <point x="186" y="121" type="line"/>
      <point x="181" y="135"/>
      <point x="178" y="151"/>
      <point x="178" y="171" type="curve" smooth="yes"/>
      <point x="178" y="364"/>
      <point x="289" y="464"/>
      <point x="385" y="464" type="curve" smooth="yes"/>
      <point x="415" y="464"/>
      <point x="443" y="454"/>
      <point x="463" y="434" type="curve"/>
    </contour>
  </outline>
</glyph>
<glyph name="thorn" format="2">
  <advance width="535"/>
  <unicode hex="00FE"/>
  <outline>
    <contour>
      <point x="-21" y="-185" type="line"/>
      <point x="54" y="-185" type="line"/>
      <point x="98" y="0" type="line"/>
      <point x="120" y="-6"/>
      <point x="144" y="-9"/>
      <point x="170" y="-9" type="curve" smooth="yes"/>
      <point x="378" y="-9"/>
      <point x="499" y="151"/>
      <point x="499" y="337" type="curve" smooth="yes"/>
      <point x="499" y="460"/>
      <point x="439" y="530"/>
      <point x="314" y="530" type="curve" smooth="yes"/>
      <point x="285" y="530"/>
      <point x="253" y="526"/>
      <point x="223" y="519" type="curve"/>
      <point x="284" y="776" type="line"/>
      <point x="206" y="763" type="line"/>
    </contour>
    <contour>
      <point x="176" y="58" type="curve" smooth="yes"/>
      <point x="156" y="58"/>
      <point x="136" y="61"/>
      <point x="115" y="66" type="curve"/>
      <point x="207" y="452" type="line"/>
      <point x="238" y="461"/>
      <point x="269" y="466"/>
      <point x="298" y="466" type="curve" smooth="yes"/>
      <point x="383" y="466"/>
      <point x="424" y="421"/>
      <point x="424" y="327" type="curve" smooth="yes"/>
      <point x="424" y="187"/>
      <point x="335" y="58"/>
    </contour>
  </outline>
</glyph>
<glyph name="Aogonek" format="2">
  <advance width="642"/>
  <unicode hex="0104"/>
  <outline>
    <contour>
      <point x="542" y="-190" type="curve" smooth="yes"/>
      <point x="562" y="-190"/>
      <point x="581" y="-186"/>
      <point x="600" y="-182" type="curve"/>
      <point x="607" y="-127" type="line"/>
      <point x="598" y="-129"/>
      <point x="585" y="-132"/>
      <point x="572" y="-132" type="curve" smooth="yes"/>
      <point x="550" y="-132"/>
      <point x="530" y="-126"/>
      <point x="530" y="-106" type="curve" smooth="yes"/>
      <point x="530" y="-81"/>
      <point x="555" y="-48"/>
      <point x="629" y="0" type="curve"/>
      <point x="599" y="271"/>
      <point x="567" y="498"/>
      <point x="532" y="693" type="curve"/>
      <point x="451" y="693" type="line"/>
      <point x="312" y="489"/>
      <point x="166" y="253"/>
      <point x="24" y="0" type="curve"/>
      <point x="109" y="0" type="line"/>
      <point x="142" y="64"/>
      <point x="176" y="126"/>
      <point x="210" y="186" type="curve"/>
      <point x="529" y="186" type="line"/>
      <point x="536" y="123"/>
      <point x="543" y="62"/>
      <point x="549" y="0" type="curve"/>
      <point x="556" y="0" type="line"/>
      <point x="508" y="-32"/>
      <point x="459" y="-77"/>
      <point x="459" y="-124" type="curve" smooth="yes"/>
      <point x="459" y="-175"/>
      <point x="498" y="-190"/>
    </contour>
    <contour>
      <point x="248" y="251" type="line"/>
      <point x="319" y="372"/>
      <point x="394" y="487"/>
      <point x="472" y="607" type="curve"/>
      <point x="492" y="484"/>
      <point x="507" y="366"/>
      <point x="521" y="251" type="curve"/>
    </contour>
  </outline>
</glyph>
<glyph name="aogonek" format="2">
  <advance width="540"/>
  <unicode hex="0105"/>
  <outline>
    <contour>
      <point x="419" y="-190" type="curve" smooth="yes"/>
      <point x="438" y="-190"/>
      <point x="457" y="-186"/>
      <point x="476" y="-182" type="curve"/>
      <point x="484" y="-127" type="line"/>
      <point x="475" y="-129"/>
      <point x="461" y="-132"/>
      <point x="448" y="-132" type="curve" smooth="yes"/>
      <point x="427" y="-132"/>
      <point x="407" y="-126"/>
      <point x="407" y="-106" type="curve" smooth="yes"/>
      <point x="407" y="-81"/>
      <point x="435" y="-45"/>
      <point x="510" y="5" type="curve"/>
      <point x="494" y="43"/>
      <point x="487" y="75"/>
      <point x="487" y="112" type="curve" smooth="yes"/>
      <point x="487" y="138"/>
      <point x="493" y="168"/>
      <point x="501" y="200" type="curve" smooth="yes"/>
      <point x="576" y="507" type="line"/>
      <point x="534" y="524"/>
      <point x="487" y="530"/>
      <point x="447" y="530" type="curve" smooth="yes"/>
      <point x="249" y="530"/>
      <point x="103" y="391"/>
      <point x="103" y="181" type="curve" smooth="yes"/>
      <point x="103" y="49"/>
      <point x="177" y="-13"/>
      <point x="267" y="-13" type="curve" smooth="yes"/>
      <point x="321" y="-13"/>
      <point x="373" y="8"/>
      <point x="418" y="51" type="curve"/>
      <point x="421" y="33"/>
      <point x="426" y="15"/>
      <point x="433" y="0" type="curve"/>
      <point x="385" y="-32"/>
      <point x="336" y="-77"/>
      <point x="336" y="-124" type="curve" smooth="yes"/>
      <point x="336" y="-175"/>
      <point x="375" y="-190"/>
    </contour>
    <contour>
      <point x="277" y="54" type="curve" smooth="yes"/>
      <point x="221" y="54"/>
      <point x="179" y="91"/>
      <point x="179" y="194" type="curve" smooth="yes"/>
      <point x="179" y="329"/>
      <point x="271" y="463"/>
      <point x="427" y="463" type="curve" smooth="yes"/>
      <point x="447" y="463"/>
      <point x="466" y="460"/>
      <point x="489" y="455" type="curve"/>
      <point x="437" y="248" type="line" smooth="yes"/>
      <point x="429" y="211"/>
      <point x="416" y="161"/>
      <point x="415" y="125" type="curve"/>
      <point x="374" y="79"/>
      <point x="329" y="54"/>
    </contour>
  </outline>
</glyph>
<glyph name="Eogonek" format="2">
  <advance width="542"/>
  <unicode hex="0118"/>
  <outline>
    <contour>
      <point x="419" y="-190" type="curve" smooth="yes"/>
      <point x="439" y="-190"/>
      <point x="458" y="-186"/>
      <point x="477" y="-182" type="curve"/>
      <point x="484" y="-127" type="line"/>
      <point x="475" y="-129"/>
      <point x="461" y="-132"/>
      <point x="449" y="-132" type="curve" smooth="yes"/>
      <point x="427" y="-132"/>
      <point x="407" y="-126"/>
      <point x="407" y="-106" type="curve" smooth="yes"/>
      <point x="407" y="-81"/>
      <point x="433" y="-48"/>
      <point x="506" y="0" type="curve"/>
      <point x="521" y="67" type="line"/>
      <point x="179" y="67" type="line"/>
      <point x="245" y="331" type="line"/>
      <point x="526" y="331" type="line"/>
      <point x="542" y="397" type="line"/>
      <point x="258" y="397" type="line"/>
      <point x="314" y="626" type="line"/>
      <point x="632" y="626" type="line"/>
      <point x="648" y="693" type="line"/>
      <point x="253" y="693" type="line"/>
      <point x="87" y="0" type="line"/>
      <point x="433" y="0" type="line"/>
      <point x="385" y="-32"/>
      <point x="336" y="-77"/>
      <point x="336" y="-124" type="curve" smooth="yes"/>
      <point x="336" y="-175"/>
      <point x="375" y="-190"/>
    </contour>
  </outline>
</glyph>
<glyph name="eogonek" format="2">
  <advance width="504"/>
  <unicode hex="0119"/>
  <outline>
    <contour>
      <point x="284" y="-190" type="curve" smooth="yes"/>
      <point x="304" y="-190"/>
      <point x="322" y="-186"/>
      <point x="341" y="-182" type="curve"/>
      <point x="349" y="-127" type="line"/>
      <point x="340" y="-129"/>
      <point x="326" y="-132"/>
      <point x="314" y="-132" type="curve" smooth="yes"/>
      <point x="292" y="-132"/>
      <point x="272" y="-126"/>
      <point x="272" y="-106" type="curve" smooth="yes"/>
      <point x="272" y="-73"/>
      <point x="310" y="-37"/>
      <point x="400" y="27" type="curve"/>
      <point x="393" y="93" type="line"/>
      <point x="351" y="67"/>
      <point x="302" y="55"/>
      <point x="256" y="55" type="curve" smooth="yes"/>
      <point x="148" y="55"/>
      <point x="117" y="105"/>
      <point x="115" y="182" type="curve" smooth="yes"/>
      <point x="115" y="187"/>
      <point x="115" y="193"/>
      <point x="115" y="199" type="curve"/>
      <point x="337" y="207"/>
      <point x="488" y="240"/>
      <point x="488" y="396" type="curve" smooth="yes"/>
      <point x="488" y="477"/>
      <point x="433" y="530"/>
      <point x="340" y="530" type="curve" smooth="yes"/>
      <point x="150" y="530"/>
      <point x="41" y="353"/>
      <point x="41" y="181" type="curve" smooth="yes"/>
      <point x="41" y="68"/>
      <point x="92" y="-12"/>
      <point x="240" y="-12" type="curve" smooth="yes"/>
      <point x="255" y="-12"/>
      <point x="270" y="-10"/>
      <point x="285" y="-9" type="curve"/>
      <point x="242" y="-39"/>
      <point x="201" y="-81"/>
      <point x="201" y="-124" type="curve" smooth="yes"/>
      <point x="201" y="-175"/>
      <point x="240" y="-190"/>
    </contour>
    <contour>
      <point x="123" y="266" type="curve"/>
      <point x="149" y="373"/>
      <point x="229" y="465"/>
      <point x="332" y="465" type="curve" smooth="yes"/>
      <point x="381" y="465"/>
      <point x="414" y="440"/>
      <point x="414" y="390" type="curve" smooth="yes"/>
      <point x="414" y="311"/>
      <point x="345" y="270"/>
    </contour>
  </outline>
</glyph>
<glyph name="Hbar" format="2">
  <advance width="689"/>
  <unicode hex="0126"/>
  <outline>
    <contour>
      <point x="96" y="0" type="line"/>
      <point x="174" y="0" type="line"/>
      <point x="253" y="329" type="line"/>
      <point x="598" y="329" type="line"/>
      <point x="519" y="0" type="line"/>
      <point x="597" y="0" type="line"/>
      <point x="723" y="529" type="line"/>
      <point x="801" y="529" type="line"/>
      <point x="815" y="589" type="line"/>
      <point x="737" y="589" type="line"/>
      <point x="762" y="693" type="line"/>
      <point x="684" y="693" type="line"/>
      <point x="659" y="589" type="line"/>
      <point x="314" y="589" type="line"/>
      <point x="340" y="693" type="line"/>
      <point x="262" y="693" type="line"/>
      <point x="237" y="589" type="line"/>
      <point x="156" y="589" type="line"/>
      <point x="141" y="529" type="line"/>
      <point x="222" y="529" type="line"/>
    </contour>
    <contour>
      <point x="267" y="396" type="line"/>
      <point x="299" y="529" type="line"/>
      <point x="645" y="529" type="line"/>
      <point x="613" y="396" type="line"/>
    </contour>
  </outline>
</glyph>
<glyph name="hbar" format="2">
  <advance width="557"/>
  <unicode hex="0127"/>
  <outline>
    <contour>
      <point x="24" y="0" type="line"/>
      <point x="98" y="0" type="line"/>
      <point x="202" y="442" type="line"/>
      <point x="235" y="453"/>
      <point x="274" y="461"/>
      <point x="310" y="461" type="curve" smooth="yes"/>
      <point x="370" y="461"/>
      <point x="419" y="435"/>
      <point x="419" y="359" type="curve" smooth="yes"/>
      <point x="419" y="320"/>
      <point x="408" y="275"/>
      <point x="398" y="234" type="curve" smooth="yes"/>
      <point x="342" y="0" type="line"/>
      <point x="417" y="0" type="line"/>
      <point x="479" y="259" type="line" smooth="yes"/>
      <point x="488" y="295"/>
      <point x="494" y="330"/>
      <point x="494" y="364" type="curve" smooth="yes"/>
      <point x="494" y="474"/>
      <point x="424" y="528"/>
      <point x="332" y="528" type="curve" smooth="yes"/>
      <point x="295" y="528"/>
      <point x="257" y="520"/>
      <point x="218" y="504" type="curve"/>
      <point x="246" y="620" type="line"/>
      <point x="411" y="620" type="line"/>
      <point x="425" y="677" type="line"/>
      <point x="259" y="677" type="line"/>
      <point x="283" y="776" type="line"/>
      <point x="205" y="763" type="line"/>
      <point x="185" y="677" type="line"/>
      <point x="119" y="677" type="line"/>
      <point x="106" y="620" type="line"/>
      <point x="171" y="620" type="line"/>
    </contour>
  </outline>
</glyph>
<glyph name="Iogonek" format="2">
  <advance width="249"/>
  <unicode hex="012E"/>
  <outline>
    <contour>
      <point x="77" y="-190" type="curve" smooth="yes"/>
      <point x="97" y="-190"/>
      <point x="117" y="-187"/>
      <point x="136" y="-182" type="curve"/>
      <point x="143" y="-127" type="line"/>
      <point x="133" y="-130"/>
      <point x="120" y="-132"/>
      <point x="108" y="-132" type="curve" smooth="yes"/>
      <point x="87" y="-132"/>
      <point x="66" y="-126"/>
      <point x="66" y="-106" type="curve" smooth="yes"/>
      <point x="66" y="-79"/>
      <point x="96" y="-46"/>
      <point x="166" y="0" type="curve"/>
      <point x="331" y="693" type="line"/>
      <point x="253" y="693" type="line"/>
      <point x="87" y="0" type="line"/>
      <point x="93" y="0" type="line"/>
      <point x="48" y="-31"/>
      <point x="-4" y="-76"/>
      <point x="-4" y="-125" type="curve" smooth="yes"/>
      <point x="-4" y="-174"/>
      <point x="33" y="-190"/>
    </contour>
  </outline>
</glyph>
<glyph name="iogonek" format="2">
  <advance width="250"/>
  <unicode hex="012F"/>
  <outline>
    <contour>
      <point x="72" y="-190" type="curve" smooth="yes"/>
      <point x="92" y="-190"/>
      <point x="112" y="-187"/>
      <point x="131" y="-182" type="curve"/>
      <point x="139" y="-127" type="line"/>
      <point x="128" y="-130"/>
      <point x="115" y="-132"/>
      <point x="103" y="-132" type="curve" smooth="yes"/>
      <point x="82" y="-132"/>
      <point x="62" y="-126"/>
      <point x="62" y="-106" type="curve" smooth="yes"/>
      <point x="62" y="-79"/>
      <point x="91" y="-46"/>
      <point x="161" y="0" type="curve"/>
      <point x="286" y="518" type="line"/>
      <point x="212" y="518" type="line"/>
      <point x="87" y="0" type="line"/>
      <point x="90" y="0" type="line"/>
      <point x="45" y="-31"/>
      <point x="-9" y="-76"/>
      <point x="-9" y="-125" type="curve" smooth="yes"/>
      <point x="-9" y="-174"/>
      <point x="28" y="-190"/>
    </contour>
    <contour>
      <point x="281" y="622" type="curve" smooth="yes"/>
      <point x="306" y="622"/>
      <point x="335" y="643"/>
      <point x="335" y="678" type="curve" smooth="yes"/>
      <point x="335" y="707"/>
      <point x="316" y="726"/>
      <point x="289" y="726" type="curve" smooth="yes"/>
      <point x="263" y="726"/>
      <point x="236" y="704"/>
      <point x="236" y="668" type="curve" smooth="yes"/>
      <point x="236" y="640"/>
      <point x="253" y="622"/>
    </contour>
  </outline>
</glyph>
<glyph name="idotless" format="2">
  <advance width="250"/>
  <unicode hex="0131"/>
  <outline>
    <contour>
      <point x="87" y="0" type="line"/>
      <point x="161" y="0" type="line"/>
      <point x="286" y="518" type="line"/>
      <point x="212" y="518" type="line"/>
    </contour>
  </outline>
</glyph>
<glyph name="Lslash" format="2">
  <advance width="523"/>
  <unicode hex="0141"/>
  <outline>
    <contour>
      <point x="53" y="0" type="line"/>
      <point x="438" y="0" type="line"/>
      <point x="453" y="66" type="line"/>
      <point x="146" y="66" type="line"/>
      <point x="210" y="332" type="line"/>
      <point x="371" y="405" type="line"/>
      <point x="356" y="466" type="line"/>
      <point x="228" y="409" type="line"/>
      <point x="296" y="693" type="line"/>
      <point x="218" y="693" type="line"/>
      <point x="141" y="370" type="line"/>
      <point x="23" y="316" type="line"/>
      <point x="38" y="255" type="line"/>
      <point x="123" y="293" type="line"/>
    </contour>
  </outline>
</glyph>
<glyph name="lslash" format="2">
  <advance width="299"/>
  <unicode hex="0142"/>
  <outline>
    <contour>
      <point x="256" y="-9" type="curve"/>
      <point x="274" y="56" type="line"/>
      <point x="163" y="77"/>
      <point x="188" y="150"/>
      <point x="213" y="249" type="curve" smooth="yes"/>
      <point x="245" y="383" type="line"/>
      <point x="359" y="435" type="line"/>
      <point x="347" y="487" type="line"/>
      <point x="260" y="447" type="line"/>
      <point x="338" y="776" type="line"/>
      <point x="261" y="763" type="line"/>
      <point x="176" y="410" type="line"/>
      <point x="79" y="366" type="line"/>
      <point x="92" y="314" type="line"/>
      <point x="161" y="345" type="line"/>
      <point x="133" y="230" type="line" smooth="yes"/>
      <point x="104" y="107"/>
      <point x="106" y="-1"/>
    </contour>
  </outline>
</glyph>
<glyph name="Eng" format="2">
  <advance width="690"/>
  <unicode hex="014A"/>
  <outline>
    <contour>
      <point x="368" y="-187" type="curve" smooth="yes"/>
      <point x="491" y="-187"/>
      <point x="510" y="-128"/>
      <point x="540" y="-6" type="curve" smooth="yes"/>
      <point x="706" y="693" type="line"/>
      <point x="629" y="693" type="line"/>
      <point x="497" y="128" type="line"/>
      <point x="461" y="269"/>
      <point x="358" y="528"/>
      <point x="263" y="693" type="curve"/>
      <point x="190" y="693" type="line"/>
      <point x="24" y="0" type="line"/>
      <point x="101" y="0" type="line"/>
      <point x="241" y="585" type="line"/>
      <point x="320" y="443"/>
      <point x="418" y="167"/>
      <point x="467" y="6" type="curve"/>
      <point x="457" y="-34" type="line" smooth="yes"/>
      <point x="444" y="-93"/>
      <point x="427" y="-129"/>
      <point x="369" y="-129" type="curve" smooth="yes"/>
      <point x="357" y="-129"/>
      <point x="339" y="-125"/>
      <point x="327" y="-121" type="curve"/>
      <point x="311" y="-175" type="line"/>
      <point x="330" y="-183"/>
      <point x="350" y="-187"/>
    </contour>
  </outline>
</glyph>
<glyph name="eng" format="2">
  <advance width="558"/>
  <unicode hex="014B"/>
  <outline>
    <contour>
      <point x="230" y="-188" type="curve" smooth="yes"/>
      <point x="339" y="-188"/>
      <point x="389" y="-120"/>
      <point x="423" y="21" type="curve" smooth="yes"/>
      <point x="480" y="260" type="line" smooth="yes"/>
      <point x="518" y="413"/>
      <point x="487" y="528"/>
      <point x="318" y="528" type="curve" smooth="yes"/>
      <point x="255" y="528"/>
      <point x="194" y="514"/>
      <point x="143" y="499" type="curve"/>
      <point x="24" y="0" type="line"/>
      <point x="98" y="0" type="line"/>
      <point x="206" y="448" type="line"/>
      <point x="238" y="455"/>
      <point x="273" y="461"/>
      <point x="306" y="461" type="curve" smooth="yes"/>
      <point x="445" y="461"/>
      <point x="430" y="364"/>
      <point x="399" y="235" type="curve" smooth="yes"/>
      <point x="347" y="14" type="line" smooth="yes"/>
      <point x="326" y="-70"/>
      <point x="298" y="-125"/>
      <point x="229" y="-125" type="curve" smooth="yes"/>
      <point x="209" y="-125"/>
      <point x="190" y="-120"/>
      <point x="170" y="-109" type="curve"/>
      <point x="152" y="-170" type="line"/>
      <point x="168" y="-179"/>
      <point x="191" y="-188"/>
    </contour>
  </outline>
</glyph>
<glyph name="OE" format="2">
  <advance width="962"/>
  <unicode hex="0152"/>
  <outline>
    <contour>
      <point x="442" y="-8" type="curve" smooth="yes"/>
      <point x="476" y="-8"/>
      <point x="512" y="-5"/>
      <point x="549" y="0" type="curve"/>
      <point x="927" y="0" type="line"/>
      <point x="941" y="67" type="line"/>
      <point x="614" y="67" type="line"/>
      <point x="680" y="331" type="line"/>
      <point x="947" y="331" type="line"/>
      <point x="962" y="397" type="line"/>
      <point x="693" y="397" type="line"/>
      <point x="749" y="626" type="line"/>
      <point x="1053" y="626" type="line"/>
      <point x="1068" y="693" type="line"/>
      <point x="703" y="693" type="line"/>
      <point x="671" y="697"/>
      <point x="638" y="700"/>
      <point x="608" y="700" type="curve" smooth="yes"/>
      <point x="308" y="700"/>
      <point x="141" y="518"/>
      <point x="141" y="277" type="curve" smooth="yes"/>
      <point x="141" y="82"/>
      <point x="244" y="-8"/>
    </contour>
    <contour>
      <point x="440" y="61" type="curve" smooth="yes"/>
      <point x="292" y="61"/>
      <point x="223" y="126"/>
      <point x="223" y="279" type="curve" smooth="yes"/>
      <point x="223" y="485"/>
      <point x="354" y="632"/>
      <point x="603" y="632" type="curve" smooth="yes"/>
      <point x="625" y="632"/>
      <point x="649" y="631"/>
      <point x="673" y="628" type="curve"/>
      <point x="538" y="68" type="line"/>
      <point x="505" y="64"/>
      <point x="472" y="61"/>
    </contour>
  </outline>
</glyph>
<glyph name="oe" format="2">
  <advance width="859"/>
  <unicode hex="0153"/>
  <outline>
    <contour>
      <point x="281" y="-12" type="curve" smooth="yes"/>
      <point x="354" y="-12"/>
      <point x="427" y="21"/>
      <point x="481" y="99" type="curve"/>
      <point x="506" y="17"/>
      <point x="579" y="-12"/>
      <point x="656" y="-12" type="curve" smooth="yes"/>
      <point x="717" y="-12"/>
      <point x="778" y="4"/>
      <point x="818" y="22" type="curve"/>
      <point x="811" y="89" type="line"/>
      <point x="764" y="66"/>
      <point x="717" y="55"/>
      <point x="677" y="55" type="curve" smooth="yes"/>
      <point x="574" y="55"/>
      <point x="546" y="91"/>
      <point x="541" y="178" type="curve" smooth="yes"/>
      <point x="541" y="184"/>
      <point x="541" y="192"/>
      <point x="541" y="199" type="curve"/>
      <point x="776" y="208"/>
      <point x="905" y="240"/>
      <point x="905" y="396" type="curve" smooth="yes"/>
      <point x="905" y="485"/>
      <point x="840" y="530"/>
      <point x="761" y="530" type="curve" smooth="yes"/>
      <point x="682" y="530"/>
      <point x="603" y="492"/>
      <point x="547" y="418" type="curve"/>
      <point x="525" y="494"/>
      <point x="475" y="530"/>
      <point x="391" y="530" type="curve" smooth="yes"/>
      <point x="216" y="530"/>
      <point x="103" y="356"/>
      <point x="103" y="183" type="curve" smooth="yes"/>
      <point x="103" y="71"/>
      <point x="157" y="-12"/>
    </contour>
    <contour>
      <point x="286" y="54" type="curve" smooth="yes"/>
      <point x="211" y="54"/>
      <point x="179" y="106"/>
      <point x="179" y="187" type="curve" smooth="yes"/>
      <point x="179" y="320"/>
      <point x="264" y="463"/>
      <point x="385" y="463" type="curve" smooth="yes"/>
      <point x="446" y="463"/>
      <point x="484" y="422"/>
      <point x="484" y="345" type="curve" smooth="yes"/>
      <point x="484" y="154"/>
      <point x="380" y="54"/>
    </contour>
    <contour>
      <point x="551" y="266" type="curve"/>
      <point x="581" y="403"/>
      <point x="671" y="465"/>
      <point x="749" y="465" type="curve" smooth="yes"/>
      <point x="799" y="465"/>
      <point x="832" y="439"/>
      <point x="832" y="390" type="curve" smooth="yes"/>
      <point x="832" y="312"/>
      <point x="772" y="270"/>
    </contour>
  </outline>
</glyph>
<glyph name="Scedilla" format="2">
  <advance width="505"/>
  <unicode hex="015E"/>
  <outline>
    <contour>
      <point x="117" y="-191" type="curve" smooth="yes"/>
      <point x="181" y="-191"/>
      <point x="231" y="-160"/>
      <point x="231" y="-103" type="curve" smooth="yes"/>
      <point x="231" y="-72"/>
      <point x="218" y="-55"/>
      <point x="187" y="-39" type="curve"/>
      <point x="192" y="-31"/>
      <point x="197" y="-22"/>
      <point x="204" y="-13" type="curve"/>
      <point x="371" y="-3"/>
      <point x="448" y="95"/>
      <point x="448" y="199" type="curve" smooth="yes"/>
      <point x="448" y="319"/>
      <point x="363" y="355"/>
      <point x="289" y="393" type="curve" smooth="yes"/>
      <point x="236" y="420"/>
      <point x="191" y="448"/>
      <point x="191" y="515" type="curve" smooth="yes"/>
      <point x="191" y="607"/>
      <point x="271" y="642"/>
      <point x="355" y="642" type="curve" smooth="yes"/>
      <point x="407" y="642"/>
      <point x="453" y="631"/>
      <point x="497" y="603" type="curve"/>
      <point x="536" y="667" type="line"/>
      <point x="479" y="696"/>
      <point x="427" y="708"/>
      <point x="366" y="708" type="curve" smooth="yes"/>
      <point x="192" y="708"/>
      <point x="110" y="608"/>
      <point x="110" y="508" type="curve" smooth="yes"/>
      <point x="110" y="402"/>
      <point x="182" y="363"/>
      <point x="252" y="326" type="curve" smooth="yes"/>
      <point x="310" y="296"/>
      <point x="366" y="267"/>
      <point x="366" y="196" type="curve" smooth="yes"/>
      <point x="366" y="93"/>
      <point x="276" y="52"/>
      <point x="185" y="52" type="curve" smooth="yes"/>
      <point x="125" y="52"/>
      <point x="66" y="74"/>
      <point x="28" y="102" type="curve"/>
      <point x="-11" y="36" type="line"/>
      <point x="34" y="8"/>
      <point x="91" y="-9"/>
      <point x="150" y="-13" type="curve"/>
      <point x="138" y="-32"/>
      <point x="124" y="-51"/>
      <point x="117" y="-66" type="curve"/>
      <point x="154" y="-81"/>
      <point x="164" y="-90"/>
      <point x="164" y="-110" type="curve" smooth="yes"/>
      <point x="164" y="-131"/>
      <point x="145" y="-140"/>
      <point x="114" y="-140" type="curve" smooth="yes"/>
      <point x="97" y="-140"/>
      <point x="79" y="-136"/>
      <point x="64" y="-130" type="curve"/>
      <point x="44" y="-178" type="line"/>
      <point x="70" y="-188"/>
      <point x="93" y="-191"/>
    </contour>
  </outline>
</glyph>
<glyph name="scedilla" format="2">
  <advance width="419"/>
  <unicode hex="015F"/>
  <outline>
    <contour>
      <point x="87" y="-191" type="curve" smooth="yes"/>
      <point x="151" y="-191"/>
      <point x="201" y="-160"/>
      <point x="201" y="-103" type="curve" smooth="yes"/>
      <point x="201" y="-72"/>
      <point x="188" y="-55"/>
      <point x="157" y="-39" type="curve"/>
      <point x="161" y="-31"/>
      <point x="168" y="-20"/>
      <point x="176" y="-10" type="curve"/>
      <point x="269" y="-1"/>
      <point x="343" y="52"/>
      <point x="343" y="155" type="curve" smooth="yes"/>
      <point x="343" y="237"/>
      <point x="284" y="264"/>
      <point x="224" y="294" type="curve" smooth="yes"/>
      <point x="183" y="314"/>
      <point x="149" y="333"/>
      <point x="149" y="376" type="curve" smooth="yes"/>
      <point x="149" y="442"/>
      <point x="208" y="464"/>
      <point x="269" y="464" type="curve" smooth="yes"/>
      <point x="307" y="464"/>
      <point x="346" y="455"/>
      <point x="374" y="442" type="curve"/>
      <point x="403" y="506" type="line"/>
      <point x="366" y="522"/>
      <point x="321" y="530"/>
      <point x="275" y="530" type="curve" smooth="yes"/>
      <point x="170" y="530"/>
      <point x="77" y="482"/>
      <point x="77" y="368" type="curve" smooth="yes"/>
      <point x="77" y="285"/>
      <point x="134" y="256"/>
      <point x="187" y="230" type="curve" smooth="yes"/>
      <point x="233" y="207"/>
      <point x="271" y="189"/>
      <point x="271" y="142" type="curve" smooth="yes"/>
      <point x="271" y="82"/>
      <point x="218" y="55"/>
      <point x="150" y="55" type="curve" smooth="yes"/>
      <point x="102" y="55"/>
      <point x="67" y="65"/>
      <point x="21" y="89" type="curve"/>
      <point x="-10" y="24" type="line"/>
      <point x="26" y="4"/>
      <point x="72" y="-9"/>
      <point x="121" y="-11" type="curve"/>
      <point x="108" y="-29"/>
      <point x="94" y="-51"/>
      <point x="86" y="-66" type="curve"/>
      <point x="124" y="-81"/>
      <point x="134" y="-90"/>
      <point x="134" y="-110" type="curve" smooth="yes"/>
      <point x="134" y="-131"/>
      <point x="114" y="-140"/>
      <point x="84" y="-140" type="curve" smooth="yes"/>
      <point x="67" y="-140"/>
      <point x="49" y="-136"/>
      <point x="34" y="-130" type="curve"/>
      <point x="13" y="-178" type="line"/>
      <point x="40" y="-188"/>
      <point x="63" y="-191"/>
    </contour>
  </outline>
</glyph>
<glyph name="Tcedilla" format="2">
  <advance width="543"/>
  <unicode hex="0162"/>
  <outline>
    <contour>
      <point x="141" y="-191" type="curve" smooth="yes"/>
      <point x="204" y="-191"/>
      <point x="255" y="-160"/>
      <point x="255" y="-103" type="curve" smooth="yes"/>
      <point x="255" y="-72"/>
      <point x="241" y="-55"/>
      <point x="211" y="-39" type="curve"/>
      <point x="217" y="-29"/>
      <point x="227" y="-13"/>
      <point x="237" y="0" type="curve"/>
      <point x="247" y="0" type="line"/>
      <point x="397" y="626" type="line"/>
      <point x="607" y="626" type="line"/>
      <point x="624" y="693" type="line"/>
      <point x="124" y="693" type="line"/>
      <point x="108" y="626" type="line"/>
      <point x="319" y="626" type="line"/>
      <point x="169" y="0" type="line"/>
      <point x="184" y="0" type="line"/>
      <point x="169" y="-19"/>
      <point x="149" y="-47"/>
      <point x="140" y="-66" type="curve"/>
      <point x="177" y="-81"/>
      <point x="187" y="-90"/>
      <point x="187" y="-110" type="curve" smooth="yes"/>
      <point x="187" y="-131"/>
      <point x="168" y="-140"/>
      <point x="138" y="-140" type="curve" smooth="yes"/>
      <point x="120" y="-140"/>
      <point x="102" y="-136"/>
      <point x="87" y="-130" type="curve"/>
      <point x="67" y="-178" type="line"/>
      <point x="93" y="-188"/>
      <point x="116" y="-191"/>
    </contour>
  </outline>
</glyph>
<glyph name="uni0162" format="2">
  <advance width="540"/>
  <unicode hex="0162"/>
  <outline>
    <contour>
      <point x="203" y="-191" type="curve" smooth="yes"/>
      <point x="266" y="-191"/>
      <point x="317" y="-160"/>
      <point x="317" y="-103" type="curve" smooth="yes"/>
      <point x="317" y="-72"/>
      <point x="303" y="-55"/>
      <point x="273" y="-39" type="curve"/>
      <point x="279" y="-29"/>
      <point x="289" y="-13"/>
      <point x="299" y="0" type="curve"/>
      <point x="309" y="0" type="line"/>
      <point x="459" y="626" type="line"/>
      <point x="669" y="626" type="line"/>
      <point x="686" y="693" type="line"/>
      <point x="186" y="693" type="line"/>
      <point x="170" y="626" type="line"/>
      <point x="381" y="626" type="line"/>
      <point x="231" y="0" type="line"/>
      <point x="246" y="0" type="line"/>
      <point x="231" y="-19"/>
      <point x="211" y="-47"/>
      <point x="202" y="-66" type="curve"/>
      <point x="239" y="-81"/>
      <point x="249" y="-90"/>
      <point x="249" y="-110" type="curve" smooth="yes"/>
      <point x="249" y="-131"/>
      <point x="230" y="-140"/>
      <point x="200" y="-140" type="curve" smooth="yes"/>
      <point x="182" y="-140"/>
      <point x="164" y="-136"/>
      <point x="149" y="-130" type="curve"/>
      <point x="129" y="-178" type="line"/>
      <point x="155" y="-188"/>
      <point x="178" y="-191"/>
    </contour>
  </outline>
</glyph>
<glyph name="tcedilla" format="2">
  <advance width="391"/>
  <unicode hex="0163"/>
  <outline>
    <contour>
      <point x="120" y="-191" type="curve" smooth="yes"/>
      <point x="183" y="-191"/>
      <point x="234" y="-160"/>
      <point x="234" y="-103" type="curve" smooth="yes"/>
      <point x="234" y="-72"/>
      <point x="220" y="-55"/>
      <point x="190" y="-39" type="curve"/>
      <point x="194" y="-31"/>
      <point x="200" y="-21"/>
      <point x="207" y="-11" type="curve"/>
      <point x="247" y="-9"/>
      <point x="285" y="2"/>
      <point x="316" y="15" type="curve"/>
      <point x="310" y="80" type="line"/>
      <point x="275" y="65"/>
      <point x="247" y="55"/>
      <point x="206" y="55" type="curve" smooth="yes"/>
      <point x="119" y="55"/>
      <point x="122" y="132"/>
      <point x="141" y="209" type="curve" smooth="yes"/>
      <point x="200" y="455" type="line"/>
      <point x="381" y="455" type="line"/>
      <point x="396" y="518" type="line"/>
      <point x="216" y="518" type="line"/>
      <point x="255" y="681" type="line"/>
      <point x="177" y="668" type="line"/>
      <point x="68" y="212" type="line" smooth="yes"/>
      <point x="42" y="110"/>
      <point x="40" y="7"/>
      <point x="155" y="-10" type="curve"/>
      <point x="142" y="-28"/>
      <point x="127" y="-50"/>
      <point x="119" y="-66" type="curve"/>
      <point x="156" y="-81"/>
      <point x="166" y="-90"/>
      <point x="166" y="-110" type="curve" smooth="yes"/>
      <point x="166" y="-131"/>
      <point x="147" y="-140"/>
      <point x="116" y="-140" type="curve" smooth="yes"/>
      <point x="99" y="-140"/>
      <point x="81" y="-136"/>
      <point x="66" y="-130" type="curve"/>
      <point x="46" y="-178" type="line"/>
      <point x="72" y="-188"/>
      <point x="95" y="-191"/>
    </contour>
  </outline>
</glyph>
<glyph name="uni0163" format="2">
  <advance width="391"/>
  <unicode hex="0163"/>
  <outline>
    <contour>
      <point x="183" y="-191" type="curve" smooth="yes"/>
      <point x="246" y="-191"/>
      <point x="297" y="-160"/>
      <point x="297" y="-103" type="curve" smooth="yes"/>
      <point x="297" y="-72"/>
      <point x="283" y="-55"/>
      <point x="253" y="-39" type="curve"/>
      <point x="257" y="-31"/>
      <point x="263" y="-21"/>
      <point x="270" y="-11" type="curve"/>
      <point x="310" y="-9"/>
      <point x="348" y="2"/>
      <point x="379" y="15" type="curve"/>
      <point x="373" y="80" type="line"/>
      <point x="338" y="65"/>
      <point x="310" y="55"/>
      <point x="269" y="55" type="curve" smooth="yes"/>
      <point x="182" y="55"/>
      <point x="185" y="132"/>
      <point x="204" y="209" type="curve" smooth="yes"/>
      <point x="263" y="455" type="line"/>
      <point x="444" y="455" type="line"/>
      <point x="459" y="518" type="line"/>
      <point x="279" y="518" type="line"/>
      <point x="318" y="681" type="line"/>
      <point x="240" y="668" type="line"/>
      <point x="131" y="212" type="line" smooth="yes"/>
      <point x="105" y="110"/>
      <point x="103" y="7"/>
      <point x="218" y="-10" type="curve"/>
      <point x="205" y="-28"/>
      <point x="190" y="-50"/>
      <point x="182" y="-66" type="curve"/>
      <point x="219" y="-81"/>
      <point x="229" y="-90"/>
      <point x="229" y="-110" type="curve" smooth="yes"/>
      <point x="229" y="-131"/>
      <point x="210" y="-140"/>
      <point x="179" y="-140" type="curve" smooth="yes"/>
      <point x="162" y="-140"/>
      <point x="144" y="-136"/>
      <point x="129" y="-130" type="curve"/>
      <point x="109" y="-178" type="line"/>
      <point x="135" y="-188"/>
      <point x="158" y="-191"/>
    </contour>
  </outline>
</glyph>
<glyph name="Tbar" format="2">
  <advance width="544"/>
  <unicode hex="0166"/>
  <outline>
    <contour>
      <point x="233" y="0" type="line"/>
      <point x="311" y="0" type="line"/>
      <point x="388" y="324" type="line"/>
      <point x="524" y="324" type="line"/>
      <point x="538" y="382" type="line"/>
      <point x="403" y="382" type="line"/>
      <point x="461" y="626" type="line"/>
      <point x="671" y="626" type="line"/>
      <point x="687" y="693" type="line"/>
      <point x="187" y="693" type="line"/>
      <point x="172" y="626" type="line"/>
      <point x="383" y="626" type="line"/>
      <point x="325" y="382" type="line"/>
      <point x="199" y="382" type="line"/>
      <point x="185" y="324" type="line"/>
      <point x="310" y="324" type="line"/>
    </contour>
  </outline>
</glyph>
<glyph name="tbar" format="2">
  <advance width="391"/>
  <unicode hex="0167"/>
  <outline>
    <contour>
      <point x="250" y="-12" type="curve" smooth="yes"/>
      <point x="296" y="-12"/>
      <point x="343" y="0"/>
      <point x="379" y="15" type="curve"/>
      <point x="373" y="80" type="line"/>
      <point x="338" y="65"/>
      <point x="310" y="55"/>
      <point x="269" y="55" type="curve" smooth="yes"/>
      <point x="182" y="55"/>
      <point x="185" y="132"/>
      <point x="204" y="209" type="curve" smooth="yes"/>
      <point x="213" y="243" type="line"/>
      <point x="397" y="243" type="line"/>
      <point x="410" y="300" type="line"/>
      <point x="226" y="300" type="line"/>
      <point x="263" y="455" type="line"/>
      <point x="444" y="455" type="line"/>
      <point x="459" y="518" type="line"/>
      <point x="279" y="518" type="line"/>
      <point x="318" y="681" type="line"/>
      <point x="240" y="668" type="line"/>
      <point x="131" y="212" type="line" smooth="yes"/>
      <point x="100" y="90"/>
      <point x="111" y="-12"/>
    </contour>
  </outline>
</glyph>
<glyph name="Uogonek" format="2">
  <advance width="661"/>
  <unicode hex="0172"/>
  <outline>
    <contour>
      <point x="286" y="-190" type="curve" smooth="yes"/>
      <point x="306" y="-190"/>
      <point x="325" y="-186"/>
      <point x="344" y="-182" type="curve"/>
      <point x="352" y="-127" type="line"/>
      <point x="343" y="-129"/>
      <point x="329" y="-132"/>
      <point x="316" y="-132" type="curve" smooth="yes"/>
      <point x="295" y="-132"/>
      <point x="274" y="-126"/>
      <point x="274" y="-106" type="curve" smooth="yes"/>
      <point x="274" y="-82"/>
      <point x="297" y="-51"/>
      <point x="361" y="-8" type="curve"/>
      <point x="476" y="16"/>
      <point x="542" y="99"/>
      <point x="581" y="260" type="curve" smooth="yes"/>
      <point x="685" y="693" type="line"/>
      <point x="607" y="693" type="line"/>
      <point x="505" y="270" type="line" smooth="yes"/>
      <point x="468" y="117"/>
      <point x="410" y="53"/>
      <point x="292" y="53" type="curve" smooth="yes"/>
      <point x="188" y="53"/>
      <point x="154" y="112"/>
      <point x="154" y="188" type="curve" smooth="yes"/>
      <point x="154" y="215"/>
      <point x="159" y="246"/>
      <point x="166" y="275" type="curve" smooth="yes"/>
      <point x="267" y="693" type="line"/>
      <point x="189" y="693" type="line"/>
      <point x="89" y="276" type="line" smooth="yes"/>
      <point x="81" y="243"/>
      <point x="77" y="211"/>
      <point x="77" y="182" type="curve" smooth="yes"/>
      <point x="77" y="69"/>
      <point x="138" y="-13"/>
      <point x="279" y="-15" type="curve"/>
      <point x="239" y="-46"/>
      <point x="204" y="-84"/>
      <point x="204" y="-124" type="curve" smooth="yes"/>
      <point x="204" y="-175"/>
      <point x="243" y="-190"/>
    </contour>
  </outline>
</glyph>
<glyph name="uogonek" format="2">
  <advance width="539"/>
  <unicode hex="0173"/>
  <outline>
    <contour>
      <point x="351" y="-190" type="curve" smooth="yes"/>
      <point x="370" y="-190"/>
      <point x="389" y="-186"/>
      <point x="408" y="-182" type="curve"/>
      <point x="416" y="-127" type="line"/>
      <point x="407" y="-129"/>
      <point x="393" y="-132"/>
      <point x="380" y="-132" type="curve" smooth="yes"/>
      <point x="359" y="-132"/>
      <point x="339" y="-126"/>
      <point x="339" y="-106" type="curve" smooth="yes"/>
      <point x="339" y="-81"/>
      <point x="369" y="-44"/>
      <point x="444" y="5" type="curve"/>
      <point x="428" y="42"/>
      <point x="421" y="76"/>
      <point x="421" y="109" type="curve" smooth="yes"/>
      <point x="421" y="138"/>
      <point x="427" y="168"/>
      <point x="434" y="200" type="curve" smooth="yes"/>
      <point x="512" y="518" type="line"/>
      <point x="438" y="518" type="line"/>
      <point x="371" y="248" type="line" smooth="yes"/>
      <point x="362" y="211"/>
      <point x="349" y="161"/>
      <point x="349" y="125" type="curve"/>
      <point x="308" y="79"/>
      <point x="264" y="55"/>
      <point x="204" y="55" type="curve" smooth="yes"/>
      <point x="80" y="55"/>
      <point x="111" y="172"/>
      <point x="138" y="284" type="curve" smooth="yes"/>
      <point x="195" y="518" type="line"/>
      <point x="120" y="518" type="line"/>
      <point x="57" y="258" type="line" smooth="yes"/>
      <point x="23" y="119"/>
      <point x="28" y="-12"/>
      <point x="193" y="-12" type="curve" smooth="yes"/>
      <point x="255" y="-12"/>
      <point x="307" y="8"/>
      <point x="352" y="52" type="curve"/>
      <point x="354" y="34"/>
      <point x="359" y="16"/>
      <point x="366" y="1" type="curve"/>
      <point x="318" y="-31"/>
      <point x="268" y="-77"/>
      <point x="268" y="-124" type="curve" smooth="yes"/>
      <point x="268" y="-175"/>
      <point x="307" y="-190"/>
    </contour>
  </outline>
</glyph>
<glyph name="longs" format="2">
  <advance width="277"/>
  <unicode hex="017F"/>
  <outline>
    <contour>
      <point x="54" y="-189" type="line"/>
      <point x="122" y="-114"/>
      <point x="153" y="-28"/>
      <point x="186" y="107" type="curve" smooth="yes"/>
      <point x="298" y="569" type="line" smooth="yes"/>
      <point x="324" y="677"/>
      <point x="374" y="711"/>
      <point x="442" y="711" type="curve" smooth="yes"/>
      <point x="475" y="711"/>
      <point x="498" y="705"/>
      <point x="526" y="696" type="curve"/>
      <point x="559" y="755" type="line"/>
      <point x="531" y="766"/>
      <point x="498" y="776"/>
      <point x="452" y="776" type="curve" smooth="yes"/>
      <point x="351" y="776"/>
      <point x="261" y="728"/>
      <point x="223" y="571" type="curve" smooth="yes"/>
      <point x="101" y="65" type="line" smooth="yes"/>
      <point x="80" y="-26"/>
      <point x="56" y="-92"/>
      <point x="-12" y="-179" type="curve"/>
    </contour>
  </outline>
</glyph>
<glyph name="uni0180" format="2">
  <advance width="539"/>
  <unicode hex="0180"/>
  <outline>
    <contour>
      <point x="225" y="-12" type="curve" smooth="yes"/>
      <point x="445" y="-12"/>
      <point x="566" y="162"/>
      <point x="566" y="334" type="curve" smooth="yes"/>
      <point x="566" y="453"/>
      <point x="511" y="530"/>
      <point x="397" y="530" type="curve" smooth="yes"/>
      <point x="354" y="530"/>
      <point x="310" y="517"/>
      <point x="271" y="492" type="curve"/>
      <point x="302" y="624" type="line"/>
      <point x="460" y="624" type="line"/>
      <point x="473" y="681" type="line"/>
      <point x="316" y="681" type="line"/>
      <point x="338" y="776" type="line"/>
      <point x="260" y="763" type="line"/>
      <point x="241" y="681" type="line"/>
      <point x="167" y="681" type="line"/>
      <point x="154" y="624" type="line"/>
      <point x="227" y="624" type="line"/>
      <point x="82" y="18" type="line"/>
      <point x="128" y="-3"/>
      <point x="182" y="-12"/>
    </contour>
    <contour>
      <point x="237" y="55" type="curve" smooth="yes"/>
      <point x="213" y="55"/>
      <point x="191" y="59"/>
      <point x="169" y="65" type="curve"/>
      <point x="251" y="410" type="line"/>
      <point x="294" y="444"/>
      <point x="343" y="463"/>
      <point x="383" y="463" type="curve" smooth="yes"/>
      <point x="446" y="463"/>
      <point x="490" y="421"/>
      <point x="490" y="329" type="curve" smooth="yes"/>
      <point x="490" y="202"/>
      <point x="402" y="55"/>
    </contour>
  </outline>
</glyph>
<glyph name="Bhook" format="2">
  <advance width="690"/>
  <unicode hex="0181"/>
  <unicode hex="0253"/>
  <outline>
    <contour>
      <point x="282" y="-6" type="curve" smooth="yes"/>
      <point x="462" y="-6"/>
      <point x="621" y="52"/>
      <point x="621" y="233" type="curve" smooth="yes"/>
      <point x="621" y="291"/>
      <point x="585" y="348"/>
      <point x="523" y="365" type="curve"/>
      <point x="601" y="391"/>
      <point x="664" y="456"/>
      <point x="664" y="543" type="curve" smooth="yes"/>
      <point x="664" y="668"/>
      <point x="546" y="700"/>
      <point x="430" y="700" type="curve" smooth="yes"/>
      <point x="227" y="700"/>
      <point x="69" y="687"/>
      <point x="62" y="494" type="curve"/>
      <point x="127" y="501" type="line"/>
      <point x="134" y="561"/>
      <point x="157" y="621"/>
      <point x="247" y="627" type="curve"/>
      <point x="100" y="13" type="line"/>
      <point x="153" y="1"/>
      <point x="217" y="-6"/>
    </contour>
    <contour>
      <point x="287" y="59" type="curve" smooth="yes"/>
      <point x="251" y="59"/>
      <point x="217" y="61"/>
      <point x="190" y="66" type="curve"/>
      <point x="251" y="329" type="line"/>
      <point x="376" y="329" type="line" smooth="yes"/>
      <point x="491" y="329"/>
      <point x="539" y="301"/>
      <point x="539" y="228" type="curve" smooth="yes"/>
      <point x="539" y="88"/>
      <point x="412" y="59"/>
    </contour>
    <contour>
      <point x="268" y="393" type="line"/>
      <point x="325" y="630" type="line"/>
      <point x="350" y="633"/>
      <point x="384" y="634"/>
      <point x="419" y="634" type="curve" smooth="yes"/>
      <point x="527" y="634"/>
      <point x="583" y="604"/>
      <point x="583" y="528" type="curve" smooth="yes"/>
      <point x="583" y="448"/>
      <point x="519" y="393"/>
      <point x="361" y="393" type="curve" smooth="yes"/>
    </contour>
  </outline>
</glyph>
<glyph name="uni0181" format="2">
  <advance width="690"/>
  <unicode hex="0181"/>
  <outline>
    <contour>
      <point x="345" y="-6" type="curve" smooth="yes"/>
      <point x="525" y="-6"/>
      <point x="684" y="52"/>
      <point x="684" y="233" type="curve" smooth="yes"/>
      <point x="684" y="291"/>
      <point x="648" y="348"/>
      <point x="586" y="365" type="curve"/>
      <point x="664" y="391"/>
      <point x="727" y="456"/>
      <point x="727" y="543" type="curve" smooth="yes"/>
      <point x="727" y="668"/>
      <point x="609" y="700"/>
      <point x="493" y="700" type="curve" smooth="yes"/>
      <point x="290" y="700"/>
      <point x="132" y="687"/>
      <point x="125" y="494" type="curve"/>
      <point x="190" y="501" type="line"/>
      <point x="197" y="561"/>
      <point x="220" y="621"/>
      <point x="310" y="627" type="curve"/>
      <point x="163" y="13" type="line"/>
      <point x="216" y="1"/>
      <point x="280" y="-6"/>
    </contour>
    <contour>
      <point x="350" y="59" type="curve" smooth="yes"/>
      <point x="314" y="59"/>
      <point x="280" y="61"/>
      <point x="253" y="66" type="curve"/>
      <point x="314" y="329" type="line"/>
      <point x="439" y="329" type="line" smooth="yes"/>
      <point x="554" y="329"/>
      <point x="602" y="301"/>
      <point x="602" y="228" type="curve" smooth="yes"/>
      <point x="602" y="88"/>
      <point x="475" y="59"/>
    </contour>
    <contour>
      <point x="331" y="393" type="line"/>
      <point x="388" y="630" type="line"/>
      <point x="413" y="633"/>
      <point x="447" y="634"/>
      <point x="482" y="634" type="curve" smooth="yes"/>
      <point x="590" y="634"/>
      <point x="646" y="604"/>
      <point x="646" y="528" type="curve" smooth="yes"/>
      <point x="646" y="448"/>
      <point x="582" y="393"/>
      <point x="424" y="393" type="curve" smooth="yes"/>
    </contour>
  </outline>
</glyph>
<glyph name="Btopbar" format="2">
  <advance width="601"/>
  <unicode hex="0182"/>
  <outline>
    <contour>
      <point x="268" y="-7" type="curve" smooth="yes"/>
      <point x="473" y="-7"/>
      <point x="598" y="88"/>
      <point x="598" y="257" type="curve" smooth="yes"/>
      <point x="598" y="379"/>
      <point x="505" y="427"/>
      <point x="354" y="427" type="curve" smooth="yes"/>
      <point x="263" y="427" type="line"/>
      <point x="311" y="626" type="line"/>
      <point x="630" y="626" type="line"/>
      <point x="645" y="693" type="line"/>
      <point x="250" y="693" type="line"/>
      <point x="87" y="13" type="line"/>
      <point x="135" y="1"/>
      <point x="214" y="-7"/>
    </contour>
    <contour>
      <point x="262" y="61" type="curve" smooth="yes"/>
      <point x="236" y="61"/>
      <point x="186" y="66"/>
      <point x="177" y="68" type="curve"/>
      <point x="248" y="361" type="line"/>
      <point x="346" y="361" type="line" smooth="yes"/>
      <point x="434" y="361"/>
      <point x="517" y="343"/>
      <point x="517" y="251" type="curve" smooth="yes"/>
      <point x="517" y="99"/>
      <point x="387" y="61"/>
    </contour>
  </outline>
</glyph>
<glyph name="uni0182" format="2">
  <advance width="601"/>
  <unicode hex="0182"/>
  <outline>
    <contour>
      <point x="268" y="-7" type="curve" smooth="yes"/>
      <point x="473" y="-7"/>
      <point x="598" y="88"/>
      <point x="598" y="257" type="curve" smooth="yes"/>
      <point x="598" y="379"/>
      <point x="505" y="427"/>
      <point x="354" y="427" type="curve" smooth="yes"/>
      <point x="263" y="427" type="line"/>
      <point x="311" y="626" type="line"/>
      <point x="630" y="626" type="line"/>
      <point x="645" y="693" type="line"/>
      <point x="250" y="693" type="line"/>
      <point x="87" y="13" type="line"/>
      <point x="135" y="1"/>
      <point x="214" y="-7"/>
    </contour>
    <contour>
      <point x="262" y="61" type="curve" smooth="yes"/>
      <point x="236" y="61"/>
      <point x="186" y="66"/>
      <point x="177" y="68" type="curve"/>
      <point x="248" y="361" type="line"/>
      <point x="346" y="361" type="line" smooth="yes"/>
      <point x="434" y="361"/>
      <point x="517" y="343"/>
      <point x="517" y="251" type="curve" smooth="yes"/>
      <point x="517" y="99"/>
      <point x="387" y="61"/>
    </contour>
  </outline>
</glyph>
<glyph name="btopbar" format="2">
  <advance width="546"/>
  <unicode hex="0183"/>
  <outline>
    <contour>
      <point x="169" y="-12" type="curve" smooth="yes"/>
      <point x="389" y="-12"/>
      <point x="510" y="162"/>
      <point x="510" y="334" type="curve" smooth="yes"/>
      <point x="510" y="453"/>
      <point x="455" y="530"/>
      <point x="341" y="530" type="curve" smooth="yes"/>
      <point x="298" y="530"/>
      <point x="254" y="517"/>
      <point x="215" y="492" type="curve"/>
      <point x="266" y="708" type="line"/>
      <point x="538" y="708" type="line"/>
      <point x="553" y="771" type="line"/>
      <point x="207" y="771" type="line"/>
      <point x="26" y="18" type="line"/>
      <point x="72" y="-3"/>
      <point x="126" y="-12"/>
    </contour>
    <contour>
      <point x="181" y="55" type="curve" smooth="yes"/>
      <point x="157" y="55"/>
      <point x="135" y="59"/>
      <point x="113" y="65" type="curve"/>
      <point x="195" y="410" type="line"/>
      <point x="238" y="444"/>
      <point x="287" y="463"/>
      <point x="327" y="463" type="curve" smooth="yes"/>
      <point x="390" y="463"/>
      <point x="434" y="421"/>
      <point x="434" y="329" type="curve" smooth="yes"/>
      <point x="434" y="202"/>
      <point x="346" y="55"/>
    </contour>
  </outline>
</glyph>
<glyph name="uni0183" format="2">
  <advance width="539"/>
  <unicode hex="0183"/>
  <outline>
    <contour>
      <point x="225" y="-12" type="curve" smooth="yes"/>
      <point x="445" y="-12"/>
      <point x="566" y="162"/>
      <point x="566" y="334" type="curve" smooth="yes"/>
      <point x="566" y="453"/>
      <point x="511" y="530"/>
      <point x="397" y="530" type="curve" smooth="yes"/>
      <point x="354" y="530"/>
      <point x="310" y="517"/>
      <point x="271" y="492" type="curve"/>
      <point x="322" y="708" type="line"/>
      <point x="594" y="708" type="line"/>
      <point x="609" y="771" type="line"/>
      <point x="263" y="771" type="line"/>
      <point x="82" y="18" type="line"/>
      <point x="128" y="-3"/>
      <point x="182" y="-12"/>
    </contour>
    <contour>
      <point x="237" y="55" type="curve" smooth="yes"/>
      <point x="213" y="55"/>
      <point x="191" y="59"/>
      <point x="169" y="65" type="curve"/>
      <point x="251" y="410" type="line"/>
      <point x="294" y="444"/>
      <point x="343" y="463"/>
      <point x="383" y="463" type="curve" smooth="yes"/>
      <point x="446" y="463"/>
      <point x="490" y="421"/>
      <point x="490" y="329" type="curve" smooth="yes"/>
      <point x="490" y="202"/>
      <point x="402" y="55"/>
    </contour>
  </outline>
</glyph>
<glyph name="tonesix" format="2">
  <advance width="606"/>
  <unicode hex="0185"/>
  <outline>
    <contour>
      <point x="205" y="-6" type="curve" smooth="yes"/>
      <point x="411" y="-6"/>
      <point x="542" y="88"/>
      <point x="542" y="267" type="curve" smooth="yes"/>
      <point x="542" y="382"/>
      <point x="455" y="436"/>
      <point x="296" y="436" type="curve" smooth="yes"/>
      <point x="269" y="436"/>
      <point x="235" y="433"/>
      <point x="203" y="430" type="curve"/>
      <point x="268" y="699" type="line"/>
      <point x="219" y="686"/>
      <point x="147" y="658"/>
      <point x="108" y="637" type="curve"/>
      <point x="158" y="565" type="line"/>
      <point x="26" y="13" type="line"/>
      <point x="71" y="0"/>
      <point x="152" y="-6"/>
    </contour>
    <contour>
      <point x="206" y="61" type="curve" smooth="yes"/>
      <point x="168" y="61"/>
      <point x="128" y="66"/>
      <point x="117" y="68" type="curve"/>
      <point x="187" y="363" type="line"/>
      <point x="193" y="365"/>
      <point x="224" y="369"/>
      <point x="286" y="369" type="curve" smooth="yes"/>
      <point x="383" y="369"/>
      <point x="463" y="349"/>
      <point x="463" y="262" type="curve" smooth="yes"/>
      <point x="463" y="99"/>
      <point x="326" y="61"/>
    </contour>
  </outline>
</glyph>
<glyph name="Oopen" format="2">
  <advance width="593"/>
  <unicode hex="0186"/>
  <unicode hex="0254"/>
  <outline>
    <contour>
      <point x="223" y="-15" type="curve" smooth="yes"/>
      <point x="415" y="-15"/>
      <point x="622" y="119"/>
      <point x="622" y="456" type="curve" smooth="yes"/>
      <point x="622" y="624"/>
      <point x="521" y="708"/>
      <point x="368" y="708" type="curve" smooth="yes"/>
      <point x="312" y="708"/>
      <point x="251" y="696"/>
      <point x="188" y="673" type="curve"/>
      <point x="194" y="603" type="line"/>
      <point x="245" y="622"/>
      <point x="289" y="639"/>
      <point x="364" y="639" type="curve" smooth="yes"/>
      <point x="467" y="639"/>
      <point x="539" y="593"/>
      <point x="539" y="441" type="curve" smooth="yes"/>
      <point x="539" y="185"/>
      <point x="390" y="54"/>
      <point x="226" y="54" type="curve" smooth="yes"/>
      <point x="171" y="54"/>
      <point x="134" y="65"/>
      <point x="83" y="94" type="curve"/>
      <point x="44" y="29" type="line"/>
      <point x="89" y="3"/>
      <point x="145" y="-15"/>
    </contour>
  </outline>
</glyph>
